<svg width="32" height="32" viewBox="0 0 32 32" fill="none" xmlns="http://www.w3.org/2000/svg">
<path d="M15.6105 7.60272C11.1769 7.60272 7.59882 11.1809 7.59882 15.6144C7.59882 20.048 11.1769 23.6262 15.6105 23.6262C20.0441 23.6262 23.6223 20.048 23.6223 15.6144C23.6223 11.1809 20.0441 7.60272 15.6105 7.60272ZM15.6105 20.8215C12.7433 20.8215 10.4035 18.4816 10.4035 15.6144C10.4035 12.7473 12.7433 10.4074 15.6105 10.4074C18.4777 10.4074 20.8176 12.7473 20.8176 15.6144C20.8176 18.4816 18.4777 20.8215 15.6105 20.8215ZM23.9504 5.40741C22.9152 5.40741 22.0793 6.24335 22.0793 7.27851C22.0793 8.31366 22.9152 9.1496 23.9504 9.1496C24.9855 9.1496 25.8215 8.31757 25.8215 7.27851C25.8218 7.0327 25.7736 6.78926 25.6797 6.5621C25.5858 6.33495 25.4479 6.12856 25.2741 5.95475C25.1003 5.78095 24.8939 5.64313 24.6668 5.54921C24.4396 5.45529 24.1962 5.4071 23.9504 5.40741ZM31.2277 15.6144C31.2277 13.4582 31.2473 11.3215 31.1262 9.16913C31.0051 6.66913 30.4348 4.45038 28.6066 2.62226C26.7746 0.790224 24.5598 0.223818 22.0598 0.102724C19.9035 -0.0183694 17.7668 0.00116189 15.6144 0.00116189C13.4582 0.00116189 11.3215 -0.0183694 9.16913 0.102724C6.66913 0.223818 4.45038 0.794131 2.62226 2.62226C0.790224 4.45429 0.223818 6.66913 0.102724 9.16913C-0.0183694 11.3254 0.00116189 13.4621 0.00116189 15.6144C0.00116189 17.7668 -0.0183694 19.9074 0.102724 22.0598C0.223818 24.5598 0.794131 26.7785 2.62226 28.6066C4.45429 30.4387 6.66913 31.0051 9.16913 31.1262C11.3254 31.2473 13.4621 31.2277 15.6144 31.2277C17.7707 31.2277 19.9074 31.2473 22.0598 31.1262C24.5598 31.0051 26.7785 30.4348 28.6066 28.6066C30.4387 26.7746 31.0051 24.5598 31.1262 22.0598C31.2512 19.9074 31.2277 17.7707 31.2277 15.6144ZM27.7902 24.8254C27.5051 25.5363 27.1613 26.0676 26.6105 26.6144C26.0598 27.1652 25.5324 27.509 24.8215 27.7941C22.7668 28.6105 17.8879 28.4269 15.6105 28.4269C13.3332 28.4269 8.45038 28.6105 6.39569 27.798C5.68476 27.5129 5.15351 27.1691 4.60663 26.6184C4.05585 26.0676 3.7121 25.5402 3.42694 24.8293C2.61444 22.7707 2.79804 17.8918 2.79804 15.6144C2.79804 13.3371 2.61444 8.45429 3.42694 6.3996C3.7121 5.68866 4.05585 5.15741 4.60663 4.61054C5.15741 4.06366 5.68476 3.71601 6.39569 3.43085C8.45038 2.61835 13.3332 2.80194 15.6105 2.80194C17.8879 2.80194 22.7707 2.61835 24.8254 3.43085C25.5363 3.71601 26.0676 4.05976 26.6144 4.61054C27.1652 5.16132 27.509 5.68866 27.7941 6.3996C28.6066 8.45429 28.423 13.3371 28.423 15.6144C28.423 17.8918 28.6066 22.7707 27.7902 24.8254Z" fill="black"/>
</svg>
