<svg width="35" height="29" viewBox="0 0 35 29" fill="none" xmlns="http://www.w3.org/2000/svg">
<path d="M34.1291 4.04455C32.874 4.58595 31.5082 4.9756 30.1014 5.12736C31.562 4.25962 32.6558 2.88873 33.1775 1.27189C31.8069 2.08724 30.3054 2.65897 28.7396 2.96174C28.0852 2.26212 27.2937 1.70477 26.4145 1.32442C25.5352 0.944075 24.5871 0.748877 23.6291 0.750994C19.7531 0.750994 16.6359 3.89279 16.6359 7.74826C16.6359 8.28967 16.7016 8.83107 16.8082 9.35197C11.0045 9.04846 5.82832 6.2758 2.38711 2.03068C1.76008 3.10166 1.4315 4.3211 1.43555 5.56213C1.43555 7.99025 2.67012 10.1313 4.55273 11.3904C3.44328 11.3468 2.3598 11.0418 1.39043 10.5004V10.5865C1.39043 13.9867 3.79395 16.8045 6.99727 17.4526C6.39581 17.6088 5.77708 17.6887 5.15566 17.6904C4.70039 17.6904 4.26973 17.6453 3.83496 17.5838C4.7209 20.3565 7.30078 22.3703 10.3729 22.436C7.96934 24.3186 4.95879 25.426 1.68984 25.426C1.10332 25.426 0.561914 25.4055 0 25.3399C3.10078 27.3291 6.77988 28.4776 10.742 28.4776C23.6045 28.4776 30.6428 17.8217 30.6428 8.57267C30.6428 8.26916 30.6428 7.96564 30.6223 7.66213C31.984 6.66545 33.1775 5.43088 34.1291 4.04455Z" fill="black"/>
</svg>
