<svg width="24" height="24" viewBox="0 0 24 24" fill="none" xmlns="http://www.w3.org/2000/svg">
<path d="M0 2.66667C0 1.95942 0.280951 1.28115 0.781048 0.781048C1.28115 0.280951 1.95942 0 2.66667 0H21.3333C22.0406 0 22.7189 0.280951 23.219 0.781048C23.719 1.28115 24 1.95942 24 2.66667V21.3333C24 22.0406 23.719 22.7189 23.219 23.219C22.7189 23.719 22.0406 24 21.3333 24H2.66667C1.95942 24 1.28115 23.719 0.781048 23.219C0.280951 22.7189 0 22.0406 0 21.3333V2.66667Z" fill="#CFD8DC"/>
<path d="M22.0003 7.51384C22.0016 7.5742 21.9789 7.63259 21.9371 7.67621C21.8954 7.71982 21.838 7.74511 21.7777 7.7465H20.5783L15.1357 19.8658C15.101 19.9458 15.0223 19.9992 14.9377 20.0005H14.935C14.8931 20.0002 14.8521 19.988 14.8169 19.9652C14.7817 19.9424 14.7538 19.91 14.7363 19.8718L12.1537 14.5125L9.36701 19.8785C9.34831 19.9159 9.31943 19.9472 9.28369 19.9689C9.24795 19.9907 9.20681 20.0018 9.16501 20.0012C9.12344 19.9993 9.08321 19.9859 9.04883 19.9625C9.01444 19.9391 8.98727 19.9065 8.97034 19.8685L3.46901 7.74717H2.22234C2.16216 7.74508 2.1052 7.71947 2.06369 7.67585C2.02218 7.63222 1.99943 7.57405 2.00034 7.51384V6.89984C1.99946 6.8699 2.00451 6.84009 2.01521 6.81212C2.02591 6.78415 2.04205 6.75858 2.06269 6.73689C2.08334 6.71519 2.10807 6.6978 2.13548 6.68572C2.16288 6.67364 2.1924 6.66711 2.22234 6.6665H6.66034C6.69028 6.66711 6.71981 6.67364 6.74721 6.68572C6.77461 6.6978 6.79935 6.71519 6.81999 6.73689C6.84063 6.75858 6.85677 6.78415 6.86748 6.81212C6.87818 6.84009 6.88323 6.8699 6.88234 6.89984V7.51384C6.8836 7.57408 6.86095 7.63238 6.81935 7.67598C6.77775 7.71957 6.72058 7.74493 6.66034 7.7465H5.70501L9.50234 16.9118L11.4783 13.0498L8.97368 7.74784H8.37101C8.31065 7.74627 8.25338 7.72082 8.21176 7.67707C8.17015 7.63333 8.14758 7.57486 8.14901 7.5145V6.89984C8.14901 6.7725 8.24834 6.66784 8.37101 6.66784H11.6537C11.6835 6.66844 11.7129 6.67493 11.7402 6.68693C11.7675 6.69892 11.7922 6.71619 11.8128 6.73775C11.8335 6.7593 11.8496 6.78471 11.8604 6.81253C11.8712 6.84034 11.8764 6.87001 11.8757 6.89984V7.5145C11.8757 7.6425 11.7763 7.74784 11.6537 7.74784H11.0757L12.517 11.0465L14.2317 7.74784H13.1803C13.1503 7.74732 13.1207 7.74085 13.0933 7.72881C13.0658 7.71677 13.041 7.69939 13.0203 7.67769C12.9995 7.65598 12.9834 7.63038 12.9726 7.60237C12.9619 7.57436 12.9568 7.54449 12.9577 7.5145V6.89984C12.957 6.86996 12.9622 6.84024 12.973 6.81238C12.9838 6.78452 13.0001 6.75908 13.0207 6.73752C13.0414 6.71595 13.0662 6.6987 13.0936 6.68674C13.121 6.67478 13.1505 6.66836 13.1803 6.66784H16.3697C16.4943 6.66784 16.5917 6.77184 16.5917 6.89984V7.5145C16.5926 7.54444 16.5875 7.57425 16.5768 7.60222C16.5661 7.63019 16.55 7.65576 16.5293 7.67746C16.5087 7.69915 16.4839 7.71654 16.4565 7.72862C16.4291 7.7407 16.3996 7.74723 16.3697 7.74784H15.6697L13.165 12.5085L15.207 16.8978L19.1437 7.74784H17.8957C17.8353 7.74626 17.7779 7.72084 17.7362 7.67711C17.6945 7.63339 17.6718 7.57493 17.673 7.5145V6.89984C17.673 6.7725 17.773 6.66784 17.8957 6.66784H21.777C21.8069 6.66836 21.8364 6.67478 21.8638 6.68674C21.8912 6.6987 21.9159 6.71595 21.9366 6.73752C21.9573 6.75908 21.9735 6.78452 21.9844 6.81238C21.9952 6.84024 22.0004 6.86996 21.9997 6.89984V7.51384H22.0003Z" fill="#37474F"/>
</svg>
