<svg width="120" height="63" viewBox="0 0 120 63" fill="none" xmlns="http://www.w3.org/2000/svg">
<path fill-rule="evenodd" clip-rule="evenodd" d="M31.9707 1.1248C21.6072 4.6708 11.7057 14.4398 4.90923 27.8238C-3.59277 44.5658 -0.781265 59.6953 11.2492 61.9428C16.0352 62.8368 22.0862 60.8483 27.8472 56.4878L30.4617 54.5088L31.0257 56.7483C32.0452 60.7968 36.2992 63.2853 40.0632 62.0353C40.9747 61.7323 42.5902 60.6858 43.6527 59.7093C44.7152 58.7328 45.6317 58.0018 45.6892 58.0853C45.7472 58.1688 46.2937 58.9603 46.9042 59.8443C48.3172 61.8913 50.7967 62.6423 53.8687 61.9538C56.6247 61.3358 57.6592 60.8083 60.3047 58.6708C61.4512 57.7448 62.5247 56.9868 62.6902 56.9868C62.8557 56.9868 62.5207 57.9088 61.9462 59.0353C60.5857 61.7013 60.9237 62.4868 63.4317 62.4868C65.6482 62.4868 65.2497 62.9003 69.9422 55.7368C73.3762 50.4938 74.6527 49.0403 78.6972 45.7643C81.8972 43.1723 84.2762 41.9433 85.3197 42.3438C86.4822 42.7903 86.0257 43.7983 82.6222 48.3043C78.0832 54.3133 77.2642 56.6698 78.7292 59.5033C79.8267 61.6253 82.1047 62.6423 85.1777 62.3808C88.2817 62.1173 90.4982 61.0993 93.6652 58.4823C96.3877 56.2323 96.9707 56.0553 96.9707 57.4788C96.9707 58.0248 97.5897 59.1613 98.3457 60.0053C102.235 64.3458 110.755 62.0818 117.096 55.0228C119.541 52.3008 120.159 50.2198 118.691 49.6563C118.16 49.4523 116.844 50.4878 114.566 52.9013C109.895 57.8508 105.68 59.6513 103.751 57.5203C102.446 56.0778 103.005 54.5718 107.666 46.9868L111.813 40.2368L114.517 40.1073C118.506 39.9158 119.471 39.6033 119.471 38.5013C119.471 37.6708 119.052 37.5138 116.495 37.3858L113.519 37.2368L115.234 34.4868C117.756 30.4413 117.618 29.9028 114.107 30.0868L111.244 30.2368L108.937 33.7368C106.751 37.0533 106.515 37.2498 104.425 37.4868C102.637 37.6898 102.221 37.9258 102.221 38.7368C102.221 39.4493 102.606 39.7813 103.561 39.8918C104.882 40.0443 104.847 40.1178 101.081 45.1418C98.9797 47.9438 96.3737 51.1988 95.2902 52.3748C91.2452 56.7628 86.1347 59.6603 84.6347 58.4153C83.5097 57.4818 83.8562 56.6648 87.2827 52.1738C89.1047 49.7863 91.0377 46.8323 91.5787 45.6088C93.4487 41.3818 91.5047 37.9868 87.2142 37.9868C84.4762 37.9868 82.4127 38.8743 78.5642 41.7073L75.4457 44.0033L76.7082 41.5118C77.4027 40.1413 77.9707 38.7878 77.9707 38.5033C77.9707 38.2123 76.8037 37.9868 75.2982 37.9868C72.3302 37.9868 71.9597 38.2668 70.0092 41.9868C68.3007 45.2443 63.6567 51.3923 61.0072 53.9043C56.2597 58.4053 50.9707 59.7203 50.9707 56.3998C50.9707 55.8698 53.0072 51.9268 55.4962 47.6383C57.9852 43.3498 59.9047 39.5363 59.7617 39.1638C59.3297 38.0373 54.6437 38.2733 53.6162 39.4733C52.7842 40.4453 52.7517 40.4368 51.4667 38.8978C50.3647 37.5773 49.7407 37.3008 47.4417 37.1148C41.8022 36.6588 36.4232 40.0423 32.9207 46.2483C30.1087 51.2308 21.4727 57.3868 16.2017 58.1663C5.73323 59.7143 3.22373 46.0923 11.0102 29.9868C17.4702 16.6258 26.5332 6.9913 35.2082 4.2628C40.6442 2.5528 43.9392 4.0493 43.9572 8.2368C43.9702 11.2153 42.3847 12.9138 39.1157 13.4243C36.2207 13.8763 34.9707 14.6568 34.9707 16.0123C34.9707 18.4568 38.5337 19.2443 41.8657 17.5353C45.5402 15.6508 47.6462 12.1868 47.6912 7.9518C47.7257 4.6748 46.2032 1.9603 43.6452 0.739296C41.2922 -0.384204 35.8562 -0.204704 31.9707 1.1248ZM49.9787 42.2518C50.5782 43.3713 50.5242 43.7868 49.5107 45.8768C47.6917 49.6273 43.1447 56.3513 41.8782 57.1633C40.7737 57.8713 39.4847 58.1698 38.0702 58.0443C37.7122 58.0128 37.1002 57.2223 36.7102 56.2883C34.6417 51.3378 41.7612 40.9868 47.2347 40.9868C48.9342 40.9868 49.4222 41.2118 49.9787 42.2518Z" fill="#FADF28"/>
</svg>
