<svg width="35" height="32" viewBox="0 0 35 32" fill="none" xmlns="http://www.w3.org/2000/svg">
<g opacity="0.5">
<path d="M3 4.14981C3.27614 4.14981 3.5 3.92595 3.5 3.64981V0.549805C3.5 0.273663 3.27614 0.0498047 3 0.0498047H0.65C0.373858 0.0498047 0.15 0.273662 0.15 0.549805V3.64981C0.15 3.92595 0.373858 4.14981 0.65 4.14981H3ZM3.15 30.9998C3.42614 30.9998 3.65 30.7759 3.65 30.4998V8.0998C3.65 7.82366 3.42614 7.5998 3.15 7.5998H0.5C0.223857 7.5998 0 7.82366 0 8.0998V30.4998C0 30.7759 0.223858 30.9998 0.5 30.9998H3.15Z" fill="#363537"/>
<path d="M10.816 30.9998C11.0922 30.9998 11.316 30.7759 11.316 30.4998V27.1998C11.316 26.9237 11.0922 26.6998 10.816 26.6998H8.26602C7.98987 26.6998 7.76602 26.9237 7.76602 27.1998V30.4998C7.76602 30.7759 7.98987 30.9998 8.26602 30.9998H10.816Z" fill="#363537"/>
<path d="M27.0797 24.5498V23.2998C27.0797 23.0237 26.8558 22.7998 26.5797 22.7998H24.3797C24.1035 22.7998 23.8797 23.0237 23.8797 23.2998V25.0498C23.8797 26.8998 23.0797 28.0998 21.3297 28.0998C19.5297 28.0998 18.6797 26.8998 18.6797 25.0498V20.1998C18.6797 19.9237 18.9035 19.6998 19.1797 19.6998H26.5797C26.8558 19.6998 27.0797 19.4759 27.0797 19.1998V14.2498C27.0797 10.0498 24.9797 7.2998 21.2797 7.2998C17.5797 7.2998 15.1297 10.0498 15.1297 14.2498V24.4998C15.1297 28.7498 17.5797 31.3998 21.2797 31.3998C24.9797 31.3998 27.0797 28.7998 27.0797 24.5498ZM23.8797 16.8498C23.8797 17.1259 23.6558 17.3498 23.3797 17.3498H19.1797C18.9035 17.3498 18.6797 17.1259 18.6797 16.8498V13.6998C18.6797 11.8498 19.5297 10.5998 21.3297 10.5998C23.0797 10.5998 23.8797 11.8498 23.8797 13.6998V16.8498Z" fill="#363537"/>
<path d="M33.7164 30.9998C33.9926 30.9998 34.2164 30.7759 34.2164 30.4998V27.1998C34.2164 26.9237 33.9926 26.6998 33.7164 26.6998H31.1664C30.8903 26.6998 30.6664 26.9237 30.6664 27.1998V30.4998C30.6664 30.7759 30.8903 30.9998 31.1664 30.9998H33.7164Z" fill="#363537"/>
</g>
</svg>
