<svg width="246" height="60" viewBox="0 0 246 60" fill="none" xmlns="http://www.w3.org/2000/svg">
<g filter="url(#filter0_i)">
<path d="M0.751953 47.0003H30.576V35.6723H25.008V41.8803H11.696V10.0723H17.392V4.88834H0.751953V10.0723H5.87195V41.8163H0.751953V47.0003Z" fill="#B0AEAD"/>
<path d="M44.9605 47.5123C48.6725 47.5123 52.1925 45.7843 54.4325 43.6723V47.0003H63.9045V42.3923H59.6165V28.6963C59.6165 26.2003 58.9125 24.0243 57.5045 22.3603C55.6485 20.1843 52.5125 18.9043 48.2245 18.9043C41.1845 18.9043 37.6005 22.2963 37.6005 25.5603C37.6005 27.4803 38.9445 28.8243 40.8645 28.8243C42.7205 28.8243 44.0645 27.4803 44.0645 25.6883C44.0645 25.1763 43.9365 24.6003 43.7445 24.1523C44.5765 23.7043 45.6005 23.3203 47.3285 23.3203C50.0165 23.3203 51.9365 24.0243 53.0885 25.4323C53.8565 26.3923 54.3045 27.6723 54.3045 29.2723V32.4083C52.8325 31.9603 49.6325 31.3203 46.7525 31.3203C40.4165 31.3203 35.9365 34.5843 35.9365 39.6403C35.9365 44.6323 39.9045 47.5123 44.9605 47.5123ZM46.5605 43.3523C43.3605 43.3523 41.5045 41.6883 41.5045 39.1923C41.5045 36.5043 43.6805 34.6483 47.5845 34.6483C50.0805 34.6483 52.4485 35.0963 54.3045 35.6083V40.0883C52.1925 41.9443 49.5045 43.3523 46.5605 43.3523Z" fill="#B0AEAD"/>
<path d="M66.606 59.5443H81.326V54.9363H76.398V44.5683C78.574 46.3603 81.326 47.5123 84.462 47.5123C92.27 47.5123 97.838 40.9843 97.838 33.0483C97.838 24.6643 92.206 18.9043 84.974 18.9043C81.006 18.9043 78.446 20.6323 76.142 23.0003V19.4163H66.606V24.1523H70.894V54.9363H66.606V59.5443ZM83.822 42.7123C80.75 42.7123 78.318 41.6243 76.398 40.0883V27.2243C78.446 25.1763 80.8139 23.7043 83.95 23.7043C88.6219 23.7043 92.142 27.3523 92.142 33.1123C92.142 38.9363 88.494 42.7123 83.822 42.7123Z" fill="#B0AEAD"/>
<path d="M109.399 13.5923C111.511 13.5923 113.431 11.8003 113.431 9.56034C113.431 7.38435 111.575 5.59235 109.463 5.59235C107.287 5.59235 105.431 7.38435 105.431 9.56034C105.431 11.8003 107.223 13.5923 109.399 13.5923ZM102.807 47.0003H117.207V42.3923H112.791V19.4163H102.807V24.1523H107.287V42.3923H102.807V47.0003Z" fill="#B0AEAD"/>
<path d="M134.8 47.5123C138.64 47.5123 141.392 45.7843 143.568 43.4803V47.0003H153.296V42.3923H149.008V0.152344H138.768V4.88834H143.504V21.9123C141.648 20.1843 138.768 18.9043 135.312 18.9043C127.44 18.9043 121.872 25.4963 121.872 33.3683C121.872 41.7523 127.504 47.5123 134.8 47.5123ZM135.824 42.7123C131.152 42.7123 127.504 39.0644 127.504 33.3043C127.568 27.4803 131.216 23.7043 135.952 23.7043C139.152 23.7043 141.52 24.8563 143.504 26.3923V39.1923C141.456 41.2403 138.96 42.7123 135.824 42.7123Z" fill="#B0AEAD"/>
<path d="M165.96 47.5123C169.672 47.5123 173.192 45.7843 175.432 43.6723V47.0003H184.904V42.3923H180.616V28.6963C180.616 26.2003 179.912 24.0243 178.504 22.3603C176.648 20.1843 173.512 18.9043 169.224 18.9043C162.184 18.9043 158.6 22.2963 158.6 25.5603C158.6 27.4803 159.944 28.8243 161.864 28.8243C163.72 28.8243 165.064 27.4803 165.064 25.6883C165.064 25.1763 164.936 24.6003 164.744 24.1523C165.576 23.7043 166.6 23.3203 168.328 23.3203C171.016 23.3203 172.936 24.0243 174.088 25.4323C174.856 26.3923 175.304 27.6723 175.304 29.2723V32.4083C173.832 31.9603 170.632 31.3203 167.752 31.3203C161.416 31.3203 156.936 34.5843 156.936 39.6403C156.936 44.6323 160.904 47.5123 165.96 47.5123ZM167.56 43.3523C164.36 43.3523 162.504 41.6883 162.504 39.1923C162.504 36.5043 164.68 34.6483 168.584 34.6483C171.08 34.6483 173.448 35.0963 175.304 35.6083V40.0883C173.192 41.9443 170.504 43.3523 167.56 43.3523Z" fill="#B0AEAD"/>
<path d="M206.73 18.9043C203.53 18.9043 200.33 21.9123 198.154 25.6883V19.4163H188.618V24.1523H192.906V42.3923H188.618V47.0003H203.402V42.3923H198.346V29.8483C199.69 27.2243 202.058 24.9203 204.106 24.2803C204.618 25.4963 205.898 26.6483 207.754 26.6483C209.674 26.6483 211.274 24.9203 211.274 22.9363C211.274 20.7603 209.738 18.9043 206.73 18.9043Z" fill="#B0AEAD"/>
<path d="M226.27 55.5764C227.038 54.4883 227.742 53.2723 228.446 51.8643L241.438 24.1523H245.022V19.4163H231.71V23.9603H236.126L228.83 40.3443C228.894 40.3443 221.662 23.9603 221.662 23.9603H225.886V19.4163H212.446V24.1523H216.03L226.206 45.5283L224.35 49.3683C223.71 50.6483 223.134 51.6723 222.622 52.5043C221.598 53.9763 220.702 54.6803 219.806 55.0003C219.422 53.8483 218.398 52.6963 216.798 52.6963C215.134 52.6963 213.79 53.8483 213.79 55.8323C213.79 58.0083 215.966 59.7363 219.038 59.7363C221.854 59.7363 224.222 58.2644 226.27 55.5764Z" fill="#B0AEAD"/>
</g>
<defs>
<filter id="filter0_i" x="0.751953" y="0.152344" width="246.271" height="61.584" filterUnits="userSpaceOnUse" color-interpolation-filters="sRGB">
<feFlood flood-opacity="0" result="BackgroundImageFix"/>
<feBlend mode="normal" in="SourceGraphic" in2="BackgroundImageFix" result="shape"/>
<feColorMatrix in="SourceAlpha" type="matrix" values="0 0 0 0 0 0 0 0 0 0 0 0 0 0 0 0 0 0 127 0" result="hardAlpha"/>
<feOffset dx="2" dy="2"/>
<feGaussianBlur stdDeviation="1"/>
<feComposite in2="hardAlpha" operator="arithmetic" k2="-1" k3="1"/>
<feColorMatrix type="matrix" values="0 0 0 0 0 0 0 0 0 0 0 0 0 0 0 0 0 0 0.2 0"/>
<feBlend mode="normal" in2="shape" result="effect1_innerShadow"/>
</filter>
</defs>
</svg>
