<svg width="200" height="40" viewBox="0 0 200 40" fill="none" xmlns="http://www.w3.org/2000/svg">
<path d="M196.518 22.458L196.518 30.671C196.518 32.54 196.022 33.9089 195.031 34.7776C194.074 35.6462 192.382 36.0806 189.956 36.0806C189.357 36.0806 188.734 36.0164 188.087 35.8881C187.86 35.8429 187.7 35.64 187.7 35.4078L187.7 35.2574C187.7 34.9209 188.026 34.6796 188.355 34.7505C189.036 34.897 189.791 34.9719 190.621 34.9749C190.656 34.975 190.691 34.9713 190.725 34.9638C191.686 34.7519 192.284 34.4003 192.519 33.9089C192.793 33.4087 192.929 32.6453 192.929 31.6187L192.929 23.4451C192.929 22.2342 193.271 21.3129 193.955 20.6811C194.383 20.2686 194.952 19.8975 195.663 19.5678C196.101 19.3646 196.106 18.667 195.669 18.4619C194.956 18.1273 194.384 17.7614 193.955 17.3643C193.271 16.7325 192.929 15.8112 192.929 14.6003L192.929 6.42674C192.929 5.40011 192.793 4.63672 192.519 4.13656C192.284 3.64514 191.686 3.29349 190.725 3.08161C190.691 3.07409 190.656 3.0704 190.621 3.07057C189.893 3.0741 189.124 3.15085 188.311 3.30083C187.997 3.35897 187.7 3.12181 187.7 2.80167L187.7 2.63759C187.7 2.40541 187.86 2.20255 188.087 2.15735C188.734 2.02901 189.357 1.96484 189.956 1.96484C192.382 1.96484 194.074 2.39919 195.031 3.26788C196.022 4.13656 196.518 5.5054 196.518 7.3744L196.518 15.5874C196.518 16.3508 196.74 17.0484 197.184 17.6802C197.582 18.2455 198.267 18.5684 199.239 18.649C199.436 18.6653 199.594 18.8252 199.594 19.0227C199.594 19.2203 199.436 19.3801 199.239 19.3965C198.267 19.477 197.582 19.8 197.184 20.3652C196.74 20.9707 196.518 21.6683 196.518 22.458Z" fill="#363537"/>
<path d="M3.07604 22.458L3.07604 30.671C3.07604 32.54 3.57162 33.9089 4.5628 34.7776C5.51979 35.6462 7.21162 36.0806 9.63827 36.0806C10.2373 36.0806 10.8601 36.0164 11.5067 35.8881C11.7344 35.8429 11.894 35.64 11.894 35.4078L11.894 35.2574C11.894 34.9209 11.5678 34.6796 11.2388 34.7505C10.5582 34.897 9.80294 34.9719 8.97316 34.9749C8.93824 34.975 8.90306 34.9713 8.86895 34.9638C7.90799 34.7519 7.30997 34.4003 7.0749 33.9089C6.80148 33.4087 6.66476 32.6453 6.66476 31.6187L6.66476 23.4451C6.66476 22.2342 6.32298 21.3129 5.63941 20.6811C5.21097 20.2686 4.64155 19.8975 3.93115 19.5678C3.4934 19.3646 3.48837 18.667 3.92527 18.4619C4.63841 18.1273 5.20979 17.7614 5.63941 17.3643C6.32298 16.7325 6.66476 15.8112 6.66476 14.6003L6.66476 6.42674C6.66476 5.40011 6.80148 4.63672 7.0749 4.13656C7.30997 3.64514 7.90799 3.29349 8.86895 3.08161C8.90306 3.07409 8.93809 3.0704 8.97301 3.07057C9.70059 3.0741 10.4704 3.15085 11.2825 3.30083C11.5973 3.35897 11.894 3.12181 11.894 2.80167L11.894 2.63759C11.894 2.40541 11.7344 2.20255 11.5067 2.15735C10.8601 2.02901 10.2373 1.96484 9.63827 1.96484C7.21162 1.96484 5.51979 2.39919 4.5628 3.26788C3.57162 4.13656 3.07604 5.5054 3.07604 7.3744L3.07604 15.5874C3.07604 16.3508 2.85388 17.0484 2.40956 17.6802C2.01202 18.2455 1.32719 18.5684 0.355066 18.649C0.158186 18.6653 -8.59205e-06 18.8252 -8.59216e-06 19.0227C-8.59226e-06 19.2203 0.158186 19.3801 0.355066 19.3965C1.32719 19.477 2.01202 19.8 2.40956 20.3652C2.85388 20.9707 3.07604 21.6683 3.07604 22.458Z" fill="#363537"/>
<path d="M130.477 31.1845C130.754 31.1845 130.977 30.9607 130.977 30.6845V12.9981C130.977 9.57243 129.335 7.3558 126.3 7.3558C124.969 7.3558 123.803 7.90015 122.88 9.19972C122.562 9.64707 121.643 9.48906 121.608 8.94152L121.552 8.07569C121.535 7.81251 121.317 7.60769 121.053 7.60769H118.937C118.661 7.60769 118.437 7.83155 118.437 8.10769V30.6845C118.437 30.9607 118.661 31.1845 118.937 31.1845H121.57C121.846 31.1845 122.07 30.9607 122.07 30.6845V14.5095C122.07 13.0485 123.115 10.4792 125.006 10.4792C126.449 10.4792 127.345 11.5875 127.345 13.3004V30.6845C127.345 30.9607 127.569 31.1845 127.845 31.1845H130.477Z" fill="#363537"/>
<path d="M146.905 24.6354V14.3079C146.905 10.0762 144.466 7.30542 140.784 7.30542C137.051 7.30542 134.613 10.0762 134.613 14.3079V24.6354C134.613 28.9175 137.051 31.5875 140.784 31.5875C144.466 31.5875 146.905 28.9175 146.905 24.6354ZM143.371 25.2903C143.371 27.0535 142.476 28.2122 140.784 28.2122C139.092 28.2122 138.196 27.0535 138.196 25.2903V13.6027C138.196 11.8898 139.092 10.6304 140.784 10.6304C142.476 10.6304 143.371 11.8898 143.371 13.6027V25.2903Z" fill="#363537"/>
<path d="M157.323 10.983C157.599 10.983 157.823 10.7591 157.823 10.483V8.25882C157.823 7.98268 157.599 7.75882 157.323 7.75882H155.686C155.409 7.75882 155.186 7.53497 155.186 7.25882V3.23913C155.186 2.89055 154.838 2.64895 154.511 2.77053L152.127 3.65779C151.931 3.73065 151.802 3.91752 151.802 4.12639V7.25883C151.802 7.53497 151.578 7.75882 151.302 7.75882H149.813C149.537 7.75882 149.313 7.98268 149.313 8.25882V10.483C149.313 10.7591 149.537 10.983 149.813 10.983H151.053C151.329 10.983 151.553 11.2069 151.553 11.483V24.182C151.553 27.2225 151.774 29.143 152.425 30.8729C152.497 31.0626 152.68 31.1845 152.883 31.1845H155.413C155.761 31.1845 156.003 30.837 155.901 30.504C155.343 28.6781 155.186 26.6885 155.186 24.182V11.483C155.186 11.2069 155.409 10.983 155.686 10.983H157.323Z" fill="#363537"/>
<path d="M172.117 24.6858V23.4226C172.117 23.1464 171.893 22.9226 171.617 22.9226H169.432C169.156 22.9226 168.932 23.1464 168.932 23.4226V25.1896C168.932 27.0535 168.136 28.2626 166.394 28.2626C164.603 28.2626 163.757 27.0535 163.757 25.1896V20.2991C163.757 20.023 163.981 19.7991 164.257 19.7991H171.617C171.893 19.7991 172.117 19.5753 172.117 19.2991V14.3079C172.117 10.0762 170.027 7.30542 166.345 7.30542C162.662 7.30542 160.224 10.0762 160.224 14.3079V24.6354C160.224 28.9175 162.662 31.5875 166.345 31.5875C170.027 31.5875 172.117 28.9679 172.117 24.6858ZM168.932 16.9314C168.932 17.2075 168.708 17.4314 168.432 17.4314H164.257C163.981 17.4314 163.757 17.2075 163.757 16.9314V13.7538C163.757 11.8898 164.603 10.6304 166.394 10.6304C168.136 10.6304 168.932 11.8898 168.932 13.7538V16.9314Z" fill="#363537"/>
<path d="M186.784 25.4414C186.784 22.1669 185.391 19.8495 182.355 17.9855C179.369 16.0208 178.474 14.8117 178.474 12.9477C178.474 11.5875 179.369 10.6304 180.962 10.6304C182.753 10.6304 183.649 11.5875 183.649 13.1493V14.3117C183.649 14.5879 183.873 14.8117 184.149 14.8117H186.085C186.361 14.8117 186.585 14.5879 186.585 14.3117V13.4515C186.585 9.57243 184.843 7.30542 180.912 7.30542C177.478 7.30542 175.14 9.77394 175.14 13.3508C175.14 16.5246 177.08 18.842 180.066 20.6052C182.952 22.721 183.45 23.779 183.45 25.8445C183.45 27.5069 182.554 28.4641 180.763 28.4641C179.021 28.4641 177.926 27.5069 177.926 25.3407V24.279C177.926 24.0028 177.702 23.779 177.426 23.779H175.391C175.115 23.779 174.891 24.0028 174.891 24.279V25.1392C174.891 29.0687 176.881 31.5875 180.862 31.5875C184.545 31.5875 186.784 28.8671 186.784 25.4414Z" fill="#363537"/>
<path d="M31.7463 31.1839C32.0224 31.1839 32.2463 30.96 32.2463 30.6839V12.5945C32.2463 9.26952 30.8529 7.35516 28.3647 7.35516C26.9337 7.35516 25.7431 7.90294 24.8397 9.23502C24.5689 9.63439 23.8296 9.58439 23.6007 9.15956C22.9916 8.0289 22.0344 7.35516 20.6514 7.35516C19.3386 7.35516 18.2535 7.81614 17.3807 8.94076C17.0491 9.36813 16.1657 9.20093 16.1343 8.66088L16.1005 8.07805C16.0851 7.81362 15.8662 7.60705 15.6013 7.60705H13.438C13.1618 7.60705 12.938 7.83091 12.938 8.10705V30.6839C12.938 30.96 13.1618 31.1839 13.438 31.1839H16.0707C16.3469 31.1839 16.5707 30.96 16.5707 30.6839V14.5592C16.5707 13.0479 17.1679 10.4786 19.0092 10.4786C20.2035 10.4786 20.8006 11.4861 20.8006 13.0982V30.6839C20.8006 30.96 21.0245 31.1839 21.3006 31.1839H23.9334C24.2095 31.1839 24.4334 30.96 24.4334 30.6839V14.66C24.4334 13.1486 25.0306 10.5793 26.822 10.5793C28.0164 10.5793 28.6633 11.5869 28.6633 13.199V30.6839C28.6633 30.96 28.8872 31.1839 29.1633 31.1839H31.7463Z" fill="#363537"/>
<path d="M48.0101 31.5869C48.2862 31.5869 48.5101 31.363 48.5101 31.0869V29.3161C48.5101 29.04 48.2741 28.8355 48.0231 28.7205C47.651 28.55 47.465 28.1593 47.465 27.6071V13.8035C47.465 10.0252 45.8228 7.30478 41.7422 7.30478C37.9602 7.30478 36.0691 9.87406 36.0691 13.2997V14.7645C36.0691 15.0406 36.293 15.2645 36.5691 15.2645H38.9033C39.1794 15.2645 39.4033 15.0406 39.4033 14.7645V13.5013C39.4033 11.6373 39.8512 10.6801 41.6924 10.6801C43.3346 10.6801 44.0313 11.6877 44.0313 13.3501V16.5522C44.0313 16.7743 43.8847 16.9695 43.6721 17.0339C39.3317 18.3493 35.3724 20.4264 35.3724 24.937V25.7934C35.3724 29.3703 37.2137 31.5869 40.2493 31.5869C41.6333 31.5869 42.9049 31.0461 43.8949 30.1142C44.2346 29.7944 44.9433 29.9668 45.178 30.3701C45.678 31.2297 46.5586 31.5869 47.5148 31.5869H48.0101ZM44.0313 25.0882C44.0313 26.9521 42.5384 28.4131 40.946 28.4131C39.4033 28.4131 38.7564 27.2544 38.7564 25.7431V24.6348C38.7564 22.5967 40.2981 20.9153 43.423 20.0523C43.7324 19.9668 44.0313 20.2051 44.0313 20.5262V25.0882Z" fill="#363537"/>
<path d="M59.7811 11.2934C60.0751 11.3102 60.3301 11.0807 60.3301 10.7862V7.89125C60.3301 7.64169 60.1459 7.42815 59.8971 7.40802C58.3518 7.28296 57.1042 7.69692 56.1669 8.85182C55.8206 9.2786 54.8629 9.11369 54.8242 8.56541L54.7894 8.07186C54.7709 7.81003 54.5531 7.60705 54.2906 7.60705H52.1214C51.8453 7.60705 51.6214 7.83091 51.6214 8.10705V30.6839C51.6214 30.96 51.8453 31.1839 52.1214 31.1839H54.7542C55.0303 31.1839 55.2542 30.96 55.2542 30.6839V14.2065C55.2542 12.2444 56.4219 11.1005 59.7811 11.2934Z" fill="#363537"/>
<path d="M76.0383 6.95214C76.0383 6.49501 76.0383 6.10643 75.9545 5.50362C75.921 5.26292 75.7116 5.08816 75.4686 5.08816H73.8013C73.5251 5.08816 73.3051 5.31293 73.2773 5.58767C73.1511 6.8375 72.5115 7.70781 71.0122 7.70781C70.5145 7.70781 69.9174 7.30478 68.524 7.30478C65.14 7.30478 62.5523 10.0252 62.5523 13.7531V16.6751C62.5523 18.5171 62.9957 20.303 64.0271 21.4676C64.3515 21.8339 64.2322 22.7419 63.83 23.0206C62.8724 23.6841 62.2538 24.764 62.2538 25.8438C62.2538 26.8295 62.7068 27.7923 63.5213 28.4691C63.8994 28.7833 63.8888 29.6263 63.4816 29.9017C62.4454 30.6023 61.9552 31.6049 61.9552 32.9471V34.4081C61.9552 37.8338 64.7419 40 68.6733 40C72.8534 40 75.4411 37.4811 75.4411 33.6524V31.9899C75.4411 28.7657 73.4008 26.8514 69.2207 26.8514C66.1851 26.8514 65.3391 26.0957 65.3391 24.937C65.3391 24.0472 66.0578 23.1574 66.9311 23.1244C66.9644 23.1231 66.9975 23.1268 67.0302 23.133C67.3312 23.1906 68.1487 23.3249 68.524 23.3249C72.0572 23.3249 74.4459 20.6045 74.4459 16.8766V13.7028C74.4459 12.4735 74.1466 11.2994 73.4474 10.2414C73.343 10.0833 73.709 9.47103 73.8985 9.47103C74.9933 9.47103 76.0383 8.66499 76.0383 6.95214ZM71.1615 17.2292C71.1615 18.8917 70.1662 20.2015 68.524 20.2015C66.832 20.2015 65.8367 18.8917 65.8367 17.2292V13.4509C65.8367 11.7884 66.832 10.4282 68.524 10.4282C70.1662 10.4282 71.1615 11.7884 71.1615 13.4509V17.2292ZM72.1567 34.0554C72.1567 35.4156 71.1614 36.7254 68.723 36.7254C66.3344 36.7254 65.2396 35.5164 65.2396 34.1562V32.3929C65.2396 31.0327 66.2846 29.9244 68.723 29.9244C71.3605 29.9244 72.1567 30.9824 72.1567 32.2922V34.0554Z" fill="#363537"/>
<path d="M81.139 4.13098C81.4152 4.13098 81.639 3.90713 81.639 3.63098V0.5C81.639 0.223858 81.4152 0 81.139 0H78.8049C78.5287 0 78.3049 0.223858 78.3049 0.5V3.63098C78.3049 3.90712 78.5287 4.13098 78.8049 4.13098H81.139ZM81.2883 31.1839C81.5645 31.1839 81.7883 30.96 81.7883 30.6839V8.10705C81.7883 7.83091 81.5645 7.60705 81.2883 7.60705H78.6556C78.3794 7.60705 78.1556 7.83091 78.1556 8.10705V30.6839C78.1556 30.96 78.3794 31.1839 78.6556 31.1839H81.2883Z" fill="#363537"/>
<path d="M97.8258 31.1839C98.1019 31.1839 98.3258 30.96 98.3258 30.6839V12.9975C98.3258 9.57179 96.6836 7.35516 93.648 7.35516C92.3178 7.35516 91.1512 7.89951 90.2284 9.19908C89.9107 9.64643 88.9914 9.48842 88.9563 8.94088L88.9007 8.07505C88.8838 7.81187 88.6655 7.60705 88.4017 7.60705H86.2854C86.0092 7.60705 85.7854 7.83091 85.7854 8.10705V30.6839C85.7854 30.96 86.0092 31.1839 86.2854 31.1839H88.9181C89.1942 31.1839 89.4181 30.96 89.4181 30.6839V14.5088C89.4181 13.0479 90.4631 10.4786 92.3542 10.4786C93.7973 10.4786 94.693 11.5869 94.693 13.2997V30.6839C94.693 30.96 94.9169 31.1839 95.193 31.1839H97.8258Z" fill="#363537"/>
<circle cx="108.512" cy="20.0547" r="6" fill="#D14962"/>
</svg>
