<svg width="34" height="34" viewBox="0 0 34 34" fill="none" xmlns="http://www.w3.org/2000/svg">
<path d="M34 0H0V34H34V0Z" fill="#12100E"/>
<path d="M8.11354 11.371C8.14191 11.0906 8.03499 10.8135 7.82562 10.6248L5.69294 8.05565V7.67188H12.3149L17.4334 18.8973L21.9333 7.67188H28.2461V8.05565L26.4226 9.80395C26.2654 9.92378 26.1874 10.1207 26.22 10.3157V23.1614C26.1874 23.3564 26.2654 23.5533 26.4226 23.6731L28.2034 25.4214V25.8052H19.2461V25.4214L21.0909 23.6305C21.2722 23.4493 21.2722 23.396 21.2722 23.1188V12.7356L16.1431 25.7626H15.45L9.47845 12.7356V21.4664C9.42866 21.8335 9.55057 22.2031 9.80902 22.4685L12.2083 25.3788V25.7626H5.40503V25.3788L7.8043 22.4685C8.06086 22.2026 8.17566 21.8306 8.11354 21.4664V11.371Z" fill="white"/>
</svg>
