<?xml version="1.0" standalone="no"?>
<!DOCTYPE svg PUBLIC "-//W3C//DTD SVG 1.1//EN" "http://www.w3.org/Graphics/SVG/1.1/DTD/svg11.dtd" >
<svg xmlns="http://www.w3.org/2000/svg" xmlns:xlink="http://www.w3.org/1999/xlink" version="1.1">
<metadata>
Created by FontForge 20170731 at Tue Jan 12 04:41:38 1993
 By Aleksey,,,
Copyright 1990-1993 Bitstream Inc.  All rights reserved.
</metadata>
<defs>
<font id="GrouchITCbyBT-Regular" horiz-adv-x="1024" >
  <font-face 
    font-family="Grouch BT"
    font-weight="400"
    font-stretch="normal"
    units-per-em="2048"
    panose-1="2 3 9 3 7 7 6 2 4 4"
    ascent="1638"
    descent="-410"
    x-height="981"
    cap-height="1413"
    bbox="-342 -485 2519 1972"
    underline-thickness="123"
    underline-position="-398"
    unicode-range="U+0020-F002"
  />
<missing-glyph horiz-adv-x="1229" 
d="M102 -362v1806h1024v-1806h-1024zM217 -248h795v1577h-795v-1577z" />
    <glyph glyph-name=".notdef" horiz-adv-x="1229" 
d="M102 -362v1806h1024v-1806h-1024zM217 -248h795v1577h-795v-1577z" />
    <glyph glyph-name=".null" horiz-adv-x="0" 
 />
    <glyph glyph-name="nonmarkingreturn" horiz-adv-x="735" 
 />
    <glyph glyph-name="space" unicode=" " horiz-adv-x="735" 
 />
    <glyph glyph-name="exclam" unicode="!" horiz-adv-x="844" 
d="M391 457q0 60 -11.5 115.5t-35.5 109.5q-12 29 -41 87q-106 216 -106 374q0 143 61 228t164 85q102 0 163.5 -85t61.5 -228q0 -158 -106 -374q-29 -58 -41 -87q-24 -54 -35.5 -109.5t-11.5 -115.5h-62zM221 158q0 83 58.5 141.5t142.5 58.5q83 0 142 -58.5t59 -141.5
q0 -85 -58.5 -143t-142.5 -58q-85 0 -143 58t-58 143z" />
    <glyph glyph-name="quotedbl" unicode="&#x22;" horiz-adv-x="717" 
d="M553 846h-45l-84 463q-3 15 -3.5 22.5t-0.5 14.5q0 54 29.5 86t80.5 32t81 -31.5t30 -84.5q0 -16 -0.5 -24.5t-1.5 -15.5zM207 846h-43l-86 462q-3 16 -3.5 23.5t-0.5 14.5q0 54 29.5 86t80.5 32q52 0 82.5 -31.5t30.5 -84.5q0 -8 -1 -17t-3 -22z" />
    <glyph glyph-name="numbersign" unicode="#" horiz-adv-x="1575" 
d="M705 844l-84 -236h253l84 236h-253zM684 1466h248l-139 -393h241l140 393h247l-139 -393h270l-86 -229h-266l-82 -234h277l-84 -229h-275l-141 -393h-248l141 393h-241l-141 -393h-248l141 393h-276l86 229h272l82 234h-285l86 229h281z" />
    <glyph glyph-name="dollar" unicode="$" horiz-adv-x="1219" 
d="M569 983v389q-74 -14 -113.5 -61.5t-39.5 -122.5q0 -71 38.5 -122.5t114.5 -82.5zM655 47q69 12 106.5 57.5t37.5 116.5q0 70 -36 123.5t-108 89.5v-387zM569 -246v207q-125 3 -240.5 26.5t-222.5 67.5v527h58q18 -238 119.5 -371.5t285.5 -161.5v436q-257 104 -367 222
t-110 286q0 187 126 308t351 151v152h84v-150q91 -8 183.5 -26t187.5 -46v-432h-61q-34 197 -113 306.5t-197 121.5v-436q275 -99 384.5 -210.5t109.5 -282.5q0 -200 -132 -330t-362 -156v-209h-84z" />
    <glyph glyph-name="percent" unicode="%" horiz-adv-x="1706" 
d="M342 -43l926 1499h96l-926 -1499h-96zM1257 51q62 0 85.5 59.5t23.5 256.5q0 196 -23.5 255.5t-85.5 59.5q-61 0 -84.5 -57.5t-23.5 -257.5q0 -198 23.5 -257t84.5 -59zM1257 0q-177 0 -285 100t-108 265t108.5 266.5t284.5 101.5q177 0 285.5 -101.5t108.5 -266.5
q0 -164 -108 -264.5t-286 -100.5zM449 729q60 0 83 58t23 257q0 200 -23 258t-83 58q-62 0 -85.5 -57.5t-23.5 -258.5q0 -197 23.5 -256t85.5 -59zM449 678q-178 0 -287 101t-109 265q0 166 109 267.5t287 101.5q176 0 284.5 -101.5t108.5 -267.5q0 -164 -108.5 -265
t-284.5 -101z" />
    <glyph glyph-name="ampersand" unicode="&#x26;" horiz-adv-x="1692" 
d="M874 156q-93 145 -177 296.5t-158 309.5q-72 -20 -104 -61t-32 -113q0 -63 25.5 -131.5t75.5 -141.5q62 -92 128.5 -139t135.5 -47q25 0 52 7t54 20zM821 1022q38 42 56 87.5t18 96.5q0 77 -40.5 120.5t-113.5 43.5q-58 0 -96.5 -38t-38.5 -95q0 -68 55 -123.5t160 -91.5
zM936 90q-83 -69 -171.5 -102t-189.5 -33q-214 0 -352.5 127.5t-138.5 320.5q0 161 103 269t307 162q-85 69 -126.5 145t-41.5 162q0 143 105 230t280 87q135 0 219 -71t84 -183q0 -68 -31 -123.5t-90 -93.5q58 -49 137 -187q4 -8 6 -11l154 -271q21 56 31 105t10 94
q0 94 -46.5 142.5t-152.5 64.5v57h518v-57q-56 -2 -95 -27.5t-71 -83.5q-23 -42 -65.5 -173.5t-83.5 -211.5q71 -121 121 -168t104 -47q62 0 95.5 46.5t33.5 131.5v21l64 -25v-4q0 -194 -108.5 -308t-293.5 -114q-95 0 -174.5 32.5t-140.5 96.5z" />
    <glyph glyph-name="quotesingle" unicode="'" horiz-adv-x="371" 
d="M207 846h-43l-86 462q-3 16 -3.5 23.5t-0.5 14.5q0 53 31 85.5t81 32.5q51 0 81 -31.5t30 -84.5q0 -8 -1 -17t-3 -22z" />
    <glyph glyph-name="parenleft" unicode="(" horiz-adv-x="901" 
d="M884 -219q-335 3 -521.5 230.5t-186.5 635.5t186.5 635.5t522.5 230.5v-81q-153 -6 -210 -142t-57 -643q0 -506 57 -642.5t209 -141.5v-82z" />
    <glyph glyph-name="parenright" unicode=")" horiz-adv-x="901" 
d="M16 1513q336 -3 523.5 -231t187.5 -635q0 -406 -187.5 -634.5t-522.5 -231.5v82q152 5 209 141.5t57 642.5q0 507 -57 643.5t-210 141.5v81z" />
    <glyph glyph-name="asterisk" unicode="*" 
d="M491 1055q-4 81 -49 175.5t-45 121.5q0 47 31.5 75.5t83.5 28.5q49 0 82 -31t33 -75q0 -22 -45 -116t-51 -179q35 18 67.5 50.5t67.5 86.5q43 69 69.5 87.5t61.5 18.5q44 0 78 -36t34 -82q0 -56 -34.5 -82t-118.5 -31q-74 -6 -120.5 -17t-82.5 -30q76 -43 238 -51h9
q50 -3 79.5 -31t29.5 -74q0 -52 -33 -89.5t-77 -37.5q-61 0 -120 88q-10 15 -15 22q-42 60 -72 91t-57 45q3 -81 48.5 -174.5t45.5 -120.5q0 -46 -32 -75t-83 -29q-54 0 -84.5 27.5t-30.5 76.5q0 24 43.5 117.5t52.5 175.5q-35 -18 -68 -51.5t-67 -85.5l-4 -7
q-62 -98 -125 -98q-48 0 -82 37t-34 88q0 47 30.5 73.5t90.5 31.5q3 0 11 1q154 11 224 48q-42 26 -105 38.5t-147 12.5q-42 0 -73 30.5t-31 74.5q0 51 34 86.5t82 35.5q58 0 118 -87q8 -12 11 -17q1 -1 1 -2q60 -91 130 -135z" />
    <glyph glyph-name="plus" unicode="+" horiz-adv-x="1706" 
d="M735 1221h238v-494h479v-231h-479v-496h-238v496h-481v231h481v494z" />
    <glyph glyph-name="comma" unicode="," horiz-adv-x="735" 
d="M415 -25q-14 -5 -29.5 -7.5t-33.5 -2.5q-79 0 -129.5 50t-50.5 128q0 79 53.5 133t132.5 54q90 0 140.5 -60.5t50.5 -167.5q0 -130 -76.5 -225t-198.5 -115l-28 56q74 10 115.5 49t53.5 108z" />
    <glyph glyph-name="hyphen" unicode="-" horiz-adv-x="729" 
d="M117 420v166h497v-166h-497z" />
    <glyph glyph-name="period" unicode="." horiz-adv-x="735" 
d="M180 143q0 78 54.5 133.5t132.5 55.5t133 -55t55 -134q0 -78 -55 -132t-133 -54q-79 0 -133 54t-54 132z" />
    <glyph glyph-name="slash" unicode="/" horiz-adv-x="653" 
d="M-70 -190l652 1646h90l-649 -1646h-93z" />
    <glyph glyph-name="zero" unicode="0" horiz-adv-x="1470" 
d="M735 33q115 0 159 124t44 550t-44 549.5t-159 123.5q-116 0 -160.5 -127.5t-44.5 -545.5t45 -546t160 -128zM735 -43q-138 0 -254.5 48t-208.5 142q-104 109 -157.5 251t-53.5 309t54 309.5t157 251.5q90 92 207.5 140t255.5 48t254.5 -47.5t206.5 -140.5
q104 -109 157.5 -251t53.5 -310q0 -167 -53.5 -309t-157.5 -251q-92 -95 -207.5 -142.5t-253.5 -47.5z" />
    <glyph glyph-name="one" unicode="1" horiz-adv-x="915" 
d="M283 899q0 96 -194 221q-17 11 -25 17q143 66 294 146t310 173v-1253q0 -79 28 -112.5t95 -33.5h12v-57h-656v57h13q66 0 94.5 33.5t28.5 112.5v696z" />
    <glyph glyph-name="two" unicode="2" horiz-adv-x="1237" 
d="M8 0v39q265 211 411 430.5t146 402.5q0 141 -72 226.5t-188 85.5q-69 0 -126 -35.5t-113 -114.5l-52 21q86 196 227.5 298.5t325.5 102.5q199 0 328 -122t129 -308q0 -134 -86 -254t-283 -256l-227 -156h244q187 0 271.5 34.5t121.5 117.5l43 -14l-168 -498h-932z" />
    <glyph glyph-name="three" unicode="3" horiz-adv-x="1341" 
d="M432 762h12q130 0 199.5 60t69.5 171q0 102 -63.5 166t-164.5 64q-71 0 -126 -28.5t-99 -88.5l-47 37q90 151 228 231t307 80q198 0 323 -98t125 -250q0 -100 -58 -174.5t-171 -118.5q144 -57 216 -149.5t72 -221.5q0 -216 -183.5 -350.5t-483.5 -134.5q-119 0 -214.5 23
t-172.5 71q-85 50 -133 118.5t-48 137.5q0 71 46.5 117.5t115.5 46.5q37 0 67.5 -12.5t53.5 -36.5q37 -40 54 -131q4 -25 8 -40q29 -124 77.5 -173t135.5 -49q101 0 165 80t64 208q0 173 -100 274t-275 106v65z" />
    <glyph glyph-name="four" unicode="4" horiz-adv-x="1294" 
d="M637 457v483l-447 -444l13 -39h434zM1034 205q0 -80 28.5 -114t94.5 -34h12v-57h-669v57h12q67 0 96 34.5t29 113.5v131h-576l-41 113l1002 997q7 7 9.5 8.5t4.5 1.5q8 0 13.5 -4t5.5 -10q0 -1 -3 -11q-18 -66 -18 -163v-811h205l-27 -121h-178v-131z" />
    <glyph glyph-name="five" unicode="5" horiz-adv-x="1214" 
d="M123 553l90 860h512q143 0 202 18.5t93 65.5l43 -12l-119 -418h-686l-10 -117q435 0 658.5 -126.5t223.5 -372.5q0 -218 -171 -356t-445 -138q-221 0 -359.5 92.5t-138.5 237.5q0 69 48.5 116.5t119.5 47.5q72 0 112.5 -41.5t63.5 -140.5q3 -13 8 -39q18 -93 54 -134
q26 -29 63 -44t84 -15q97 0 156 55t59 146q0 158 -156 236.5t-468 78.5h-37z" />
    <glyph glyph-name="six" unicode="6" horiz-adv-x="1229" 
d="M467 725q-12 -76 -18.5 -149t-6.5 -140q0 -209 45.5 -306t143.5 -97q94 0 142 96.5t48 284.5q0 193 -50 280.5t-159 87.5q-35 0 -72.5 -14.5t-72.5 -42.5zM504 840q53 30 108.5 44.5t114.5 14.5q202 0 328.5 -123t126.5 -317q0 -217 -152 -359.5t-385 -142.5
q-106 0 -201 35t-172 102q-101 89 -155 212.5t-54 268.5q0 307 233.5 544t637.5 337l22 -47q-159 -75 -276 -222.5t-176 -346.5z" />
    <glyph glyph-name="seven" unicode="7" horiz-adv-x="1133" 
d="M57 920q48 113 94.5 235.5t92.5 257.5h942q-256 -432 -413.5 -796.5t-199.5 -616.5h-395q42 147 169.5 344.5t410.5 542.5l145 176h-401q-142 0 -238 -40t-158 -124z" />
    <glyph glyph-name="eight" unicode="8" horiz-adv-x="1276" 
d="M334 647q-49 -48 -75 -110t-26 -134q0 -159 87 -259.5t223 -100.5q116 0 187 62.5t71 162.5q0 74 -25 120t-123 114q-1 1 -106.5 47t-212.5 98zM922 895q30 47 44.5 98t14.5 109q0 121 -72 195.5t-188 74.5q-92 0 -148.5 -50t-56.5 -132q0 -136 301 -253q67 -27 105 -42z
M266 690q-81 57 -121.5 134.5t-40.5 176.5q0 200 154.5 327.5t398.5 127.5q210 0 338.5 -100.5t128.5 -259.5q0 -75 -28.5 -137.5t-83.5 -108.5q99 -66 148.5 -159.5t49.5 -215.5q0 -231 -173 -374.5t-455 -143.5q-234 0 -382.5 116.5t-148.5 295.5q0 107 56 191t159 130z
" />
    <glyph glyph-name="nine" unicode="9" horiz-adv-x="1229" 
d="M758 688q12 77 18 149t6 138q0 210 -45.5 307.5t-142.5 97.5q-94 0 -142.5 -96t-48.5 -285q0 -193 50 -280.5t159 -87.5q36 0 73 14.5t73 42.5zM723 571q-51 -28 -107.5 -42.5t-117.5 -14.5q-202 0 -328.5 123t-126.5 317q0 217 153 359.5t386 142.5q106 0 201 -35
t171 -102q101 -88 154 -211.5t53 -269.5q0 -307 -232 -544t-636 -337l-25 47q161 76 278.5 222.5t176.5 344.5z" />
    <glyph glyph-name="colon" unicode=":" horiz-adv-x="807" 
d="M217 598q0 78 54.5 132t131.5 54q79 0 133 -54t54 -132q0 -79 -54.5 -133.5t-132.5 -54.5t-132 54.5t-54 133.5zM217 143q0 78 54.5 133.5t131.5 55.5q78 0 132.5 -55t54.5 -134q0 -78 -54 -132t-133 -54q-78 0 -132 54t-54 132z" />
    <glyph glyph-name="semicolon" unicode=";" horiz-adv-x="807" 
d="M460 -25q-14 -5 -29.5 -7.5t-33.5 -2.5q-79 0 -129.5 50t-50.5 128q0 80 52.5 133.5t131.5 53.5q90 0 139.5 -60t49.5 -168q0 -131 -76 -225.5t-197 -114.5l-26 56q74 10 116 49t53 108zM217 598q0 78 54.5 132t131.5 54q79 0 133 -54t54 -132q0 -79 -54.5 -133.5
t-132.5 -54.5t-132 54.5t-54 133.5z" />
    <glyph glyph-name="less" unicode="&#x3c;" horiz-adv-x="1706" 
d="M1442 1214v-253l-854 -351l854 -348v-254l-1178 486v233z" />
    <glyph glyph-name="equal" unicode="=" horiz-adv-x="1706" 
d="M254 502h1198v-230h-1198v230zM254 950h1198v-231h-1198v231z" />
    <glyph glyph-name="greater" unicode="&#x3e;" horiz-adv-x="1706" 
d="M264 1214l1178 -487v-233l-1178 -486v254l854 348l-854 351v253z" />
    <glyph glyph-name="question" unicode="?" horiz-adv-x="1319" 
d="M362 158q0 83 58.5 141.5t142.5 58.5q83 0 142 -58.5t59 -141.5q0 -85 -58 -143t-143 -58q-84 0 -142.5 58t-58.5 143zM492 457q-6 32 -8.5 65t-2.5 66q0 74 20.5 132.5t61.5 104.5q33 37 101.5 100t87.5 95q22 36 33.5 73t11.5 76q0 93 -57 149t-152 56
q-107 0 -169.5 -57.5t-62.5 -155.5q0 -17 2 -44.5t2 -37.5q0 -85 -39 -134.5t-106 -49.5q-62 0 -100.5 46t-38.5 120q0 173 157 284t410 111q265 0 417 -109.5t152 -297.5q0 -68 -27.5 -127t-78.5 -101q-75 -60 -267 -101q-64 -13 -98 -22q-100 -26 -140 -66t-40 -112
q0 -12 6 -47q1 -10 2 -16h-77z" />
    <glyph glyph-name="at" unicode="@" horiz-adv-x="2019" 
d="M1171 313q-60 -95 -130 -143.5t-148 -48.5q-156 0 -241 90t-85 256q0 116 50.5 223.5t146.5 196.5q68 62 150 95.5t167 33.5q96 0 150 -44t67 -132l48 157h208l-174 -624q-8 -34 -11 -53t-3 -35q0 -45 19 -72t51 -27q30 0 84.5 27.5t101.5 69.5q97 87 148 211.5t51 273.5
q0 121 -34 219.5t-101 171.5q-99 109 -235.5 166t-299.5 57q-139 0 -265 -39.5t-233 -117.5q-166 -120 -255 -303t-89 -404q0 -336 205 -531.5t557 -195.5q163 0 315 49.5t316 157.5l41 -57q-151 -113 -321 -170.5t-351 -57.5q-432 0 -687 224.5t-255 601.5q0 202 87.5 381
t252.5 313q137 112 302.5 169.5t350.5 57.5q349 0 559.5 -189.5t210.5 -504.5q0 -164 -59 -302t-172 -239q-59 -52 -128 -80t-140 -28q-98 0 -156.5 52.5t-65.5 143.5zM1128 942q-60 0 -110 -44t-98 -140q-57 -112 -88 -218.5t-31 -187.5q0 -71 32.5 -113t86.5 -42
q59 0 115 60.5t108 180.5q42 99 67 198.5t25 166.5t-27.5 103t-79.5 36z" />
    <glyph glyph-name="A" unicode="A" horiz-adv-x="1389" 
d="M330 551h344l-170 493zM-92 0v57q88 6 140.5 54.5t96.5 171.5l316 868q-16 40 -40 70.5t-59 54.5q102 20 217.5 81t239.5 161l428 -1239q3 -9 9 -26q68 -194 178 -196v-57h-787v57h17q65 0 98 24.5t33 74.5q0 16 -4 36t-13 46l-80 235h-397l-65 -192q-9 -26 -14 -52.5
t-5 -48.5q0 -58 34.5 -88.5t102.5 -34.5v-57h-446z" />
    <glyph glyph-name="B" unicode="B" horiz-adv-x="1507" 
d="M672 776v-444q0 -152 30.5 -200t110.5 -48q97 0 149 87t52 249q0 175 -75 266.5t-218 91.5q-20 0 -30.5 -0.5t-18.5 -1.5zM672 850h14q133 0 195.5 56t62.5 175q0 122 -56.5 183t-168.5 61q-19 0 -29 -0.5t-18 -1.5v-473zM61 0v57q94 6 127 42t33 134v947q0 98 -33 134
t-127 42v57h760q240 0 363 -79.5t123 -235.5q0 -100 -57 -166t-175 -105q178 -43 275.5 -153t97.5 -266q0 -92 -43 -176.5t-119 -141.5q-64 -46 -154 -68t-221 -22h-850z" />
    <glyph glyph-name="C" unicode="C" horiz-adv-x="1464" 
d="M1372 82q-134 -62 -264 -93.5t-252 -31.5q-97 0 -189 20t-173 58q-212 101 -319 266t-107 389q0 170 65 315.5t189 251.5q114 99 254.5 150t297.5 51q129 0 248 -30.5t221 -90.5v-415h-53q-40 212 -156 334t-276 122q-170 0 -246.5 -153t-76.5 -496q0 -381 75.5 -535.5
t253.5 -154.5q171 0 298.5 137t164.5 365h45v-459z" />
    <glyph glyph-name="D" unicode="D" horiz-adv-x="1593" 
d="M654 1325l-1 -983q0 -155 34 -207.5t120 -52.5q127 0 192.5 152t65.5 446q0 331 -87.5 490t-268.5 159q-11 0 -21.5 -0.5t-33.5 -3.5zM41 0v57q93 6 126.5 42t33.5 134v947q0 98 -33.5 134t-126.5 42v57h649q209 0 331.5 -31.5t221.5 -103.5q139 -100 212 -248.5
t73 -331.5q0 -328 -194.5 -513t-540.5 -185h-752z" />
    <glyph glyph-name="E" unicode="E" horiz-adv-x="1403" 
d="M61 0v57q94 6 127 42t33 134v947q0 98 -33 134t-127 42v57h897q77 0 127.5 13t77.5 40q26 -121 55 -213t64 -161l-59 -23q-89 136 -198.5 196t-268.5 60h-84v-501q156 1 228.5 42.5t78.5 132.5h61v-450h-61q-9 106 -78.5 156.5t-210.5 50.5h-18v-426q0 -149 39.5 -198.5
t142.5 -49.5q140 0 266 94t199 254l57 -24l-143 -406h-1172z" />
    <glyph glyph-name="F" unicode="F" horiz-adv-x="1200" 
d="M672 233q0 -98 33 -134t126 -42v-57h-770v57q94 6 127 42t33 134v947q0 98 -33 134t-127 42v57h850q77 0 127.5 13t77.5 40q26 -121 55 -213t64 -161l-59 -23q-90 136 -199 196t-268 60h-37v-502q122 0 180.5 41.5t69.5 134.5h61v-450h-61q-8 98 -68.5 148.5t-181.5 58.5
v-523z" />
    <glyph glyph-name="G" unicode="G" horiz-adv-x="1522" 
d="M1389 102q-162 -74 -298.5 -109.5t-259.5 -35.5q-99 0 -192 21.5t-172 62.5q-193 101 -295 269.5t-102 385.5q0 166 66 312t190 252q114 97 256.5 147.5t304.5 50.5q125 0 248 -31t241 -94v-399h-47q-71 216 -185 330t-259 114q-173 0 -259.5 -175.5t-86.5 -526.5
q0 -323 76.5 -480t234.5 -157q57 0 87 29t30 86v153q0 106 -33 143t-123 37v58h657v-58q-46 -3 -62.5 -25t-16.5 -102v-38v-220z" />
    <glyph glyph-name="H" unicode="H" horiz-adv-x="1683" 
d="M672 233q0 -90 26.5 -126t98.5 -50v-57h-736v57q94 6 127 42t33 134v947q0 98 -33 134t-127 42v57h736v-57q-72 -13 -98.5 -48.5t-26.5 -127.5v-342h344v342q0 89 -27.5 126t-99.5 50v57h733v-57q-93 -6 -126.5 -42t-33.5 -134v-947q0 -98 33.5 -134t126.5 -42v-57h-733
v57q72 13 99.5 49.5t27.5 126.5v525h-344v-525z" />
    <glyph glyph-name="I" unicode="I" horiz-adv-x="901" 
d="M836 1413v-57q-94 -6 -127 -42t-33 -134v-947q0 -98 33 -134t127 -42v-57h-770v57q93 6 126 42t33 134v947q0 98 -33 134t-126 42v57h770z" />
    <glyph glyph-name="J" unicode="J" horiz-adv-x="1128" 
d="M471 1180q0 101 -36.5 137t-137.5 39v57h784v-57q-93 -6 -126 -42t-33 -134v-695q0 -128 -20.5 -204.5t-67.5 -135.5q-73 -91 -188.5 -139.5t-260.5 -48.5q-181 0 -297.5 85t-116.5 212q0 73 40 118.5t104 45.5q71 0 109 -51t38 -148q0 -11 -1 -26.5t-1 -20.5
q0 -66 26 -101.5t74 -35.5q62 0 86.5 36t24.5 138v971z" />
    <glyph glyph-name="K" unicode="K" horiz-adv-x="1554" 
d="M672 233q0 -90 26 -126t97 -50v-57h-734v57q94 6 127 42t33 134v947q0 98 -33 134t-127 42v57h736v-57q-72 -13 -98.5 -48.5t-26.5 -127.5v-340q170 154 252 258.5t82 167.5q0 39 -23 59.5t-80 30.5v57h533v-57q-97 -6 -178 -51t-168 -142l-113 -125q158 -138 266 -313
t197 -444q0 -1 1 -3q71 -221 175 -221h12v-57h-758l1 57q61 5 83.5 27.5t22.5 77.5q0 135 -81.5 291t-223.5 290v-510z" />
    <glyph glyph-name="L" unicode="L" horiz-adv-x="1309" 
d="M221 1180q0 98 -33 134t-127 42v57h770v-57q-93 -6 -126 -42t-33 -134v-850q0 -139 32.5 -186.5t116.5 -47.5q126 0 251 101.5t204 271.5l57 -23l-153 -446h-1119v57q94 6 127 42t33 134v947z" />
    <glyph glyph-name="M" unicode="M" horiz-adv-x="1808" 
d="M12 0v57q100 6 143.5 74t55.5 246l51 747q1 10 1.5 20.5t0.5 31.5q0 94 -32 136t-105 44v57h598l178 -641l189 641h600v-57q-88 -8 -119 -38t-31 -110q0 -35 1 -66.5t3 -58.5l49 -765q12 -170 49 -211.5t138 -49.5v-57h-785v57q90 12 121 40t31 93q0 21 -1 50t-3 63
l-41 827l-356 -1165l-410 1143l-51 -735q-1 -11 -3.5 -46t-2.5 -55q0 -113 38 -163t123 -52v-57h-430z" />
    <glyph glyph-name="N" unicode="N" horiz-adv-x="1384" 
d="M281 319q0 -143 37.5 -197.5t136.5 -64.5v-57h-424v57q98 10 136 64.5t38 197.5v930q-43 49 -95.5 75.5t-115.5 31.5v57h635l510 -919v598q0 144 -38 199t-136 65v57h424v-57q-99 -10 -137 -65t-38 -199v-1092h-303l-630 1135v-816z" />
    <glyph glyph-name="O" unicode="O" horiz-adv-x="1651" 
d="M825 -41q-157 0 -287.5 48t-234.5 145q-114 104 -173.5 246.5t-59.5 308.5q0 167 60 310t175 249q102 94 233.5 142t286.5 48q159 0 290.5 -47.5t234.5 -142.5q115 -108 175 -251t60 -308q0 -166 -59.5 -307.5t-173.5 -247.5q-104 -97 -235.5 -145t-291.5 -48zM819 35
q77 0 132.5 31t90.5 94q33 61 47.5 182t14.5 367q0 419 -61 545t-224 126q-162 0 -223 -124.5t-61 -546.5q0 -247 14 -368.5t47 -180.5q36 -63 92 -94t131 -31z" />
    <glyph glyph-name="P" unicode="P" horiz-adv-x="1403" 
d="M676 678q22 -6 39 -9t30 -3q96 0 152.5 86.5t56.5 236.5q0 168 -64 256t-185 88q-6 0 -15 -1t-14 -1v-653zM782 1413q155 0 246 -17.5t156 -56.5q95 -56 145.5 -148t50.5 -206q0 -188 -140.5 -300t-377.5 -112q-39 0 -86 5t-100 14v-359q0 -98 33 -134t127 -42v-57h-770
v57q93 6 126 42t33 134v947q0 98 -33 134t-126 42v57h716z" />
    <glyph glyph-name="Q" unicode="Q" horiz-adv-x="1651" 
d="M993 -25q19 -59 56.5 -88.5t93.5 -29.5q77 0 118.5 45t43.5 129h79v-19q0 -151 -93.5 -239t-254.5 -88q-139 0 -234.5 77.5t-117.5 208.5q-277 42 -445.5 244.5t-168.5 491.5q0 166 60 309.5t175 249.5q103 95 233.5 142.5t286.5 47.5q159 0 290.5 -47.5t234.5 -142.5
q114 -106 174.5 -249.5t60.5 -309.5q0 -281 -161 -479.5t-431 -252.5zM676 72q9 80 56.5 222t47.5 208q0 61 -32.5 101t-79.5 40q-65 0 -96 -58t-31 -182q0 -117 35.5 -204t99.5 -127zM975 63q72 19 100.5 157t28.5 548q0 365 -62 488.5t-223 123.5q-158 0 -222.5 -126
t-64.5 -459q0 -18 1.5 -57t1.5 -60q35 35 79.5 53.5t96.5 18.5q141 0 206.5 -100.5t65.5 -317.5q0 -52 -2 -121t-6 -148z" />
    <glyph glyph-name="R" unicode="R" horiz-adv-x="1587" 
d="M672 862h26q125 0 183.5 58.5t58.5 181.5q0 107 -61.5 166t-173.5 59q-6 0 -17 -1t-16 -1v-463zM672 233q0 -90 26 -126t97 -50v-57h-734v57q94 6 127 42t33 134v947q0 98 -33 134t-127 42v57h811q244 0 373 -85t129 -245q0 -99 -61.5 -167.5t-173.5 -96.5
q176 -120 313 -499q14 -38 20 -55q52 -137 89.5 -171t105.5 -37v-57h-739v57q53 8 75.5 34t22.5 83q0 65 -37 177t-102 241q-46 89 -93.5 129.5t-105.5 40.5h-16v-529z" />
    <glyph glyph-name="S" unicode="S" horiz-adv-x="1247" 
d="M123 47v520h65q59 -256 173.5 -394t269.5 -138q98 0 155.5 56t57.5 153q0 149 -286 274q-25 11 -37 16q-13 6 -38 17q-193 82 -268 168q-49 55 -73.5 123t-24.5 147q0 205 151 336t389 131q80 0 174.5 -18t215.5 -56v-421h-56q-55 210 -142 313.5t-208 103.5
q-92 0 -150.5 -54.5t-58.5 -139.5q0 -76 49 -133t148 -97q50 -20 138 -53q162 -60 208 -92q114 -78 163.5 -164t49.5 -205q0 -223 -155.5 -353t-424.5 -130q-122 0 -244 22.5t-241 67.5z" />
    <glyph glyph-name="T" unicode="T" horiz-adv-x="1233" 
d="M391 1321q-115 -20 -197.5 -95t-138.5 -210l-45 16l80 418q28 -18 73 -27.5t107 -9.5h691q61 0 105.5 9.5t72.5 27.5l82 -418l-45 -16q-58 137 -140 211.5t-196 93.5v-1088q0 -98 33 -134t126 -42v-57h-770v57q95 6 128.5 42.5t33.5 133.5v1088z" />
    <glyph glyph-name="U" unicode="U" horiz-adv-x="1497" 
d="M103 1356l-1 57h740v-57q-86 -14 -116.5 -46t-37.5 -131l-45 -587q-6 -77 -8 -110t-2 -52q0 -146 77 -221.5t226 -75.5q161 0 242.5 83.5t81.5 248.5q0 24 -0.5 36t-2.5 24l-47 581q-11 139 -52 191t-136 59v57h373v-57q-64 -21 -87.5 -52.5t-23.5 -99.5q0 -14 2 -54
q2 -21 2 -32l43 -575l3 -36q5 -69 5 -95q0 -216 -147.5 -335.5t-415.5 -119.5q-291 0 -446.5 127t-155.5 365q0 38 1 59t3 39l56 607q1 8 1.5 18t0.5 28q0 77 -32 114t-101 42z" />
    <glyph glyph-name="V" unicode="V" horiz-adv-x="1313" 
d="M1380 1413v-57q-66 -4 -117 -51.5t-89 -141.5l-496 -1206l-578 1270q-27 61 -66.5 92.5t-94.5 36.5v57h780v-57q-57 -2 -83 -20t-26 -56q0 -12 4.5 -30.5t16.5 -51.5l229 -598l230 572q9 24 13.5 47t4.5 43q0 46 -28.5 69t-85.5 25l-1 57h387z" />
    <glyph glyph-name="W" unicode="W" horiz-adv-x="1858" 
d="M682 -43l-559 1196q-54 114 -102.5 158.5t-112.5 44.5h-4v57h807l-1 -57q-55 -2 -83.5 -24.5t-28.5 -63.5q0 -19 5.5 -42t17.5 -50l215 -537l286 823l314 -823l194 518q8 22 12.5 48.5t4.5 54.5q0 44 -30 67.5t-91 28.5v57h413v-57q-79 -8 -125.5 -49.5t-89.5 -151.5
l-464 -1198l-302 786z" />
    <glyph glyph-name="X" unicode="X" horiz-adv-x="1436" 
d="M537 645l-306 531q-59 104 -107.5 139t-125.5 41v57h772v-57q-44 -9 -60 -19.5t-16 -29.5q0 -13 5 -27.5t20 -42.5l110 -193q65 87 94 143t29 93q0 36 -23 52.5t-85 23.5v57h432v-57q-75 -5 -125 -35t-119 -129l-155 -221l405 -699q1 -1 3 -5q104 -182 245 -210v-57h-850
v57q58 8 89.5 31.5t31.5 58.5q0 22 -11 52.5t-32 66.5l-174 295l-150 -215q-36 -52 -57 -101t-21 -83q0 -46 34.5 -73t98.5 -32v-57h-542v57q103 16 177.5 65.5t154.5 160.5z" />
    <glyph glyph-name="Y" unicode="Y" horiz-adv-x="1255" 
d="M874 233q0 -98 33.5 -134t126.5 -42v-57h-770v57q94 6 127 42t33 134v474l-281 469q-62 104 -113.5 142t-119.5 38h-6v57h835v-57q-62 0 -93.5 -20.5t-31.5 -61.5q0 -22 13 -56.5t39 -78.5l149 -269l139 236q36 59 53 101t17 69q0 36 -23.5 54.5t-76.5 25.5v57h407v-57
q-77 -7 -134 -51.5t-122 -155.5l-201 -340v-576z" />
    <glyph glyph-name="Z" unicode="Z" horiz-adv-x="1294" 
d="M49 0l583 1323q-21 3 -41.5 4.5t-41.5 1.5q-160 0 -265 -84.5t-167 -263.5h-58l52 485q31 -29 78.5 -41t154.5 -12h815l-581 -1323q8 -1 18 -1.5t31 -0.5q196 0 333 125.5t205 368.5h58l-35 -582h-1139z" />
    <glyph glyph-name="bracketleft" unicode="[" horiz-adv-x="901" 
d="M627 72q0 -103 37.5 -139.5t136.5 -36.5h61v-84h-608v1669h608v-84h-61q-100 0 -137 -36.5t-37 -137.5v-1151z" />
    <glyph glyph-name="backslash" unicode="\" horiz-adv-x="653" 
d="M23 1456l649 -1646h-90l-652 1646h93z" />
    <glyph glyph-name="bracketright" unicode="]" horiz-adv-x="901" 
d="M274 1221q0 102 -37.5 139t-136.5 37h-61v84h608v-1669h-608v84h61q100 0 137 36t37 138v1151z" />
    <glyph glyph-name="asciicircum" unicode="^" horiz-adv-x="2048" 
d="M893 1462h260l479 -565h-121l-489 348l-490 -348h-120z" />
    <glyph glyph-name="underscore" unicode="_" 
d="M0 -244h1024v-239h-1024v239z" />
    <glyph glyph-name="grave" unicode="`" 
d="M725 1135h-115l-325 163q-57 29 -81 56.5t-24 62.5q0 46 32 77.5t79 31.5q36 0 71.5 -21.5t83.5 -72.5z" />
    <glyph glyph-name="a" unicode="a" horiz-adv-x="1204" 
d="M659 590q-90 -36 -137 -113.5t-47 -189.5q0 -64 25.5 -102t66.5 -38q53 0 72.5 42t19.5 210v191zM678 129q-76 -87 -159.5 -129.5t-176.5 -42.5q-123 0 -199.5 69.5t-76.5 178.5q0 129 116.5 224.5t476.5 234.5v71q0 112 -28.5 160.5t-93.5 48.5q-53 0 -88 -31.5
t-35 -78.5q0 -25 2 -58.5t2 -42.5q0 -73 -40.5 -117.5t-107.5 -44.5q-61 0 -98 38.5t-37 101.5q0 136 129 225.5t332 89.5q114 0 206.5 -29t151.5 -84q48 -45 68 -105t20 -181v-285q0 -119 18.5 -169t59.5 -50q9 0 18 4t19 12v-65q-40 -51 -103.5 -79t-140.5 -28
q-88 0 -147.5 41t-87.5 121z" />
    <glyph glyph-name="b" unicode="b" horiz-adv-x="1282" 
d="M653 27q79 0 109.5 79t30.5 347q0 267 -30.5 346.5t-109.5 79.5q-80 0 -110.5 -79.5t-30.5 -346.5q0 -268 30.5 -347t110.5 -79zM322 178l-91 -137q-19 -27 -30.5 -34t-28.5 -7h-67q13 26 19.5 57.5t6.5 71.5v891q0 49 -10 70t-47 51l-109 88q73 21 192.5 65.5
t352.5 137.5v-533q47 61 118 93t156 32q187 0 308.5 -151t121.5 -386q0 -242 -141 -387t-375 -145q-131 0 -224.5 55.5t-151.5 167.5z" />
    <glyph glyph-name="c" unicode="c" horiz-adv-x="1059" 
d="M1008 166q-88 -103 -199.5 -156t-239.5 -53q-227 0 -369.5 144.5t-142.5 377.5q0 120 47.5 228t135.5 186q74 65 164 99t188 34q170 0 281.5 -85.5t111.5 -213.5q0 -72 -47.5 -120t-118.5 -48q-63 0 -105 45t-42 111q0 146 -26.5 190.5t-92.5 44.5q-76 0 -115 -65.5
t-39 -192.5q0 -229 117 -373.5t297 -144.5q57 0 104.5 21t90.5 65v-94z" />
    <glyph glyph-name="d" unicode="d" horiz-adv-x="1294" 
d="M772 1020q0 49 -10 70t-47 51l-109 88q82 24 194 65t351 138v-1229q0 -79 28.5 -112.5t94.5 -33.5h6v-57h-514l-4 113q-52 -79 -126 -117.5t-171 -38.5q-182 0 -289.5 133t-107.5 361q0 261 117.5 417t312.5 156q86 0 156.5 -32t117.5 -93v121zM629 121q80 0 110.5 71.5
t30.5 307.5q0 239 -30.5 309t-110.5 70t-110 -70t-30 -309q0 -235 30.5 -307t109.5 -72z" />
    <glyph glyph-name="e" unicode="e" horiz-adv-x="1063" 
d="M989 166q-85 -102 -195 -155.5t-235 -53.5q-114 0 -213.5 46t-171.5 132q-59 70 -89 155.5t-30 184.5q0 102 29 190t88 166q64 87 172.5 141t220.5 54q195 0 311.5 -119t116.5 -319h-579q6 -178 116 -296t265 -118q59 0 107 21.5t87 64.5v-94zM412 659h92q136 0 167 23.5
t31 89.5q0 89 -32 133.5t-97 44.5q-83 0 -122 -69.5t-39 -221.5z" />
    <glyph glyph-name="f" unicode="f" horiz-adv-x="743" 
d="M551 203q0 -80 29 -113t98 -33h14v-57h-655v57h6q66 0 94.5 33.5t28.5 112.5v702h-98v56q47 37 118 153q38 61 60 92q75 107 178.5 166.5t216.5 59.5q121 0 197.5 -58.5t76.5 -148.5q0 -60 -38 -96.5t-101 -36.5q-49 0 -82 22.5t-69 89.5q-37 65 -63 85t-62 20
q-42 0 -66 -24.5t-24 -65.5q0 -44 59 -114.5t76 -123.5h188v-76h-182v-702z" />
    <glyph glyph-name="g" unicode="g" horiz-adv-x="1151" 
d="M586 397q77 0 111 64t34 211q0 151 -34 217.5t-111 66.5q-78 0 -112 -64t-34 -218q0 -148 34.5 -212.5t111.5 -64.5zM248 -131q-4 -10 -6 -19t-2 -18q0 -74 91 -128t228 -54q133 0 213 46.5t80 121.5q0 46 -33.5 74t-89.5 28q-35 0 -159.5 -35t-213.5 -35q-25 0 -53 5
t-55 14zM254 406q-70 45 -106.5 111.5t-36.5 146.5q0 161 137 262.5t358 101.5q27 0 55.5 -3t59.5 -9q33 86 100 135t152 49q62 0 102.5 -36t40.5 -91q0 -47 -31 -78.5t-77 -31.5q-40 0 -98 33.5t-81 33.5q-15 0 -26 -6.5t-19 -19.5q135 -46 206 -131.5t71 -200.5
q0 -157 -136 -255t-358 -98q-60 0 -119.5 11t-119.5 32q-48 -8 -75.5 -33t-27.5 -59q0 -40 30.5 -65t80.5 -25q47 0 167 47l11 4q98 38 159 52t118 14q150 0 243.5 -89.5t93.5 -232.5q0 -184 -156 -295.5t-419 -111.5q-215 0 -337 59t-122 162q0 39 16 70t50 57
q-54 37 -82.5 93t-28.5 126q0 97 52 165.5t153 105.5z" />
    <glyph glyph-name="h" unicode="h" horiz-adv-x="1290" 
d="M768 653q0 109 -26 151t-89 42q-59 0 -84.5 -44.5t-25.5 -148.5v-450q0 -66 20 -100t66 -46v-57h-600v57h6q66 0 94.5 33.5t28.5 112.5v817q0 49 -10 70t-48 51l-108 88q86 25 213.5 73.5t320.5 129.5v-584q71 87 154.5 131.5t177.5 44.5q143 0 219 -87t76 -251v-483
q0 -79 28.5 -112.5t94.5 -33.5h6v-57h-600v57q47 13 66.5 46t19.5 100v450z" />
    <glyph glyph-name="i" unicode="i" horiz-adv-x="696" 
d="M172 627q0 46 -10 66.5t-47 49.5l-109 88q119 38 257 89t294 114v-831q0 -77 27.5 -110.5t91.5 -35.5v-57h-633v57h6q66 0 94.5 33.5t28.5 112.5v424zM145 1231q0 84 58.5 142.5t142.5 58.5q85 0 143 -58.5t58 -142.5t-58.5 -142.5t-142.5 -58.5t-142.5 58t-58.5 143z
" />
    <glyph glyph-name="j" unicode="j" horiz-adv-x="696" 
d="M172 627v10q0 35 -10.5 56t-46.5 50l-109 88q119 38 257 89t294 114v-870q0 -145 -29.5 -237.5t-97.5 -172.5q-75 -90 -176 -138t-215 -48q-129 0 -211 62.5t-82 158.5q0 66 38.5 107t100.5 41q47 0 86 -27.5t60 -75.5q10 -23 24 -65q41 -115 109 -115q41 0 66.5 29
t25.5 75q0 26 -8 56.5t-35 93.5q-3 7 -9 22q-30 73 -40 117q-4 21 -6 43.5t-2 46.5q0 20 0.5 41.5t3.5 65.5zM145 1231q0 84 58.5 142.5t142.5 58.5q85 0 143 -58.5t58 -142.5t-58.5 -142.5t-142.5 -58.5t-142.5 58t-58.5 143z" />
    <glyph glyph-name="k" unicode="k" horiz-adv-x="1266" 
d="M543 203q0 -79 28 -112.5t95 -33.5h6v-57h-643v57h6q66 0 94.5 33.5t28.5 112.5v821q0 46 -10.5 66.5t-47.5 50.5l-108 88q70 21 195 67t356 136v-902q131 101 197.5 182.5t66.5 141.5q0 32 -24.5 51t-67.5 19h-6v57h520v-57h-17q-103 0 -194 -54t-187 -172l287 -491
q47 -82 91 -114t110 -36v-57h-537l-239 475v-272z" />
    <glyph glyph-name="l" unicode="l" horiz-adv-x="696" 
d="M158 1024q0 46 -10.5 66.5t-47.5 50.5l-108 88q118 37 256.5 88t294.5 115v-1229q0 -79 28 -112.5t95 -33.5h6v-57h-643v57h6q66 0 94.5 33.5t28.5 112.5v821z" />
    <glyph glyph-name="m" unicode="m" horiz-adv-x="1915" 
d="M557 0h-514v57h6q66 0 94.5 33.5t28.5 112.5v377q0 48 -12 71t-45 45l-125 88q124 45 256.5 107t275.5 143v-170q61 82 141 121t189 39q104 0 177.5 -40.5t109.5 -117.5q55 78 134.5 118t180.5 40q164 0 245 -83.5t81 -254.5v-483q0 -79 28 -112.5t95 -33.5h6v-57h-514
v676q0 108 -26.5 150t-90.5 42q-59 0 -85 -44t-26 -148v-473q0 -79 28.5 -112.5t94.5 -33.5h6v-57h-643v57h6q67 0 95 33.5t28 112.5v473q0 108 -26.5 150t-89.5 42q-59 0 -84 -43.5t-25 -148.5v-676z" />
    <glyph glyph-name="n" unicode="n" horiz-adv-x="1305" 
d="M557 203q0 -77 27.5 -110.5t91.5 -35.5v-57h-633v57h6q66 0 94.5 33.5t28.5 112.5v377q0 48 -12 71t-45 45l-125 88q124 45 256.5 107t275.5 143v-170q60 80 140 120t180 40q164 0 244.5 -83.5t80.5 -254.5v-483q0 -79 28.5 -112.5t94.5 -33.5h6v-57h-514v676
q0 108 -26.5 150t-89.5 42q-59 0 -84 -43.5t-25 -148.5v-473z" />
    <glyph glyph-name="o" unicode="o" horiz-adv-x="1280" 
d="M639 33q92 0 127 87t35 372q0 283 -35 369.5t-127 86.5q-91 0 -125.5 -83t-34.5 -373q0 -292 34.5 -375.5t125.5 -83.5zM639 -43q-263 0 -422.5 147t-159.5 388q0 240 159.5 386t422.5 146t423.5 -146.5t160.5 -385.5q0 -240 -161 -387.5t-423 -147.5z" />
    <glyph glyph-name="p" unicode="p" horiz-adv-x="1294" 
d="M676 27q79 0 109 79t30 347q0 267 -30 346.5t-109 79.5q-80 0 -110.5 -79.5t-30.5 -346.5q0 -268 30.5 -347t110.5 -79zM154 580q0 48 -12.5 71t-45.5 45l-127 88q127 46 260.5 108t274.5 142v-170q57 81 128.5 120.5t160.5 39.5q197 0 320.5 -149t123.5 -388
q0 -249 -145 -390.5t-400 -141.5q-30 0 -68.5 3t-86.5 9v-196q0 -79 29.5 -112.5t99.5 -33.5h30v-57h-704v57h31q70 0 100.5 33.5t30.5 112.5v809z" />
    <glyph glyph-name="q" unicode="q" horiz-adv-x="1282" 
d="M1143 -229q0 -79 30 -112.5t101 -33.5h31v-57h-705v57h31q70 0 99.5 33.5t29.5 112.5v288q-61 -51 -130.5 -76.5t-150.5 -25.5q-189 0 -301 129.5t-112 349.5q0 268 136.5 428t362.5 160q99 0 193.5 -35.5t197.5 -111.5l187 147v-1253zM614 82q81 0 111.5 79t30.5 349
q0 268 -30.5 346t-111.5 78q-79 0 -109 -78t-30 -346q0 -269 30 -348.5t109 -79.5z" />
    <glyph glyph-name="r" unicode="r" horiz-adv-x="889" 
d="M530 858q50 84 108.5 126t125.5 42q74 0 119 -44t45 -116q0 -63 -37.5 -101t-99.5 -38q-56 0 -107.5 45t-65.5 45q-33 0 -47 -44t-14 -157v-413q0 -78 31.5 -112t103.5 -34h6v-57h-655v57h6q66 0 94.5 33.5t28.5 112.5v377q0 48 -12 71t-45 45l-125 88q98 34 226 93.5
t314 156.5v-176z" />
    <glyph glyph-name="s" unicode="s" horiz-adv-x="1042" 
d="M98 41v328h52q45 -163 138 -251.5t218 -88.5q67 0 104 31t37 87q0 110 -216 198q-8 3 -13 5q-190 77 -252 145.5t-62 176.5q0 161 121 256.5t328 95.5q78 0 160 -13.5t168 -39.5v-273h-50q-68 138 -136 196t-156 58q-66 0 -107 -32.5t-41 -83.5q0 -85 221 -174
q18 -7 27 -11q201 -82 260 -149t59 -178q0 -163 -125.5 -265t-326.5 -102q-98 0 -200 21t-208 63z" />
    <glyph glyph-name="t" unicode="t" horiz-adv-x="772" 
d="M147 905h-139l516 498v-422h54q66 0 113 7t81 22l-31 -105h-217v-528q0 -131 34 -193.5t106 -62.5q15 0 34 5t43 15v-61q-67 -60 -147.5 -91.5t-167.5 -31.5q-141 0 -215 81.5t-74 237.5v13z" />
    <glyph glyph-name="u" unicode="u" horiz-adv-x="1305" 
d="M766 580q0 49 -10.5 76.5t-34.5 48.5l-109 90q124 46 472 209l65 30v-831q0 -78 29 -112t96 -34h6v-57h-481v119q-59 -81 -142 -121.5t-188 -40.5q-157 0 -236 85t-79 253v285q0 48 -12.5 71t-45.5 45l-125 88q99 37 227 93t341 157v-727q0 -107 26.5 -149.5t89.5 -42.5
q59 0 85 44t26 148v273z" />
    <glyph glyph-name="v" unicode="v" horiz-adv-x="1071" 
d="M551 -43l-459 858v1q-55 104 -149 108v57h682v-57q-51 0 -75 -14t-24 -44q0 -12 3.5 -23.5t13.5 -31.5l172 -367l159 328q8 16 12.5 34.5t4.5 37.5q0 39 -28.5 59.5t-84.5 20.5h-8v57h367v-57q-56 -3 -93 -32.5t-77 -107.5z" />
    <glyph glyph-name="w" unicode="w" horiz-adv-x="1583" 
d="M510 -43l-397 809q-44 90 -80.5 124t-85.5 34h-8v57h675v-57q-49 -2 -70.5 -16.5t-21.5 -47.5q0 -15 6 -35t19 -47l139 -299l277 539l292 -539l117 266q16 39 22.5 60.5t6.5 36.5q0 40 -28.5 60t-86.5 22v57h359v-57q-99 -10 -164 -151l-2 -4l-375 -812l-309 575z" />
    <glyph glyph-name="x" unicode="x" horiz-adv-x="1223" 
d="M-43 0v57q71 3 127 33.5t141 126.5l193 219l-244 367q-41 61 -87.5 89t-113.5 32v57h725v-57q-33 -5 -51 -18t-18 -34q0 -13 7 -28.5t23 -38.5l97 -137q52 53 80 101.5t28 84.5q0 29 -20 45.5t-64 24.5v57h387v-57q-61 -4 -112 -35.5t-117 -110.5l-141 -170l293 -420
q52 -74 93 -102.5t91 -28.5h4v-57h-768v57q60 0 82 14t22 48q0 10 -5 23.5t-15 27.5l-133 205l-86 -115q-26 -35 -37.5 -63t-11.5 -54q0 -43 27 -64.5t83 -21.5v-57h-479z" />
    <glyph glyph-name="y" unicode="y" horiz-adv-x="1096" 
d="M168 719q-63 122 -108 164.5t-103 42.5q-4 0 -11 -1t-12 -1v57h689l-1 -57q-39 -2 -60 -16.5t-21 -39.5q0 -15 7 -36t21 -48l152 -301l108 234q18 35 27.5 70.5t9.5 58.5q0 41 -25 59.5t-83 18.5v57h381v-57h-4q-70 0 -116.5 -41t-109.5 -170l-260 -545
q-131 -277 -260 -400.5t-285 -123.5q-107 0 -175 54.5t-68 137.5q0 64 45 107t112 43q62 0 155 -70q7 -5 11 -8q52 -38 78.5 -49t52.5 -11q62 0 102 57.5t40 147.5q0 58 -23 130t-72 165z" />
    <glyph glyph-name="z" unicode="z" horiz-adv-x="1157" 
d="M29 0l542 915q-164 -3 -279 -84.5t-161 -226.5h-49l65 377h924l-545 -915q198 13 325 117t167 284h45v-467h-1034z" />
    <glyph glyph-name="braceleft" unicode="{" 
d="M852 1516v-66q-111 -3 -152 -54t-41 -208v-131q0 -227 -50.5 -308.5t-184.5 -113.5q134 -33 184.5 -113.5t50.5 -306.5v-131q0 -158 41 -209.5t152 -55.5v-63h-12q-229 0 -314.5 74t-85.5 272v187q0 168 -54.5 230t-207.5 77v80q153 14 207.5 76.5t54.5 230.5v186
q0 199 85.5 273t314.5 74h12z" />
    <glyph glyph-name="bar" unicode="|" 
d="M393 1565h240v-2048h-240v2048z" />
    <glyph glyph-name="braceright" unicode="}" 
d="M172 1516h12q229 0 314.5 -74t85.5 -273v-186q0 -168 54.5 -230.5t207.5 -76.5v-80q-153 -15 -207.5 -77t-54.5 -230v-187q0 -198 -85.5 -272t-314.5 -74h-12v63q111 4 152 55.5t41 209.5v131q0 226 50.5 306.5t184.5 113.5q-134 34 -184.5 115t-50.5 307v131
q0 157 -41 208t-152 54v66z" />
    <glyph glyph-name="asciitilde" unicode="~" horiz-adv-x="1706" 
d="M1530 819v-254q-101 -69 -194 -103t-183 -34q-45 0 -89 7.5t-83 21.5q-13 4 -38 13q-255 89 -382 89q-84 0 -175.5 -37.5t-207.5 -120.5v254q112 73 207.5 108.5t179.5 35.5q63 0 126.5 -12t169.5 -46q16 -5 51 -17q159 -56 247 -56q84 0 173.5 36t197.5 115z" />
    <glyph glyph-name="nonbreakingspace" unicode="&#xa0;" horiz-adv-x="1470" 
 />
    <glyph glyph-name="exclamdown" unicode="&#xa1;" horiz-adv-x="844" 
d="M623 1253q0 -83 -58.5 -140.5t-142.5 -57.5q-83 0 -142 58t-59 140q0 85 58.5 144t142.5 59t142.5 -59t58.5 -144zM453 956q0 -60 11.5 -117t35.5 -110q12 -29 41 -88q106 -214 106 -371q0 -143 -61.5 -228t-163.5 -85q-103 0 -164 85t-61 228q0 157 105 371q30 59 42 88
q24 53 35.5 110t11.5 117h62z" />
    <glyph glyph-name="cent" unicode="&#xa2;" horiz-adv-x="1049" 
d="M504 295v672q-62 -18 -95.5 -92.5t-33.5 -194.5q0 -129 33 -227t96 -158zM580 248q46 -30 98 -45t108 -15q63 0 113 21.5t92 66.5v-73q-80 -95 -182.5 -146t-228.5 -57v-236h-76v240q-203 29 -318.5 160.5t-115.5 333.5q0 206 116.5 349t317.5 183v199h76v-191
q174 -6 280.5 -84.5t106.5 -199.5q0 -72 -39 -114t-105 -42t-103 41t-40 118q0 12 -1 32q-4 164 -99 190v-731z" />
    <glyph glyph-name="sterling" unicode="&#xa3;" horiz-adv-x="1346" 
d="M557 150q-52 56 -108 85t-113 29q-50 0 -80.5 -26.5t-30.5 -69.5q0 -50 41 -80.5t109 -30.5q52 0 97 23t85 70zM594 498q-22 90 -186 159q-59 26 -91 41q-133 68 -190 145.5t-57 188.5q0 184 166.5 304t429.5 120q244 0 398.5 -106.5t154.5 -270.5q0 -82 -41.5 -131
t-110.5 -49q-64 0 -104.5 44t-40.5 114q0 23 3 54t3 40q0 99 -54 154t-151 55q-100 0 -163.5 -58t-63.5 -149q0 -62 36 -137.5t125 -194.5h207v-94h-168q25 -60 37 -120t12 -122q0 -7 -1 -21t-1 -22q109 -70 178.5 -101.5t114.5 -31.5q71 0 113.5 51t42.5 136q0 8 -1 19.5
t-3 32.5l84 -28q4 -30 6 -60t2 -61q0 -202 -97.5 -320t-264.5 -118q-70 0 -139 29t-152 94q-51 -62 -119.5 -92.5t-153.5 -30.5q-120 0 -200 73t-80 181q0 138 102 224.5t266 86.5q40 0 77.5 -7t74.5 -21z" />
    <glyph glyph-name="currency" unicode="&#xa4;" horiz-adv-x="1241" 
d="M623 1145q-107 0 -184 -77t-77 -183q0 -108 76 -183t185 -75q107 0 182.5 75t75.5 183q0 107 -76 183.5t-182 76.5zM178 1444l203 -201q54 37 113.5 55.5t126.5 18.5q69 0 130 -18.5t113 -55.5l201 201l119 -117l-201 -205q35 -53 52.5 -112t17.5 -125t-17.5 -125.5
t-52.5 -112.5l201 -203l-119 -118l-201 202q-52 -37 -111.5 -55t-129.5 -18t-128.5 17.5t-113.5 55.5l-203 -202l-117 118l201 203q-36 54 -54 113t-18 125q0 67 18.5 126.5t53.5 110.5l-201 205z" />
    <glyph glyph-name="yen" unicode="&#xa5;" horiz-adv-x="1470" 
d="M967 233q0 -98 33 -134t126 -42v-57h-743v57q93 6 126.5 42t33.5 134v398h-449v82h445l-117 194h-328v82h281l-113 187q-63 104 -114.5 142t-120.5 38h-7v57h811v-57q-61 0 -91.5 -20.5t-30.5 -61.5q0 -22 12.5 -56.5t38.5 -78.5l147 -269l142 236q33 56 50 99t17 71
q0 36 -23.5 54.5t-76.5 25.5v57h407v-57q-77 -7 -134.5 -52.5t-121.5 -154.5l-94 -160h295v-82h-342l-59 -94v-100h401v-82h-401v-398z" />
    <glyph glyph-name="brokenbar" unicode="&#xa6;" 
d="M393 408h240v-758h-240v758zM393 1432h240v-758h-240v758z" />
    <glyph glyph-name="section" unicode="&#xa7;" 
d="M340 582l252 -199q23 -18 45.5 -27.5t44.5 -9.5q44 0 75 30.5t31 74.5q0 33 -27.5 71.5t-82.5 81.5l-250 199q-23 18 -45.5 27.5t-44.5 9.5q-44 0 -75.5 -31t-31.5 -74q0 -34 27.5 -72.5t81.5 -80.5zM700 285q84 -68 123 -135t39 -142q0 -134 -106.5 -213.5t-288.5 -79.5
q-151 0 -244.5 64.5t-93.5 167.5q0 64 44.5 106.5t113.5 42.5q52 0 88.5 -32t36.5 -78q0 -26 -29 -72.5t-29 -71.5q0 -30 36.5 -50.5t90.5 -20.5q69 0 112.5 39.5t43.5 101.5q0 55 -45 112.5t-168 153.5l-191 148q-90 70 -134 143t-44 154q0 110 72 181t197 85
q-84 68 -124 136t-40 142q0 129 100 209t264 80q145 0 234.5 -63t89.5 -164q0 -65 -44.5 -108.5t-113.5 -43.5q-52 0 -87.5 32t-35.5 79q0 26 28 72.5t28 68.5q0 27 -29 46.5t-72 19.5q-60 0 -99.5 -38t-39.5 -95q0 -54 48.5 -114t168.5 -153l186 -145q92 -70 137.5 -144.5
t45.5 -154.5q0 -110 -72 -181.5t-197 -84.5z" />
    <glyph glyph-name="dieresis" unicode="&#xa8;" 
d="M563 1321q0 57 42.5 99t101.5 42t101 -41t42 -100q0 -63 -41 -104t-102 -41t-102.5 42t-41.5 103zM172 1321q0 57 43.5 99t101.5 42q60 0 101 -41t41 -100q0 -63 -40 -104t-102 -41q-60 0 -102.5 42t-42.5 103z" />
    <glyph glyph-name="copyright" unicode="&#xa9;" horiz-adv-x="1683" 
d="M1128 1104h50v-330h-52q-29 130 -98 201.5t-164 71.5q-112 0 -167.5 -91t-55.5 -272q0 -182 61 -278.5t177 -96.5q76 0 143.5 44.5t124.5 131.5l51 -32q-64 -108 -152 -162.5t-198 -54.5q-192 0 -318.5 122t-126.5 306q0 194 122.5 319t312.5 125q82 0 157.5 -33
t79.5 -33q22 0 33.5 13.5t19.5 48.5zM844 1311q-126 0 -242.5 -49t-204.5 -138q-89 -91 -136.5 -206t-47.5 -240q0 -130 47 -244t137 -203q93 -91 205.5 -137.5t239.5 -46.5t240.5 47.5t201.5 136.5q89 91 137.5 207.5t48.5 239.5q0 126 -48.5 244.5t-135.5 203.5
q-89 88 -205 136.5t-237 48.5zM844 1423q144 0 280.5 -56.5t241.5 -160.5q104 -104 161.5 -242.5t57.5 -285.5q0 -146 -56.5 -281.5t-162.5 -242.5q-105 -106 -240 -161.5t-284 -55.5t-283 55.5t-242 161.5q-106 104 -162.5 239t-56.5 285q0 149 55.5 283t161.5 241
q105 106 242.5 163.5t286.5 57.5z" />
    <glyph glyph-name="ordfeminine" unicode="&#xaa;" horiz-adv-x="903" 
d="M496 1141q-68 -25 -104 -79.5t-36 -133.5q0 -45 19 -72t51 -27q40 0 55 30t15 149v133zM508 817q-56 -60 -119 -90.5t-133 -30.5q-91 0 -149 49t-58 125q0 91 88 157.5t359 164.5v49q0 79 -22 113.5t-71 34.5q-40 0 -66 -22.5t-26 -55.5q0 -18 1 -41.5t1 -28.5
q0 -52 -30 -83.5t-80 -31.5q-46 0 -73.5 27t-27.5 72q0 95 96 158t248 63q86 0 156 -21t115 -59q35 -32 50 -74t15 -127v-198q0 -82 13.5 -118t44.5 -36q7 0 13.5 3t14.5 9v-47q-30 -35 -77.5 -54t-104.5 -19q-67 0 -111.5 28t-66.5 84z" />
    <glyph glyph-name="guillemotleft" unicode="&#xab;" horiz-adv-x="1071" 
d="M846 928h166l-189 -439l189 -436h-166l-332 436zM406 928h163l-186 -439l186 -436h-163l-334 436z" />
    <glyph glyph-name="logicalnot" unicode="&#xac;" horiz-adv-x="1706" 
d="M254 866h1198v-501h-229v274h-969v227z" />
    <glyph glyph-name="sfthyphen" unicode="&#xad;" horiz-adv-x="729" 
d="M117 420v166h497v-166h-497z" />
    <glyph glyph-name="registered" unicode="&#xae;" horiz-adv-x="1683" 
d="M772 728q8 -2 16 -2.5t23 -0.5q85 0 127.5 43.5t42.5 130.5q0 62 -38.5 103.5t-98.5 41.5q-37 0 -54.5 -15.5t-17.5 -47.5v-253zM463 1100h405q147 0 236.5 -56t89.5 -145q0 -87 -64.5 -136.5t-211.5 -74.5q116 -23 172.5 -87.5t56.5 -172.5q0 -48 10 -68t33 -20
q25 0 39 31t14 88v12h55q0 -5 1 -15t1 -14q0 -90 -47 -135t-141 -45q-45 0 -80 13t-55 36q-32 37 -36 134q-2 43 -5 65q-13 87 -47.5 124.5t-100.5 37.5h-16v-244q0 -45 18 -63.5t70 -26.5v-57h-397v57q57 5 77.5 24t20.5 66v524q0 47 -19 65.5t-79 26.5v56zM844 1311
q-127 0 -244.5 -49t-204.5 -138q-88 -90 -135 -204.5t-47 -241.5q0 -130 47 -244t137 -203q93 -91 205.5 -137.5t239.5 -46.5t240.5 47.5t201.5 136.5q89 91 137.5 207.5t48.5 239.5q0 125 -49 243.5t-137 204.5q-89 88 -204 136.5t-236 48.5zM844 1423q150 0 291 -60
t245 -169q99 -102 152 -240t53 -292q0 -141 -63 -280.5t-176 -246.5q-102 -97 -232 -149t-272 -52q-109 0 -212.5 31.5t-197.5 91.5q-159 107 -246.5 269.5t-87.5 351.5q0 149 56 284t161 240q105 106 242.5 163.5t286.5 57.5z" />
    <glyph glyph-name="macron" unicode="&#xaf;" 
d="M205 1235v168h614v-168h-614z" />
    <glyph glyph-name="degree" unicode="&#xb0;" horiz-adv-x="674" 
d="M338 1321q-69 0 -117.5 -48t-48.5 -116q0 -70 48 -118t118 -48q68 0 116 49t48 117t-48 116t-116 48zM338 1466q129 0 220 -91t91 -220q0 -128 -91.5 -219.5t-221.5 -91.5q-129 0 -219 90.5t-90 220.5q0 131 90.5 221t220.5 90z" />
    <glyph glyph-name="plusminus" unicode="&#xb1;" horiz-adv-x="1706" 
d="M254 213h1198v-231h-1198v231zM735 1241h238v-319h479v-232h-479v-319h-238v319h-481v232h481v319z" />
    <glyph glyph-name="twosuperior" unicode="&#xb2;" horiz-adv-x="817" 
d="M6 565v23q174 126 270.5 258t96.5 244q0 83 -48 134.5t-124 51.5q-45 0 -82.5 -21.5t-75.5 -68.5l-33 12q57 118 150 180t215 62q130 0 215.5 -74t85.5 -184q0 -81 -57 -153t-187 -155l-149 -92h159q126 0 181 20t79 70l29 -8l-110 -299h-615z" />
    <glyph glyph-name="threesuperior" unicode="&#xb3;" horiz-adv-x="885" 
d="M285 1022h8q85 0 131.5 36.5t46.5 102.5q0 62 -42 99.5t-110 37.5q-45 0 -81.5 -17t-65.5 -52l-31 22q60 91 151 139t202 48q131 0 212.5 -58.5t81.5 -150.5q0 -60 -37.5 -104t-111.5 -72q95 -34 142.5 -89.5t47.5 -132.5q0 -130 -121.5 -211t-320.5 -81q-76 0 -139 14
t-115 43q-55 29 -87 70t-32 84q0 42 30.5 70t76.5 28q24 0 44 -7.5t36 -21.5q24 -24 34 -80q3 -15 5 -23q21 -75 53 -104.5t88 -29.5q67 0 109 48t42 126q0 103 -65.5 163.5t-181.5 63.5v39z" />
    <glyph glyph-name="acute" unicode="&#xb4;" 
d="M299 1135l279 297q48 51 83.5 72.5t71.5 21.5q47 0 79 -31.5t32 -77.5q0 -35 -24 -62.5t-81 -56.5l-325 -163h-115z" />
    <glyph glyph-name="mu" unicode="&#xb5;" horiz-adv-x="1233" 
d="M219 190q-12 -89 -27 -239q-40 -377 -163 -377q-57 0 -92 34.5t-35 88.5q0 56 69 281t105 397l108 510h293l-106 -498q-10 -43 -15.5 -75t-5.5 -50q0 -54 28 -86.5t75 -32.5q62 0 104 55t68 171l110 516h291l-111 -525q-6 -26 -9 -49t-3 -43q0 -43 19.5 -67.5t54.5 -24.5
q26 0 49.5 13.5t40.5 37.5q10 14 25 42q35 63 65 63q11 0 20 -12t9 -27q0 -30 -21 -87t-53 -104q-41 -62 -95.5 -92t-125.5 -30q-90 0 -136.5 47.5t-54.5 146.5q-36 -97 -98.5 -145.5t-150.5 -48.5q-101 0 -161 54.5t-71 155.5z" />
    <glyph glyph-name="paragraph" unicode="&#xb6;" 
d="M997 1479v-123h-106v-1356h-176v1356h-150v-1356h-174v784q-164 6 -263 101t-99 245q0 158 106 253.5t283 95.5h579z" />
    <glyph glyph-name="glyph121" unicode="&#xb7;" horiz-adv-x="735" 
d="M180 707q0 77 54.5 131.5t132.5 54.5t133 -54t55 -132q0 -79 -55 -134t-133 -55t-132.5 55t-54.5 134z" />
    <glyph glyph-name="cedilla" unicode="&#xb8;" 
d="M250 -395l47 100q65 -38 126 -57t118 -19q35 0 57.5 21t22.5 55q0 40 -23 61t-68 21q-14 0 -30.5 -2t-32.5 -6v221h88v-133q19 3 35.5 4.5t32.5 1.5q86 0 136 -45.5t50 -124.5q0 -84 -60 -136t-157 -52q-68 0 -144 19t-198 71z" />
    <glyph glyph-name="onesuperior" unicode="&#xb9;" horiz-adv-x="604" 
d="M186 1104q0 57 -126 132q-12 7 -19 11q89 37 188 84.5t211 108.5v-754q0 -46 19 -66t63 -20h8v-35h-432v35h6q45 0 63.5 19.5t18.5 66.5v418z" />
    <glyph glyph-name="ordmasculine" unicode="&#xba;" horiz-adv-x="961" 
d="M479 750q68 0 94.5 61t26.5 260q0 198 -26 259t-95 61q-67 0 -93 -57.5t-26 -262.5t26 -263t93 -58zM479 696q-196 0 -316 103t-120 272q0 168 119.5 270.5t316.5 102.5q198 0 318.5 -102.5t120.5 -270.5q0 -167 -121 -271t-318 -104z" />
    <glyph glyph-name="guillemotright" unicode="&#xbb;" horiz-adv-x="1071" 
d="M666 53h-164l186 436l-186 439h164l331 -439zM223 53h-164l189 436l-189 439h164l334 -439z" />
    <glyph glyph-name="onequarter" unicode="&#xbc;" horiz-adv-x="1735" 
d="M1321 256v270l-281 -247l7 -23h274zM1571 115q0 -45 17.5 -63.5t60.5 -18.5h8v-33h-422v33h8q42 0 60 19t18 63v73h-363l-26 64l631 557q3 3 5.5 4.5t4.5 1.5q4 0 7 -2.5t3 -5.5q0 -1 -1 -5q-11 -37 -11 -91v-455h129l-17 -68h-112v-73zM236 -43l927 1499h97l-926 -1499
h-98zM178 1124q0 53 -116 121l-21 12q80 33 172.5 76.5t206.5 102.5v-703q0 -43 17.5 -61.5t60.5 -18.5h8v-32h-414v32h8q43 0 60.5 18.5t17.5 61.5v391z" />
    <glyph glyph-name="onehalf" unicode="&#xbd;" horiz-adv-x="1698" 
d="M926 0v23q167 118 258.5 240.5t91.5 225.5q0 78 -45.5 126.5t-118.5 48.5q-43 0 -79 -20t-72 -64l-33 10q55 110 144 167.5t206 57.5q124 0 205.5 -68.5t81.5 -171.5q0 -75 -53 -141.5t-179 -144.5l-143 -86h153q119 0 172 19t76 65l27 -8l-107 -279h-585zM236 -43
l927 1499h97l-926 -1499h-98zM178 1124q0 53 -116 121l-21 12q80 33 172.5 76.5t206.5 102.5v-703q0 -43 17.5 -61.5t60.5 -18.5h8v-32h-414v32h8q43 0 60.5 18.5t17.5 61.5v391z" />
    <glyph glyph-name="threequarters" unicode="&#xbe;" horiz-adv-x="2003" 
d="M1589 256v270l-280 -247l6 -23h274zM1839 115q0 -45 17.5 -63.5t60.5 -18.5h8v-33h-422v33h8q42 0 60 19t18 63v73h-362l-27 64l631 557q2 2 5.5 4t4.5 2q4 0 7 -2.5t3 -5.5q0 -1 -1 -5q-11 -38 -11 -91v-455h129l-16 -68h-113v-73zM504 -43l928 1499h96l-926 -1499h-98z
M272 1047h9q81 0 124.5 33.5t43.5 97.5q0 57 -39.5 92t-104.5 35q-45 0 -79.5 -16t-61.5 -50l-29 21q57 85 143.5 130.5t192.5 45.5q125 0 204 -55.5t79 -141.5q0 -55 -37 -96.5t-109 -67.5q91 -30 137 -82t46 -125q0 -121 -116 -196.5t-304 -75.5q-74 0 -134.5 13
t-109.5 40q-53 28 -84 66.5t-31 77.5t29.5 65.5t73.5 26.5q23 0 42.5 -7.5t32.5 -21.5q25 -23 35 -74q3 -14 4 -20q20 -70 50.5 -97.5t85.5 -27.5q63 0 103 45t40 117q0 97 -63 153t-172 58z" />
    <glyph glyph-name="questiondown" unicode="&#xbf;" horiz-adv-x="1319" 
d="M948 1253q0 -83 -58 -140.5t-142 -57.5q-83 0 -141 57.5t-58 140.5q0 86 57.5 144.5t141.5 58.5t142 -59t58 -144zM817 956q5 -31 7.5 -64t2.5 -67q0 -74 -20 -132.5t-62 -104.5q-33 -37 -101 -100t-87 -95q-23 -36 -34 -73t-11 -76q0 -93 57 -149t152 -56
q107 0 169 56.5t62 154.5q0 18 -3 46t-3 38q0 84 40.5 134t107.5 50q62 0 100.5 -45.5t38.5 -120.5q0 -173 -157 -284t-410 -111q-265 0 -417.5 109.5t-152.5 298.5q0 67 28 126t79 101q75 61 266 101q63 13 96 22q102 27 141 66t39 110q0 13 -1.5 29.5t-4.5 35.5h78z" />
    <glyph glyph-name="Agrave" unicode="&#xc0;" horiz-adv-x="1389" 
d="M330 551h344l-170 493zM-92 0v57q88 6 140.5 54.5t96.5 171.5l316 868q-16 40 -40 70.5t-59 54.5q102 20 217.5 81t239.5 161l428 -1239q3 -9 9 -26q68 -194 178 -196v-57h-787v57h17q65 0 98 24.5t33 74.5q0 16 -4 36t-13 46l-80 235h-397l-65 -192q-9 -26 -14 -52.5
t-5 -48.5q0 -58 34.5 -88.5t102.5 -34.5v-57h-446zM891 1567h-115l-325 163q-57 29 -81 56.5t-24 62.5q0 46 32 77.5t79 31.5q36 0 71.5 -21.5t83.5 -72.5z" />
    <glyph glyph-name="Aacute" unicode="&#xc1;" horiz-adv-x="1389" 
d="M330 551h344l-170 493zM-92 0v57q88 6 140.5 54.5t96.5 171.5l316 868q-16 40 -40 70.5t-59 54.5q102 20 217.5 81t239.5 161l428 -1239q3 -9 9 -26q68 -194 178 -196v-57h-787v57h17q65 0 98 24.5t33 74.5q0 16 -4 36t-13 46l-80 235h-397l-65 -192q-9 -26 -14 -52.5
t-5 -48.5q0 -58 34.5 -88.5t102.5 -34.5v-57h-446zM465 1567l279 297q48 51 83.5 72.5t71.5 21.5q47 0 79 -31.5t32 -77.5q0 -35 -24 -62.5t-81 -56.5l-325 -163h-115z" />
    <glyph glyph-name="Acircumflex" unicode="&#xc2;" horiz-adv-x="1389" 
d="M330 551h344l-170 493zM-92 0v57q88 6 140.5 54.5t96.5 171.5l316 868q-16 40 -40 70.5t-59 54.5q102 20 217.5 81t239.5 161l428 -1239q3 -9 9 -26q68 -194 178 -196v-57h-787v57h17q65 0 98 24.5t33 74.5q0 16 -4 36t-13 46l-80 235h-397l-65 -192q-9 -26 -14 -52.5
t-5 -48.5q0 -58 34.5 -88.5t102.5 -34.5v-57h-446zM356 1567l230 370h184l230 -370h-101l-221 170l-221 -170h-101z" />
    <glyph glyph-name="Atilde" unicode="&#xc3;" horiz-adv-x="1389" 
d="M330 551h344l-170 493zM-92 0v57q88 6 140.5 54.5t96.5 171.5l316 868q-16 40 -40 70.5t-59 54.5q102 20 217.5 81t239.5 161l428 -1239q3 -9 9 -26q68 -194 178 -196v-57h-787v57h17q65 0 98 24.5t33 74.5q0 16 -4 36t-13 46l-80 235h-397l-65 -192q-9 -26 -14 -52.5
t-5 -48.5q0 -58 34.5 -88.5t102.5 -34.5v-57h-446zM434 1597h-84q27 136 84 201.5t148 65.5q18 0 36.5 -3t41.5 -10l120 -30q4 -1 11 -3q25 -6 34 -6q38 0 60 21.5t37 71.5h82q-26 -131 -84 -199t-144 -68q-14 0 -30.5 2.5t-39.5 8.5l-116 32q-24 6 -36.5 8.5t-20.5 2.5
q-40 0 -64.5 -24t-34.5 -71z" />
    <glyph glyph-name="Adieresis" unicode="&#xc4;" horiz-adv-x="1389" 
d="M330 551h344l-170 493zM-92 0v57q88 6 140.5 54.5t96.5 171.5l316 868q-16 40 -40 70.5t-59 54.5q102 20 217.5 81t239.5 161l428 -1239q3 -9 9 -26q68 -194 178 -196v-57h-787v57h17q65 0 98 24.5t33 74.5q0 16 -4 36t-13 46l-80 235h-397l-65 -192q-9 -26 -14 -52.5
t-5 -48.5q0 -58 34.5 -88.5t102.5 -34.5v-57h-446zM729 1753q0 57 42.5 99t101.5 42t101 -41t42 -100q0 -63 -41 -104t-102 -41t-102.5 42t-41.5 103zM338 1753q0 57 43.5 99t101.5 42q60 0 101 -41t41 -100q0 -63 -40 -104t-102 -41q-60 0 -102.5 42t-42.5 103z" />
    <glyph glyph-name="Aring" unicode="&#xc5;" horiz-adv-x="1389" 
d="M524 1712q0 -51 34 -85t85 -34t85 34t34 85q0 50 -34.5 84.5t-84.5 34.5t-84.5 -34.5t-34.5 -84.5zM383 1712q0 109 75.5 184.5t184.5 75.5t184.5 -75.5t75.5 -184.5q0 -110 -75 -185t-185 -75t-185 75t-75 185zM330 551h344l-170 493zM-92 0v57q88 6 140.5 54.5
t96.5 171.5l316 868q-16 40 -40 70.5t-59 54.5q97 20 215 64t261 114l409 -1175q3 -9 9 -26q68 -194 178 -196v-57h-787v57h17q65 0 98 24.5t33 74.5q0 16 -4 36t-13 46l-80 235h-397l-65 -192q-9 -26 -14 -52.5t-5 -48.5q0 -58 34.5 -88.5t102.5 -34.5v-57h-446z" />
    <glyph glyph-name="AE" unicode="&#xc6;" horiz-adv-x="1972" 
d="M578 825h247v363zM670 0v57q90 6 122.5 42.5t32.5 133.5v527h-290l-252 -375q-53 -77 -79 -133.5t-26 -93.5q0 -48 33 -74.5t94 -26.5h14v-57h-516v57q95 11 179 79t196 233l709 1044h653q74 0 123 13t76 40q22 -112 51 -206t65 -168l-57 -23q-87 137 -193 196.5
t-259 59.5h-82v-502q149 2 219 43.5t78 132.5h59v-450h-59q-10 108 -76.5 157.5t-202.5 49.5h-18v-426q0 -150 38 -199t138 -49q136 0 257.5 93.5t192.5 254.5l56 -24l-140 -406h-1136z" />
    <glyph glyph-name="Ccedilla" unicode="&#xc7;" horiz-adv-x="1464" 
d="M1372 82q-134 -62 -264 -93.5t-252 -31.5q-97 0 -189 20t-173 58q-212 101 -319 266t-107 389q0 170 65 315.5t189 251.5q114 99 254.5 150t297.5 51q129 0 248 -30.5t221 -90.5v-415h-53q-40 212 -156 334t-276 122q-170 0 -246.5 -153t-76.5 -496q0 -381 75.5 -535.5
t253.5 -154.5q171 0 298.5 137t164.5 365h45v-459zM559 -395l47 100q65 -38 126 -57t118 -19q35 0 57.5 21t22.5 55q0 40 -23 61t-68 21q-14 0 -30.5 -2t-32.5 -6v221h88v-133q19 3 35.5 4.5t32.5 1.5q86 0 136 -45.5t50 -124.5q0 -84 -60 -136t-157 -52q-68 0 -144 19
t-198 71z" />
    <glyph glyph-name="Egrave" unicode="&#xc8;" horiz-adv-x="1403" 
d="M61 0v57q94 6 127 42t33 134v947q0 98 -33 134t-127 42v57h897q77 0 127.5 13t77.5 40q26 -121 55 -213t64 -161l-59 -23q-89 136 -198.5 196t-268.5 60h-84v-501q156 1 228.5 42.5t78.5 132.5h61v-450h-61q-9 106 -78.5 156.5t-210.5 50.5h-18v-426q0 -149 39.5 -198.5
t142.5 -49.5q140 0 266 94t199 254l57 -24l-143 -406h-1172zM872 1567h-115l-325 163q-57 29 -81 56.5t-24 62.5q0 46 32 77.5t79 31.5q36 0 71.5 -21.5t83.5 -72.5z" />
    <glyph glyph-name="Eacute" unicode="&#xc9;" horiz-adv-x="1403" 
d="M61 0v57q94 6 127 42t33 134v947q0 98 -33 134t-127 42v57h897q77 0 127.5 13t77.5 40q26 -121 55 -213t64 -161l-59 -23q-89 136 -198.5 196t-268.5 60h-84v-501q156 1 228.5 42.5t78.5 132.5h61v-450h-61q-9 106 -78.5 156.5t-210.5 50.5h-18v-426q0 -149 39.5 -198.5
t142.5 -49.5q140 0 266 94t199 254l57 -24l-143 -406h-1172zM446 1567l279 297q48 51 83.5 72.5t71.5 21.5q47 0 79 -31.5t32 -77.5q0 -35 -24 -62.5t-81 -56.5l-325 -163h-115z" />
    <glyph glyph-name="Ecircumflex" unicode="&#xca;" horiz-adv-x="1403" 
d="M61 0v57q94 6 127 42t33 134v947q0 98 -33 134t-127 42v57h897q77 0 127.5 13t77.5 40q26 -121 55 -213t64 -161l-59 -23q-89 136 -198.5 196t-268.5 60h-84v-501q156 1 228.5 42.5t78.5 132.5h61v-450h-61q-9 106 -78.5 156.5t-210.5 50.5h-18v-426q0 -149 39.5 -198.5
t142.5 -49.5q140 0 266 94t199 254l57 -24l-143 -406h-1172zM337 1567l230 370h184l230 -370h-101l-221 170l-221 -170h-101z" />
    <glyph glyph-name="Edieresis" unicode="&#xcb;" horiz-adv-x="1403" 
d="M61 0v57q94 6 127 42t33 134v947q0 98 -33 134t-127 42v57h897q77 0 127.5 13t77.5 40q26 -121 55 -213t64 -161l-59 -23q-89 136 -198.5 196t-268.5 60h-84v-501q156 1 228.5 42.5t78.5 132.5h61v-450h-61q-9 106 -78.5 156.5t-210.5 50.5h-18v-426q0 -149 39.5 -198.5
t142.5 -49.5q140 0 266 94t199 254l57 -24l-143 -406h-1172zM710 1753q0 57 42.5 99t101.5 42t101 -41t42 -100q0 -63 -41 -104t-102 -41t-102.5 42t-41.5 103zM319 1753q0 57 43.5 99t101.5 42q60 0 101 -41t41 -100q0 -63 -40 -104t-102 -41q-60 0 -102.5 42t-42.5 103z
" />
    <glyph glyph-name="Igrave" unicode="&#xcc;" horiz-adv-x="901" 
d="M836 1413v-57q-94 -6 -127 -42t-33 -134v-947q0 -98 33 -134t127 -42v-57h-770v57q93 6 126 42t33 134v947q0 98 -33 134t-126 42v57h770zM664 1567h-115l-325 163q-57 29 -81 56.5t-24 62.5q0 46 32 77.5t79 31.5q36 0 71.5 -21.5t83.5 -72.5z" />
    <glyph glyph-name="Iacute" unicode="&#xcd;" horiz-adv-x="901" 
d="M836 1413v-57q-94 -6 -127 -42t-33 -134v-947q0 -98 33 -134t127 -42v-57h-770v57q93 6 126 42t33 134v947q0 98 -33 134t-126 42v57h770zM238 1567l279 297q48 51 83.5 72.5t71.5 21.5q47 0 79 -31.5t32 -77.5q0 -35 -24 -62.5t-81 -56.5l-325 -163h-115z" />
    <glyph glyph-name="Icircumflex" unicode="&#xce;" horiz-adv-x="901" 
d="M836 1413v-57q-94 -6 -127 -42t-33 -134v-947q0 -98 33 -134t127 -42v-57h-770v57q93 6 126 42t33 134v947q0 98 -33 134t-126 42v57h770zM129 1567l230 370h184l230 -370h-101l-221 170l-221 -170h-101z" />
    <glyph glyph-name="Idieresis" unicode="&#xcf;" horiz-adv-x="901" 
d="M836 1413v-57q-94 -6 -127 -42t-33 -134v-947q0 -98 33 -134t127 -42v-57h-770v57q93 6 126 42t33 134v947q0 98 -33 134t-126 42v57h770zM502 1753q0 57 42.5 99t101.5 42t101 -41t42 -100q0 -63 -41 -104t-102 -41t-102.5 42t-41.5 103zM111 1753q0 57 43.5 99
t101.5 42q60 0 101 -41t41 -100q0 -63 -40 -104t-102 -41q-60 0 -102.5 42t-42.5 103z" />
    <glyph glyph-name="Eth" unicode="&#xd0;" horiz-adv-x="1602" 
d="M662 758v-416q0 -155 34 -207.5t119 -52.5q127 0 192.5 152t65.5 446q0 331 -87.5 490t-268.5 159q-10 0 -21 -0.5t-34 -3.5v-485h212v-82h-212zM51 0v57q94 6 127 42t33 134v525h-211v82h211v340q0 98 -33 134t-127 42v57h649q209 0 332 -31.5t221 -103.5
q139 -100 212 -248.5t73 -331.5q0 -327 -195.5 -512.5t-541.5 -185.5h-750z" />
    <glyph glyph-name="Ntilde" unicode="&#xd1;" horiz-adv-x="1384" 
d="M281 319q0 -143 37.5 -197.5t136.5 -64.5v-57h-424v57q98 10 136 64.5t38 197.5v930q-43 49 -95.5 75.5t-115.5 31.5v57h635l510 -919v598q0 144 -38 199t-136 65v57h424v-57q-99 -10 -137 -65t-38 -199v-1092h-303l-630 1135v-816zM448 1597h-84q27 136 84 201.5
t148 65.5q18 0 36.5 -3t41.5 -10l120 -30q4 -1 11 -3q25 -6 34 -6q38 0 60 21.5t37 71.5h82q-26 -131 -84 -199t-144 -68q-14 0 -30.5 2.5t-39.5 8.5l-116 32q-24 6 -36.5 8.5t-20.5 2.5q-40 0 -64.5 -24t-34.5 -71z" />
    <glyph glyph-name="Ograve" unicode="&#xd2;" horiz-adv-x="1651" 
d="M825 -41q-157 0 -287.5 48t-234.5 145q-114 104 -173.5 246.5t-59.5 308.5q0 167 60 310t175 249q102 94 233.5 142t286.5 48q159 0 290.5 -47.5t234.5 -142.5q115 -108 175 -251t60 -308q0 -166 -59.5 -307.5t-173.5 -247.5q-104 -97 -235.5 -145t-291.5 -48zM819 35
q77 0 132.5 31t90.5 94q33 61 47.5 182t14.5 367q0 419 -61 545t-224 126q-162 0 -223 -124.5t-61 -546.5q0 -247 14 -368.5t47 -180.5q36 -63 92 -94t131 -31zM1038 1567h-115l-325 163q-57 29 -81 56.5t-24 62.5q0 46 32 77.5t79 31.5q36 0 71.5 -21.5t83.5 -72.5z" />
    <glyph glyph-name="Oacute" unicode="&#xd3;" horiz-adv-x="1651" 
d="M825 -41q-157 0 -287.5 48t-234.5 145q-114 104 -173.5 246.5t-59.5 308.5q0 167 60 310t175 249q102 94 233.5 142t286.5 48q159 0 290.5 -47.5t234.5 -142.5q115 -108 175 -251t60 -308q0 -166 -59.5 -307.5t-173.5 -247.5q-104 -97 -235.5 -145t-291.5 -48zM819 35
q77 0 132.5 31t90.5 94q33 61 47.5 182t14.5 367q0 419 -61 545t-224 126q-162 0 -223 -124.5t-61 -546.5q0 -247 14 -368.5t47 -180.5q36 -63 92 -94t131 -31zM612 1567l279 297q48 51 83.5 72.5t71.5 21.5q47 0 79 -31.5t32 -77.5q0 -35 -24 -62.5t-81 -56.5l-325 -163
h-115z" />
    <glyph glyph-name="Ocircumflex" unicode="&#xd4;" horiz-adv-x="1651" 
d="M825 -41q-157 0 -287.5 48t-234.5 145q-114 104 -173.5 246.5t-59.5 308.5q0 167 60 310t175 249q102 94 233.5 142t286.5 48q159 0 290.5 -47.5t234.5 -142.5q115 -108 175 -251t60 -308q0 -166 -59.5 -307.5t-173.5 -247.5q-104 -97 -235.5 -145t-291.5 -48zM819 35
q77 0 132.5 31t90.5 94q33 61 47.5 182t14.5 367q0 419 -61 545t-224 126q-162 0 -223 -124.5t-61 -546.5q0 -247 14 -368.5t47 -180.5q36 -63 92 -94t131 -31zM503 1567l230 370h184l230 -370h-101l-221 170l-221 -170h-101z" />
    <glyph glyph-name="Otilde" unicode="&#xd5;" horiz-adv-x="1651" 
d="M825 -41q-157 0 -287.5 48t-234.5 145q-114 104 -173.5 246.5t-59.5 308.5q0 167 60 310t175 249q102 94 233.5 142t286.5 48q159 0 290.5 -47.5t234.5 -142.5q115 -108 175 -251t60 -308q0 -166 -59.5 -307.5t-173.5 -247.5q-104 -97 -235.5 -145t-291.5 -48zM819 35
q77 0 132.5 31t90.5 94q33 61 47.5 182t14.5 367q0 419 -61 545t-224 126q-162 0 -223 -124.5t-61 -546.5q0 -247 14 -368.5t47 -180.5q36 -63 92 -94t131 -31zM581 1597h-84q27 136 84 201.5t148 65.5q18 0 36.5 -3t41.5 -10l120 -30q4 -1 11 -3q25 -6 34 -6q38 0 60 21.5
t37 71.5h82q-26 -131 -84 -199t-144 -68q-14 0 -30.5 2.5t-39.5 8.5l-116 32q-24 6 -36.5 8.5t-20.5 2.5q-40 0 -64.5 -24t-34.5 -71z" />
    <glyph glyph-name="Odieresis" unicode="&#xd6;" horiz-adv-x="1651" 
d="M825 -41q-157 0 -287.5 48t-234.5 145q-114 104 -173.5 246.5t-59.5 308.5q0 167 60 310t175 249q102 94 233.5 142t286.5 48q159 0 290.5 -47.5t234.5 -142.5q115 -108 175 -251t60 -308q0 -166 -59.5 -307.5t-173.5 -247.5q-104 -97 -235.5 -145t-291.5 -48zM819 35
q77 0 132.5 31t90.5 94q33 61 47.5 182t14.5 367q0 419 -61 545t-224 126q-162 0 -223 -124.5t-61 -546.5q0 -247 14 -368.5t47 -180.5q36 -63 92 -94t131 -31zM876 1753q0 57 42.5 99t101.5 42t101 -41t42 -100q0 -63 -41 -104t-102 -41t-102.5 42t-41.5 103zM485 1753
q0 57 43.5 99t101.5 42q60 0 101 -41t41 -100q0 -63 -40 -104t-102 -41q-60 0 -102.5 42t-42.5 103z" />
    <glyph glyph-name="multiply" unicode="&#xd7;" horiz-adv-x="1706" 
d="M430 1214l440 -440l441 440l162 -161l-441 -443l441 -440l-162 -162l-441 441l-440 -441l-162 162l441 440l-441 443z" />
    <glyph glyph-name="Oslash" unicode="&#xd8;" horiz-adv-x="1651" 
d="M1073 1176l-450 -1059q35 -41 84 -61.5t112 -20.5q77 0 132.5 31t90.5 94q34 62 48 187t14 403q0 150 -7.5 249.5t-23.5 176.5zM582 182l458 1082q-34 59 -88 87.5t-133 28.5q-162 0 -223 -126.5t-61 -544.5q0 -224 10.5 -339t36.5 -188zM373 -299l135 317
q-210 94 -324 273.5t-114 415.5q0 166 60 309.5t175 249.5q103 95 236 142.5t295 47.5q68 0 134.5 -10.5t133.5 -32.5l100 238h72l-113 -262q199 -91 310.5 -271t111.5 -411q0 -166 -60 -309t-175 -248q-102 -95 -235 -143t-292 -48q-63 0 -126 9t-126 28l-125 -295h-73z
" />
    <glyph glyph-name="Ugrave" unicode="&#xd9;" horiz-adv-x="1497" 
d="M103 1356l-1 57h740v-57q-86 -14 -116.5 -46t-37.5 -131l-45 -587q-6 -77 -8 -110t-2 -52q0 -146 77 -221.5t226 -75.5q161 0 242.5 83.5t81.5 248.5q0 24 -0.5 36t-2.5 24l-47 581q-11 139 -52 191t-136 59v57h373v-57q-64 -21 -87.5 -52.5t-23.5 -99.5q0 -14 2 -54
q2 -21 2 -32l43 -575l3 -36q5 -69 5 -95q0 -216 -147.5 -335.5t-415.5 -119.5q-291 0 -446.5 127t-155.5 365q0 38 1 59t3 39l56 607q1 8 1.5 18t0.5 28q0 77 -32 114t-101 42zM1022 1567h-115l-325 163q-57 29 -81 56.5t-24 62.5q0 46 32 77.5t79 31.5q36 0 71.5 -21.5
t83.5 -72.5z" />
    <glyph glyph-name="Uacute" unicode="&#xda;" horiz-adv-x="1497" 
d="M103 1356l-1 57h740v-57q-86 -14 -116.5 -46t-37.5 -131l-45 -587q-6 -77 -8 -110t-2 -52q0 -146 77 -221.5t226 -75.5q161 0 242.5 83.5t81.5 248.5q0 24 -0.5 36t-2.5 24l-47 581q-11 139 -52 191t-136 59v57h373v-57q-64 -21 -87.5 -52.5t-23.5 -99.5q0 -14 2 -54
q2 -21 2 -32l43 -575l3 -36q5 -69 5 -95q0 -216 -147.5 -335.5t-415.5 -119.5q-291 0 -446.5 127t-155.5 365q0 38 1 59t3 39l56 607q1 8 1.5 18t0.5 28q0 77 -32 114t-101 42zM596 1567l279 297q48 51 83.5 72.5t71.5 21.5q47 0 79 -31.5t32 -77.5q0 -35 -24 -62.5
t-81 -56.5l-325 -163h-115z" />
    <glyph glyph-name="Ucircumflex" unicode="&#xdb;" horiz-adv-x="1497" 
d="M103 1356l-1 57h740v-57q-86 -14 -116.5 -46t-37.5 -131l-45 -587q-6 -77 -8 -110t-2 -52q0 -146 77 -221.5t226 -75.5q161 0 242.5 83.5t81.5 248.5q0 24 -0.5 36t-2.5 24l-47 581q-11 139 -52 191t-136 59v57h373v-57q-64 -21 -87.5 -52.5t-23.5 -99.5q0 -14 2 -54
q2 -21 2 -32l43 -575l3 -36q5 -69 5 -95q0 -216 -147.5 -335.5t-415.5 -119.5q-291 0 -446.5 127t-155.5 365q0 38 1 59t3 39l56 607q1 8 1.5 18t0.5 28q0 77 -32 114t-101 42zM487 1567l230 370h184l230 -370h-101l-221 170l-221 -170h-101z" />
    <glyph glyph-name="Udieresis" unicode="&#xdc;" horiz-adv-x="1497" 
d="M103 1356l-1 57h740v-57q-86 -14 -116.5 -46t-37.5 -131l-45 -587q-6 -77 -8 -110t-2 -52q0 -146 77 -221.5t226 -75.5q161 0 242.5 83.5t81.5 248.5q0 24 -0.5 36t-2.5 24l-47 581q-11 139 -52 191t-136 59v57h373v-57q-64 -21 -87.5 -52.5t-23.5 -99.5q0 -14 2 -54
q2 -21 2 -32l43 -575l3 -36q5 -69 5 -95q0 -216 -147.5 -335.5t-415.5 -119.5q-291 0 -446.5 127t-155.5 365q0 38 1 59t3 39l56 607q1 8 1.5 18t0.5 28q0 77 -32 114t-101 42zM860 1753q0 57 42.5 99t101.5 42t101 -41t42 -100q0 -63 -41 -104t-102 -41t-102.5 42
t-41.5 103zM469 1753q0 57 43.5 99t101.5 42q60 0 101 -41t41 -100q0 -63 -40 -104t-102 -41q-60 0 -102.5 42t-42.5 103z" />
    <glyph glyph-name="Yacute" unicode="&#xdd;" horiz-adv-x="1255" 
d="M874 233q0 -98 33.5 -134t126.5 -42v-57h-770v57q94 6 127 42t33 134v474l-281 469q-62 104 -113.5 142t-119.5 38h-6v57h835v-57q-62 0 -93.5 -20.5t-31.5 -61.5q0 -22 13 -56.5t39 -78.5l149 -269l139 236q36 59 53 101t17 69q0 36 -23.5 54.5t-76.5 25.5v57h407v-57
q-77 -7 -134 -51.5t-122 -155.5l-201 -340v-576zM416 1567l279 297q48 51 83.5 72.5t71.5 21.5q47 0 79 -31.5t32 -77.5q0 -35 -24 -62.5t-81 -56.5l-325 -163h-115z" />
    <glyph glyph-name="Thorn" unicode="&#xde;" horiz-adv-x="1413" 
d="M676 1042v-653q20 -6 37 -9t32 -3q96 0 152.5 87t56.5 236q0 168 -64 256t-185 88q-6 0 -15 -1t-14 -1zM66 0v57q93 6 126 42t33 134v947q0 98 -33 134t-126 42v57h770v-57q-94 -6 -127 -42t-33 -134v-56h106q155 0 245.5 -17t156.5 -56q95 -57 145.5 -148t50.5 -205
q0 -187 -140.5 -300t-377.5 -113q-35 0 -79 4.5t-107 15.5v-72q0 -98 33 -134t127 -42v-57h-770z" />
    <glyph glyph-name="germandbls" unicode="&#xdf;" horiz-adv-x="1356" 
d="M20 0v57h7q66 0 94.5 33.5t28.5 112.5v452q0 214 18.5 313.5t62.5 174.5q83 138 221.5 213.5t311.5 75.5q188 0 307 -95.5t119 -242.5q0 -94 -53.5 -165.5t-165.5 -127.5q149 -49 227 -145t78 -232q0 -199 -153.5 -326t-397.5 -127q-43 0 -80 4t-72 13l1 69
q32 -5 56 -7.5t44 -2.5q109 0 173 77.5t64 209.5q0 151 -81.5 256.5t-217.5 128.5v65q102 19 155.5 75.5t53.5 146.5q0 107 -75.5 179t-188.5 72q-75 0 -117.5 -30t-42.5 -84q0 -52 60 -114q14 -14 20 -21q24 -28 33.5 -50.5t9.5 -64.5v-12v-881h-500z" />
    <glyph glyph-name="agrave" unicode="&#xe0;" horiz-adv-x="1204" 
d="M659 590q-90 -36 -137 -113.5t-47 -189.5q0 -64 25.5 -102t66.5 -38q53 0 72.5 42t19.5 210v191zM678 129q-76 -87 -159.5 -129.5t-176.5 -42.5q-123 0 -199.5 69.5t-76.5 178.5q0 129 116.5 224.5t476.5 234.5v71q0 112 -28.5 160.5t-93.5 48.5q-53 0 -88 -31.5
t-35 -78.5q0 -25 2 -58.5t2 -42.5q0 -73 -40.5 -117.5t-107.5 -44.5q-61 0 -98 38.5t-37 101.5q0 136 129 225.5t332 89.5q114 0 206.5 -29t151.5 -84q48 -45 68 -105t20 -181v-285q0 -119 18.5 -169t59.5 -50q9 0 18 4t19 12v-65q-40 -51 -103.5 -79t-140.5 -28
q-88 0 -147.5 41t-87.5 121zM838 1135h-115l-325 163q-57 29 -81 56.5t-24 62.5q0 46 32 77.5t79 31.5q36 0 71.5 -21.5t83.5 -72.5z" />
    <glyph glyph-name="aacute" unicode="&#xe1;" horiz-adv-x="1204" 
d="M659 590q-90 -36 -137 -113.5t-47 -189.5q0 -64 25.5 -102t66.5 -38q53 0 72.5 42t19.5 210v191zM678 129q-76 -87 -159.5 -129.5t-176.5 -42.5q-123 0 -199.5 69.5t-76.5 178.5q0 129 116.5 224.5t476.5 234.5v71q0 112 -28.5 160.5t-93.5 48.5q-53 0 -88 -31.5
t-35 -78.5q0 -25 2 -58.5t2 -42.5q0 -73 -40.5 -117.5t-107.5 -44.5q-61 0 -98 38.5t-37 101.5q0 136 129 225.5t332 89.5q114 0 206.5 -29t151.5 -84q48 -45 68 -105t20 -181v-285q0 -119 18.5 -169t59.5 -50q9 0 18 4t19 12v-65q-40 -51 -103.5 -79t-140.5 -28
q-88 0 -147.5 41t-87.5 121zM412 1135l279 297q48 51 83.5 72.5t71.5 21.5q47 0 79 -31.5t32 -77.5q0 -35 -24 -62.5t-81 -56.5l-325 -163h-115z" />
    <glyph glyph-name="acircumflex" unicode="&#xe2;" horiz-adv-x="1204" 
d="M659 590q-90 -36 -137 -113.5t-47 -189.5q0 -64 25.5 -102t66.5 -38q53 0 72.5 42t19.5 210v191zM678 129q-76 -87 -159.5 -129.5t-176.5 -42.5q-123 0 -199.5 69.5t-76.5 178.5q0 129 116.5 224.5t476.5 234.5v71q0 112 -28.5 160.5t-93.5 48.5q-53 0 -88 -31.5
t-35 -78.5q0 -25 2 -58.5t2 -42.5q0 -73 -40.5 -117.5t-107.5 -44.5q-61 0 -98 38.5t-37 101.5q0 136 129 225.5t332 89.5q114 0 206.5 -29t151.5 -84q48 -45 68 -105t20 -181v-285q0 -119 18.5 -169t59.5 -50q9 0 18 4t19 12v-65q-40 -51 -103.5 -79t-140.5 -28
q-88 0 -147.5 41t-87.5 121zM303 1135l230 370h184l230 -370h-101l-221 170l-221 -170h-101z" />
    <glyph glyph-name="atilde" unicode="&#xe3;" horiz-adv-x="1204" 
d="M659 590q-90 -36 -137 -113.5t-47 -189.5q0 -64 25.5 -102t66.5 -38q53 0 72.5 42t19.5 210v191zM678 129q-76 -87 -159.5 -129.5t-176.5 -42.5q-123 0 -199.5 69.5t-76.5 178.5q0 129 116.5 224.5t476.5 234.5v71q0 112 -28.5 160.5t-93.5 48.5q-53 0 -88 -31.5
t-35 -78.5q0 -25 2 -58.5t2 -42.5q0 -73 -40.5 -117.5t-107.5 -44.5q-61 0 -98 38.5t-37 101.5q0 136 129 225.5t332 89.5q114 0 206.5 -29t151.5 -84q48 -45 68 -105t20 -181v-285q0 -119 18.5 -169t59.5 -50q9 0 18 4t19 12v-65q-40 -51 -103.5 -79t-140.5 -28
q-88 0 -147.5 41t-87.5 121zM381 1165h-84q27 136 84 201.5t148 65.5q18 0 36.5 -3t41.5 -10l120 -30q4 -1 11 -3q25 -6 34 -6q38 0 60 21.5t37 71.5h82q-26 -131 -84 -199t-144 -68q-14 0 -30.5 2.5t-39.5 8.5l-116 32q-24 6 -36.5 8.5t-20.5 2.5q-40 0 -64.5 -24
t-34.5 -71z" />
    <glyph glyph-name="adieresis" unicode="&#xe4;" horiz-adv-x="1204" 
d="M659 590q-90 -36 -137 -113.5t-47 -189.5q0 -64 25.5 -102t66.5 -38q53 0 72.5 42t19.5 210v191zM678 129q-76 -87 -159.5 -129.5t-176.5 -42.5q-123 0 -199.5 69.5t-76.5 178.5q0 129 116.5 224.5t476.5 234.5v71q0 112 -28.5 160.5t-93.5 48.5q-53 0 -88 -31.5
t-35 -78.5q0 -25 2 -58.5t2 -42.5q0 -73 -40.5 -117.5t-107.5 -44.5q-61 0 -98 38.5t-37 101.5q0 136 129 225.5t332 89.5q114 0 206.5 -29t151.5 -84q48 -45 68 -105t20 -181v-285q0 -119 18.5 -169t59.5 -50q9 0 18 4t19 12v-65q-40 -51 -103.5 -79t-140.5 -28
q-88 0 -147.5 41t-87.5 121zM676 1321q0 57 42.5 99t101.5 42t101 -41t42 -100q0 -63 -41 -104t-102 -41t-102.5 42t-41.5 103zM285 1321q0 57 43.5 99t101.5 42q60 0 101 -41t41 -100q0 -63 -40 -104t-102 -41q-60 0 -102.5 42t-42.5 103z" />
    <glyph glyph-name="aring" unicode="&#xe5;" horiz-adv-x="1204" 
d="M508 1356q0 -52 35 -86.5t88 -34.5q50 0 85.5 35t35.5 86t-35.5 87t-85.5 36q-52 0 -87.5 -35.5t-35.5 -87.5zM365 1356q0 111 77 188.5t189 77.5q111 0 188.5 -77.5t77.5 -188.5q0 -112 -77 -189t-189 -77t-189 77t-77 189zM659 590q-90 -36 -137 -113.5t-47 -189.5
q0 -64 25.5 -102t66.5 -38q53 0 72.5 42t19.5 210v191zM678 129q-76 -87 -159.5 -129.5t-176.5 -42.5q-123 0 -199.5 69.5t-76.5 178.5q0 129 116.5 224.5t476.5 234.5v71q0 112 -28.5 160.5t-93.5 48.5q-53 0 -88 -31.5t-35 -78.5q0 -25 2 -58.5t2 -42.5
q0 -73 -40.5 -117.5t-107.5 -44.5q-61 0 -98 38.5t-37 101.5q0 136 129 225.5t332 89.5q114 0 206.5 -29t151.5 -84q48 -45 68 -105t20 -181v-285q0 -119 18.5 -169t59.5 -50q9 0 18 4t19 12v-65q-40 -51 -103.5 -79t-140.5 -28q-88 0 -147.5 41t-87.5 121z" />
    <glyph glyph-name="ae" unicode="&#xe6;" horiz-adv-x="1612" 
d="M981 659h90q132 0 162.5 23.5t30.5 89.5q0 88 -31.5 133t-93.5 45q-81 0 -119.5 -70.5t-38.5 -220.5zM1540 166q-82 -102 -188.5 -155.5t-227.5 -53.5q-128 0 -236 61.5t-179 176.5q-73 -115 -170 -176.5t-205 -61.5q-119 0 -193.5 69t-74.5 179q0 129 113 224.5
t462 234.5v71q0 111 -28 160t-91 49q-51 0 -85 -31.5t-34 -78.5q0 -28 2.5 -60.5t2.5 -38.5q0 -73 -40.5 -118.5t-103.5 -45.5q-59 0 -95 38t-36 102q0 137 125 226t324 89q91 0 166 -19t135 -57q57 37 121 56.5t126 19.5q190 0 302 -118.5t112 -319.5h-561q6 -178 113 -296
t258 -118q56 0 101 21t85 65v-94zM641 590q-91 -36 -138.5 -113.5t-47.5 -189.5q0 -65 24.5 -102.5t67.5 -37.5q48 0 71 37.5t23 116.5v289z" />
    <glyph glyph-name="ccedilla" unicode="&#xe7;" horiz-adv-x="1059" 
d="M1008 166q-88 -103 -199.5 -156t-239.5 -53q-227 0 -369.5 144.5t-142.5 377.5q0 120 47.5 228t135.5 186q74 65 164 99t188 34q170 0 281.5 -85.5t111.5 -213.5q0 -72 -47.5 -120t-118.5 -48q-63 0 -105 45t-42 111q0 146 -26.5 190.5t-92.5 44.5q-76 0 -115 -65.5
t-39 -192.5q0 -229 117 -373.5t297 -144.5q57 0 104.5 21t90.5 65v-94zM273 -395l47 100q65 -38 126 -57t118 -19q35 0 57.5 21t22.5 55q0 40 -23 61t-68 21q-14 0 -30.5 -2t-32.5 -6v221h88v-133q19 3 35.5 4.5t32.5 1.5q86 0 136 -45.5t50 -124.5q0 -84 -60 -136t-157 -52
q-68 0 -144 19t-198 71z" />
    <glyph glyph-name="egrave" unicode="&#xe8;" horiz-adv-x="1063" 
d="M989 166q-85 -102 -195 -155.5t-235 -53.5q-114 0 -213.5 46t-171.5 132q-59 70 -89 155.5t-30 184.5q0 102 29 190t88 166q64 87 172.5 141t220.5 54q195 0 311.5 -119t116.5 -319h-579q6 -178 116 -296t265 -118q59 0 107 21.5t87 64.5v-94zM412 659h92q136 0 167 23.5
t31 89.5q0 89 -32 133.5t-97 44.5q-83 0 -122 -69.5t-39 -221.5zM778 1135h-115l-325 163q-57 29 -81 56.5t-24 62.5q0 46 32 77.5t79 31.5q36 0 71.5 -21.5t83.5 -72.5z" />
    <glyph glyph-name="eacute" unicode="&#xe9;" horiz-adv-x="1063" 
d="M989 166q-85 -102 -195 -155.5t-235 -53.5q-114 0 -213.5 46t-171.5 132q-59 70 -89 155.5t-30 184.5q0 102 29 190t88 166q64 87 172.5 141t220.5 54q195 0 311.5 -119t116.5 -319h-579q6 -178 116 -296t265 -118q59 0 107 21.5t87 64.5v-94zM412 659h92q136 0 167 23.5
t31 89.5q0 89 -32 133.5t-97 44.5q-83 0 -122 -69.5t-39 -221.5zM352 1135l279 297q48 51 83.5 72.5t71.5 21.5q47 0 79 -31.5t32 -77.5q0 -35 -24 -62.5t-81 -56.5l-325 -163h-115z" />
    <glyph glyph-name="ecircumflex" unicode="&#xea;" horiz-adv-x="1063" 
d="M989 166q-85 -102 -195 -155.5t-235 -53.5q-114 0 -213.5 46t-171.5 132q-59 70 -89 155.5t-30 184.5q0 102 29 190t88 166q64 87 172.5 141t220.5 54q195 0 311.5 -119t116.5 -319h-579q6 -178 116 -296t265 -118q59 0 107 21.5t87 64.5v-94zM412 659h92q136 0 167 23.5
t31 89.5q0 89 -32 133.5t-97 44.5q-83 0 -122 -69.5t-39 -221.5zM243 1135l230 370h184l230 -370h-101l-221 170l-221 -170h-101z" />
    <glyph glyph-name="edieresis" unicode="&#xeb;" horiz-adv-x="1063" 
d="M989 166q-85 -102 -195 -155.5t-235 -53.5q-114 0 -213.5 46t-171.5 132q-59 70 -89 155.5t-30 184.5q0 102 29 190t88 166q64 87 172.5 141t220.5 54q195 0 311.5 -119t116.5 -319h-579q6 -178 116 -296t265 -118q59 0 107 21.5t87 64.5v-94zM412 659h92q136 0 167 23.5
t31 89.5q0 89 -32 133.5t-97 44.5q-83 0 -122 -69.5t-39 -221.5zM616 1321q0 57 42.5 99t101.5 42t101 -41t42 -100q0 -63 -41 -104t-102 -41t-102.5 42t-41.5 103zM225 1321q0 57 43.5 99t101.5 42q60 0 101 -41t41 -100q0 -63 -40 -104t-102 -41q-60 0 -102.5 42
t-42.5 103z" />
    <glyph glyph-name="igrave" unicode="&#xec;" horiz-adv-x="696" 
d="M172 627q0 46 -10 66.5t-47 49.5l-109 88q119 38 257 89t294 114v-831q0 -77 27.5 -110.5t91.5 -35.5v-57h-633v57h6q66 0 94.5 33.5t28.5 112.5v424zM561 1135h-115l-325 163q-57 29 -81 56.5t-24 62.5q0 46 32 77.5t79 31.5q36 0 71.5 -21.5t83.5 -72.5z" />
    <glyph glyph-name="iacute" unicode="&#xed;" horiz-adv-x="696" 
d="M172 627q0 46 -10 66.5t-47 49.5l-109 88q119 38 257 89t294 114v-831q0 -77 27.5 -110.5t91.5 -35.5v-57h-633v57h6q66 0 94.5 33.5t28.5 112.5v424zM135 1135l279 297q48 51 83.5 72.5t71.5 21.5q47 0 79 -31.5t32 -77.5q0 -35 -24 -62.5t-81 -56.5l-325 -163h-115z
" />
    <glyph glyph-name="icircumflex" unicode="&#xee;" horiz-adv-x="696" 
d="M172 627q0 46 -10 66.5t-47 49.5l-109 88q119 38 257 89t294 114v-831q0 -77 27.5 -110.5t91.5 -35.5v-57h-633v57h6q66 0 94.5 33.5t28.5 112.5v424zM26 1135l230 370h184l230 -370h-101l-221 170l-221 -170h-101z" />
    <glyph glyph-name="idieresis" unicode="&#xef;" horiz-adv-x="696" 
d="M172 627q0 46 -10 66.5t-47 49.5l-109 88q119 38 257 89t294 114v-831q0 -77 27.5 -110.5t91.5 -35.5v-57h-633v57h6q66 0 94.5 33.5t28.5 112.5v424zM399 1321q0 57 42.5 99t101.5 42t101 -41t42 -100q0 -63 -41 -104t-102 -41t-102.5 42t-41.5 103zM8 1321
q0 57 43.5 99t101.5 42q60 0 101 -41t41 -100q0 -63 -40 -104t-102 -41q-60 0 -102.5 42t-42.5 103z" />
    <glyph glyph-name="eth" unicode="&#xf0;" horiz-adv-x="1280" 
d="M758 954q-26 54 -52.5 100t-56.5 89l-280 -92l-25 61l268 90q-31 47 -66.5 93t-74.5 94l102 45q49 -29 108 -71t126 -95l280 96l25 -61l-246 -86q191 -169 279 -334.5t88 -354.5q0 -264 -158.5 -417.5t-431.5 -153.5q-259 0 -422.5 142.5t-163.5 365.5q0 108 39 198
t117 160q78 71 183 109.5t218 38.5q52 0 84.5 -4t59.5 -13zM479 465q0 -278 34.5 -357t125.5 -79q92 0 127 82.5t35 353.5q0 270 -35 352t-127 82q-91 0 -125.5 -79t-34.5 -355z" />
    <glyph glyph-name="ntilde" unicode="&#xf1;" horiz-adv-x="1305" 
d="M557 203q0 -77 27.5 -110.5t91.5 -35.5v-57h-633v57h6q66 0 94.5 33.5t28.5 112.5v377q0 48 -12 71t-45 45l-125 88q124 45 256.5 107t275.5 143v-170q60 80 140 120t180 40q164 0 244.5 -83.5t80.5 -254.5v-483q0 -79 28.5 -112.5t94.5 -33.5h6v-57h-514v676
q0 108 -26.5 150t-89.5 42q-59 0 -84 -43.5t-25 -148.5v-473zM409 1165h-84q27 136 84 201.5t148 65.5q18 0 36.5 -3t41.5 -10l120 -30q4 -1 11 -3q25 -6 34 -6q38 0 60 21.5t37 71.5h82q-26 -131 -84 -199t-144 -68q-14 0 -30.5 2.5t-39.5 8.5l-116 32q-24 6 -36.5 8.5
t-20.5 2.5q-40 0 -64.5 -24t-34.5 -71z" />
    <glyph glyph-name="ograve" unicode="&#xf2;" horiz-adv-x="1280" 
d="M639 33q92 0 127 87t35 372q0 283 -35 369.5t-127 86.5q-91 0 -125.5 -83t-34.5 -373q0 -292 34.5 -375.5t125.5 -83.5zM639 -43q-263 0 -422.5 147t-159.5 388q0 240 159.5 386t422.5 146t423.5 -146.5t160.5 -385.5q0 -240 -161 -387.5t-423 -147.5zM854 1135h-115
l-325 163q-57 29 -81 56.5t-24 62.5q0 46 32 77.5t79 31.5q36 0 71.5 -21.5t83.5 -72.5z" />
    <glyph glyph-name="oacute" unicode="&#xf3;" horiz-adv-x="1280" 
d="M639 33q92 0 127 87t35 372q0 283 -35 369.5t-127 86.5q-91 0 -125.5 -83t-34.5 -373q0 -292 34.5 -375.5t125.5 -83.5zM639 -43q-263 0 -422.5 147t-159.5 388q0 240 159.5 386t422.5 146t423.5 -146.5t160.5 -385.5q0 -240 -161 -387.5t-423 -147.5zM428 1135l279 297
q48 51 83.5 72.5t71.5 21.5q47 0 79 -31.5t32 -77.5q0 -35 -24 -62.5t-81 -56.5l-325 -163h-115z" />
    <glyph glyph-name="ocircumflex" unicode="&#xf4;" horiz-adv-x="1280" 
d="M639 33q92 0 127 87t35 372q0 283 -35 369.5t-127 86.5q-91 0 -125.5 -83t-34.5 -373q0 -292 34.5 -375.5t125.5 -83.5zM639 -43q-263 0 -422.5 147t-159.5 388q0 240 159.5 386t422.5 146t423.5 -146.5t160.5 -385.5q0 -240 -161 -387.5t-423 -147.5zM319 1135l230 370
h184l230 -370h-101l-221 170l-221 -170h-101z" />
    <glyph glyph-name="otilde" unicode="&#xf5;" horiz-adv-x="1280" 
d="M639 33q92 0 127 87t35 372q0 283 -35 369.5t-127 86.5q-91 0 -125.5 -83t-34.5 -373q0 -292 34.5 -375.5t125.5 -83.5zM639 -43q-263 0 -422.5 147t-159.5 388q0 240 159.5 386t422.5 146t423.5 -146.5t160.5 -385.5q0 -240 -161 -387.5t-423 -147.5zM397 1165h-84
q27 136 84 201.5t148 65.5q18 0 36.5 -3t41.5 -10l120 -30q4 -1 11 -3q25 -6 34 -6q38 0 60 21.5t37 71.5h82q-26 -131 -84 -199t-144 -68q-14 0 -30.5 2.5t-39.5 8.5l-116 32q-24 6 -36.5 8.5t-20.5 2.5q-40 0 -64.5 -24t-34.5 -71z" />
    <glyph glyph-name="odieresis" unicode="&#xf6;" horiz-adv-x="1280" 
d="M639 33q92 0 127 87t35 372q0 283 -35 369.5t-127 86.5q-91 0 -125.5 -83t-34.5 -373q0 -292 34.5 -375.5t125.5 -83.5zM639 -43q-263 0 -422.5 147t-159.5 388q0 240 159.5 386t422.5 146t423.5 -146.5t160.5 -385.5q0 -240 -161 -387.5t-423 -147.5zM692 1321
q0 57 42.5 99t101.5 42t101 -41t42 -100q0 -63 -41 -104t-102 -41t-102.5 42t-41.5 103zM301 1321q0 57 43.5 99t101.5 42q60 0 101 -41t41 -100q0 -63 -40 -104t-102 -41q-60 0 -102.5 42t-42.5 103z" />
    <glyph glyph-name="divide" unicode="&#xf7;" horiz-adv-x="1706" 
d="M854 371q68 0 116 -48.5t48 -117.5q0 -68 -47.5 -116t-116.5 -48t-117.5 48t-48.5 116t49 117t117 49zM254 727h1198v-231h-1198v231zM854 1182q67 0 115.5 -49t48.5 -117t-48.5 -116t-117.5 -48t-116.5 48t-47.5 116t49 117t117 49z" />
    <glyph glyph-name="oslash" unicode="&#xf8;" horiz-adv-x="1280" 
d="M299 -246l104 240q-168 64 -257 191.5t-89 306.5q0 247 162 389.5t445 142.5q28 0 67 -5.5t96 -17.5l86 199h72l-92 -221q162 -64 246 -188.5t84 -298.5q0 -250 -164.5 -392.5t-454.5 -142.5q-26 0 -58.5 4.5t-80.5 15.5l-94 -223h-72zM518 102q22 -35 51.5 -52t69.5 -17
q92 0 127 87t35 372q0 114 -2 165.5t-6 92.5zM490 205l280 653q-18 45 -51.5 67.5t-79.5 22.5q-91 0 -125.5 -83t-34.5 -373q0 -136 2.5 -191.5t8.5 -95.5z" />
    <glyph glyph-name="ugrave" unicode="&#xf9;" horiz-adv-x="1305" 
d="M766 580q0 49 -10.5 76.5t-34.5 48.5l-109 90q124 46 472 209l65 30v-831q0 -78 29 -112t96 -34h6v-57h-481v119q-59 -81 -142 -121.5t-188 -40.5q-157 0 -236 85t-79 253v285q0 48 -12.5 71t-45.5 45l-125 88q99 37 227 93t341 157v-727q0 -107 26.5 -149.5t89.5 -42.5
q59 0 85 44t26 148v273zM866 1135h-115l-325 163q-57 29 -81 56.5t-24 62.5q0 46 32 77.5t79 31.5q36 0 71.5 -21.5t83.5 -72.5z" />
    <glyph glyph-name="uacute" unicode="&#xfa;" horiz-adv-x="1305" 
d="M766 580q0 49 -10.5 76.5t-34.5 48.5l-109 90q124 46 472 209l65 30v-831q0 -78 29 -112t96 -34h6v-57h-481v119q-59 -81 -142 -121.5t-188 -40.5q-157 0 -236 85t-79 253v285q0 48 -12.5 71t-45.5 45l-125 88q99 37 227 93t341 157v-727q0 -107 26.5 -149.5t89.5 -42.5
q59 0 85 44t26 148v273zM440 1135l279 297q48 51 83.5 72.5t71.5 21.5q47 0 79 -31.5t32 -77.5q0 -35 -24 -62.5t-81 -56.5l-325 -163h-115z" />
    <glyph glyph-name="ucircumflex" unicode="&#xfb;" horiz-adv-x="1305" 
d="M766 580q0 49 -10.5 76.5t-34.5 48.5l-109 90q124 46 472 209l65 30v-831q0 -78 29 -112t96 -34h6v-57h-481v119q-59 -81 -142 -121.5t-188 -40.5q-157 0 -236 85t-79 253v285q0 48 -12.5 71t-45.5 45l-125 88q99 37 227 93t341 157v-727q0 -107 26.5 -149.5t89.5 -42.5
q59 0 85 44t26 148v273zM331 1135l230 370h184l230 -370h-101l-221 170l-221 -170h-101z" />
    <glyph glyph-name="udieresis" unicode="&#xfc;" horiz-adv-x="1305" 
d="M766 580q0 49 -10.5 76.5t-34.5 48.5l-109 90q124 46 472 209l65 30v-831q0 -78 29 -112t96 -34h6v-57h-481v119q-59 -81 -142 -121.5t-188 -40.5q-157 0 -236 85t-79 253v285q0 48 -12.5 71t-45.5 45l-125 88q99 37 227 93t341 157v-727q0 -107 26.5 -149.5t89.5 -42.5
q59 0 85 44t26 148v273zM704 1321q0 57 42.5 99t101.5 42t101 -41t42 -100q0 -63 -41 -104t-102 -41t-102.5 42t-41.5 103zM313 1321q0 57 43.5 99t101.5 42q60 0 101 -41t41 -100q0 -63 -40 -104t-102 -41q-60 0 -102.5 42t-42.5 103z" />
    <glyph glyph-name="yacute" unicode="&#xfd;" horiz-adv-x="1096" 
d="M168 719q-63 122 -108 164.5t-103 42.5q-4 0 -11 -1t-12 -1v57h689l-1 -57q-39 -2 -60 -16.5t-21 -39.5q0 -15 7 -36t21 -48l152 -301l108 234q18 35 27.5 70.5t9.5 58.5q0 41 -25 59.5t-83 18.5v57h381v-57h-4q-70 0 -116.5 -41t-109.5 -170l-260 -545
q-131 -277 -260 -400.5t-285 -123.5q-107 0 -175 54.5t-68 137.5q0 64 45 107t112 43q62 0 155 -70q7 -5 11 -8q52 -38 78.5 -49t52.5 -11q62 0 102 57.5t40 147.5q0 58 -23 130t-72 165zM336 1135l279 297q48 51 83.5 72.5t71.5 21.5q47 0 79 -31.5t32 -77.5
q0 -35 -24 -62.5t-81 -56.5l-325 -163h-115z" />
    <glyph glyph-name="thorn" unicode="&#xfe;" horiz-adv-x="1294" 
d="M154 1020q0 48 -10.5 70t-47.5 51l-108 88q122 39 259 89.5t290 113.5v-529q54 62 116.5 91.5t139.5 29.5q197 0 320.5 -149t123.5 -388q0 -249 -145 -390.5t-400 -141.5q-33 0 -72 3t-83 9v-196q0 -79 29.5 -112.5t99.5 -33.5h30v-57h-704v57h31q70 0 100.5 33.5
t30.5 112.5v1249zM535 453q0 -264 30.5 -345t110.5 -81q79 0 109 79t30 347q0 267 -30 346.5t-109 79.5q-80 0 -110.5 -79.5t-30.5 -346.5z" />
    <glyph glyph-name="ydieresis" unicode="&#xff;" horiz-adv-x="1096" 
d="M168 719q-63 122 -108 164.5t-103 42.5q-4 0 -11 -1t-12 -1v57h689l-1 -57q-39 -2 -60 -16.5t-21 -39.5q0 -15 7 -36t21 -48l152 -301l108 234q18 35 27.5 70.5t9.5 58.5q0 41 -25 59.5t-83 18.5v57h381v-57h-4q-70 0 -116.5 -41t-109.5 -170l-260 -545
q-131 -277 -260 -400.5t-285 -123.5q-107 0 -175 54.5t-68 137.5q0 64 45 107t112 43q62 0 155 -70q7 -5 11 -8q52 -38 78.5 -49t52.5 -11q62 0 102 57.5t40 147.5q0 58 -23 130t-72 165zM600 1321q0 57 42.5 99t101.5 42t101 -41t42 -100q0 -63 -41 -104t-102 -41
t-102.5 42t-41.5 103zM209 1321q0 57 43.5 99t101.5 42q60 0 101 -41t41 -100q0 -63 -40 -104t-102 -41q-60 0 -102.5 42t-42.5 103z" />
    <glyph glyph-name="Cacute" unicode="&#x106;" horiz-adv-x="1464" 
d="M1372 82q-134 -62 -264 -93.5t-252 -31.5q-97 0 -189 20t-173 58q-212 101 -319 266t-107 389q0 170 65 315.5t189 251.5q114 99 254.5 150t297.5 51q129 0 248 -30.5t221 -90.5v-415h-53q-40 212 -156 334t-276 122q-170 0 -246.5 -153t-76.5 -496q0 -381 75.5 -535.5
t253.5 -154.5q171 0 298.5 137t164.5 365h45v-459zM627 1567l279 297q48 51 83.5 72.5t71.5 21.5q47 0 79 -31.5t32 -77.5q0 -35 -24 -62.5t-81 -56.5l-325 -163h-115z" />
    <glyph glyph-name="cacute" unicode="&#x107;" horiz-adv-x="1059" 
d="M1008 166q-88 -103 -199.5 -156t-239.5 -53q-227 0 -369.5 144.5t-142.5 377.5q0 120 47.5 228t135.5 186q74 65 164 99t188 34q170 0 281.5 -85.5t111.5 -213.5q0 -72 -47.5 -120t-118.5 -48q-63 0 -105 45t-42 111q0 146 -26.5 190.5t-92.5 44.5q-76 0 -115 -65.5
t-39 -192.5q0 -229 117 -373.5t297 -144.5q57 0 104.5 21t90.5 65v-94zM358 1135l279 297q48 51 83.5 72.5t71.5 21.5q47 0 79 -31.5t32 -77.5q0 -35 -24 -62.5t-81 -56.5l-325 -163h-115z" />
    <glyph glyph-name="Ccaron" unicode="&#x10c;" horiz-adv-x="1464" 
d="M1372 82q-134 -62 -264 -93.5t-252 -31.5q-97 0 -189 20t-173 58q-212 101 -319 266t-107 389q0 170 65 315.5t189 251.5q114 99 254.5 150t297.5 51q129 0 248 -30.5t221 -90.5v-415h-53q-40 212 -156 334t-276 122q-170 0 -246.5 -153t-76.5 -496q0 -381 75.5 -535.5
t253.5 -154.5q171 0 298.5 137t164.5 365h45v-459zM518 1937h101l221 -172l221 172h101l-230 -370h-184z" />
    <glyph glyph-name="ccaron" unicode="&#x10d;" horiz-adv-x="1059" 
d="M1008 166q-88 -103 -199.5 -156t-239.5 -53q-227 0 -369.5 144.5t-142.5 377.5q0 120 47.5 228t135.5 186q74 65 164 99t188 34q170 0 281.5 -85.5t111.5 -213.5q0 -72 -47.5 -120t-118.5 -48q-63 0 -105 45t-42 111q0 146 -26.5 190.5t-92.5 44.5q-76 0 -115 -65.5
t-39 -192.5q0 -229 117 -373.5t297 -144.5q57 0 104.5 21t90.5 65v-94zM249 1505h101l221 -172l221 172h101l-230 -370h-184z" />
    <glyph glyph-name="dcroat" unicode="&#x111;" horiz-adv-x="1305" 
d="M762 113q-55 -80 -127.5 -118t-169.5 -38q-177 0 -287 130.5t-110 346.5q0 237 119 382t311 145q85 0 156 -30.5t118 -86.5v182h-295v68h289l-160 135q78 23 184.5 62t360.5 141v-338h154v-68h-154v-823q0 -79 28.5 -112.5t94.5 -33.5h6v-57h-514zM629 121
q80 0 110.5 65.5t30.5 286.5q0 222 -30.5 287t-110.5 65t-110 -65t-30 -287q0 -220 30.5 -286t109.5 -66z" />
    <glyph glyph-name="Gbreve" unicode="&#x11e;" horiz-adv-x="1522" 
d="M1389 102q-162 -74 -298.5 -109.5t-259.5 -35.5q-99 0 -192 21.5t-172 62.5q-193 101 -295 269.5t-102 385.5q0 166 66 312t190 252q114 97 256.5 147.5t304.5 50.5q125 0 248 -31t241 -94v-399h-47q-71 216 -185 330t-259 114q-173 0 -259.5 -175.5t-86.5 -526.5
q0 -323 76.5 -480t234.5 -157q57 0 87 29t30 86v153q0 106 -33 143t-123 37v58h657v-58q-46 -3 -62.5 -25t-16.5 -102v-38v-220zM434 1905h95q19 -66 72.5 -94.5t160.5 -28.5q106 0 160 28.5t71 94.5h95q-20 -148 -105 -228t-221 -80t-220.5 79t-107.5 229z" />
    <glyph glyph-name="gbreve" unicode="&#x11f;" horiz-adv-x="1151" 
d="M586 397q77 0 111 64t34 211q0 151 -34 217.5t-111 66.5q-78 0 -112 -64t-34 -218q0 -148 34.5 -212.5t111.5 -64.5zM248 -131q-4 -10 -6 -19t-2 -18q0 -74 91 -128t228 -54q133 0 213 46.5t80 121.5q0 46 -33.5 74t-89.5 28q-35 0 -159.5 -35t-213.5 -35q-25 0 -53 5
t-55 14zM254 406q-70 45 -106.5 111.5t-36.5 146.5q0 161 137 262.5t358 101.5q27 0 55.5 -3t59.5 -9q33 86 100 135t152 49q62 0 102.5 -36t40.5 -91q0 -47 -31 -78.5t-77 -31.5q-40 0 -98 33.5t-81 33.5q-15 0 -26 -6.5t-19 -19.5q135 -46 206 -131.5t71 -200.5
q0 -157 -136 -255t-358 -98q-60 0 -119.5 11t-119.5 32q-48 -8 -75.5 -33t-27.5 -59q0 -40 30.5 -65t80.5 -25q47 0 167 47l11 4q98 38 159 52t118 14q150 0 243.5 -89.5t93.5 -232.5q0 -184 -156 -295.5t-419 -111.5q-215 0 -337 59t-122 162q0 39 16 70t50 57
q-54 37 -82.5 93t-28.5 126q0 97 52 165.5t153 105.5zM247 1473h95q19 -66 72.5 -94.5t160.5 -28.5q106 0 160 28.5t71 94.5h95q-20 -148 -105 -228t-221 -80t-220.5 79t-107.5 229z" />
    <glyph glyph-name="Idotaccent" unicode="&#x130;" horiz-adv-x="901" 
d="M836 1413v-57q-94 -6 -127 -42t-33 -134v-947q0 -98 33 -134t127 -42v-57h-770v57q93 6 126 42t33 134v947q0 98 -33 134t-126 42v57h770zM304 1753q0 58 44.5 102.5t102.5 44.5q63 0 106.5 -42.5t43.5 -104.5q0 -65 -42.5 -107.5t-107.5 -42.5q-60 0 -103.5 44.5
t-43.5 105.5z" />
    <glyph glyph-name="dotlessi" unicode="&#x131;" horiz-adv-x="696" 
d="M172 627q0 46 -10 66.5t-47 49.5l-109 88q119 38 257 89t294 114v-831q0 -77 27.5 -110.5t91.5 -35.5v-57h-633v57h6q66 0 94.5 33.5t28.5 112.5v424z" />
    <glyph glyph-name="Lslash" unicode="&#x141;" horiz-adv-x="1319" 
d="M229 541l-229 -162v100l229 160v541q0 98 -33 134t-126 42v57h772v-57q-94 -6 -127 -42t-33 -134v-291l268 190v-98l-268 -190v-461q0 -139 32.5 -186.5t116.5 -47.5q126 0 250 101.5t203 271.5l59 -23l-155 -446h-1118v57q93 6 126 42t33 134v308z" />
    <glyph glyph-name="lslash" unicode="&#x142;" horiz-adv-x="717" 
d="M168 547l-166 -117v82l166 117v395q0 46 -10 66.5t-47 50.5l-109 88q115 36 251.5 86.5t297.5 116.5v-601l166 117v-82l-166 -116v-547q0 -79 28.5 -112.5t94.5 -33.5h6v-57h-641v57h6q66 0 94.5 33.5t28.5 112.5v344z" />
    <glyph glyph-name="OE" unicode="&#x152;" horiz-adv-x="2200" 
d="M791 49q74 0 126.5 30t86.5 91q31 58 45 178t14 361q0 412 -59 535.5t-213 123.5q-157 0 -216 -125t-59 -534q0 -241 14 -361t45 -178q34 -61 87.5 -91t128.5 -30zM1001 0q-59 -12 -111.5 -18.5t-101.5 -6.5q-96 0 -183.5 21t-162.5 61q-179 99 -275.5 268t-96.5 384
q0 162 57.5 301t167.5 243q99 93 222 141t263 48q50 0 108 -7t128 -22h756q75 0 124 13t74 40q20 -107 49 -201.5t66 -172.5l-57 -23q-87 137 -191 196.5t-258 59.5h-82v-501q148 1 218.5 43t76.5 132h59v-450h-59q-8 107 -75 157t-204 50h-16v-426q0 -148 37.5 -198
t136.5 -50q135 0 256 93.5t193 254.5l53 -24l-137 -406h-1035z" />
    <glyph glyph-name="oe" unicode="&#x153;" horiz-adv-x="1763" 
d="M1133 660l90 -1q132 0 162 23.5t30 89.5q0 89 -31 132.5t-94 43.5q-81 0 -118.5 -69t-38.5 -219zM1692 166q-84 -101 -189 -155t-221 -54q-84 0 -162 27t-143 77q-83 -53 -170 -78.5t-184 -25.5q-256 0 -411 147t-155 388t154.5 386.5t411.5 145.5q111 0 200.5 -27
t161.5 -82q67 54 143 81.5t156 27.5q188 0 300 -118t112 -318h-561q6 -178 112 -296t256 -118q57 0 103 21t86 65v-94zM629 33q93 0 128.5 86.5t35.5 372.5q0 284 -35.5 370t-128.5 86t-127.5 -84.5t-34.5 -371.5q0 -289 35 -374t127 -85z" />
    <glyph glyph-name="Scedilla" unicode="&#x15e;" horiz-adv-x="1247" 
d="M123 47v520h65q59 -256 173.5 -394t269.5 -138q98 0 155.5 56t57.5 153q0 149 -286 274q-25 11 -37 16q-13 6 -38 17q-193 82 -268 168q-49 55 -73.5 123t-24.5 147q0 205 151 336t389 131q80 0 174.5 -18t215.5 -56v-421h-56q-55 210 -142 313.5t-208 103.5
q-92 0 -150.5 -54.5t-58.5 -139.5q0 -76 49 -133t148 -97q50 -20 138 -53q162 -60 208 -92q114 -78 163.5 -164t49.5 -205q0 -223 -155.5 -353t-424.5 -130q-122 0 -244 22.5t-241 67.5zM363 -395l47 100q65 -38 126 -57t118 -19q35 0 57.5 21t22.5 55q0 40 -23 61t-68 21
q-14 0 -30.5 -2t-32.5 -6v221h88v-133q19 3 35.5 4.5t32.5 1.5q86 0 136 -45.5t50 -124.5q0 -84 -60 -136t-157 -52q-68 0 -144 19t-198 71z" />
    <glyph glyph-name="scedilla" unicode="&#x15f;" horiz-adv-x="1042" 
d="M98 41v328h52q45 -163 138 -251.5t218 -88.5q67 0 104 31t37 87q0 110 -216 198q-8 3 -13 5q-190 77 -252 145.5t-62 176.5q0 161 121 256.5t328 95.5q78 0 160 -13.5t168 -39.5v-273h-50q-68 138 -136 196t-156 58q-66 0 -107 -32.5t-41 -83.5q0 -85 221 -174
q18 -7 27 -11q201 -82 260 -149t59 -178q0 -163 -125.5 -265t-326.5 -102q-98 0 -200 21t-208 63zM260 -395l47 100q65 -38 126 -57t118 -19q35 0 57.5 21t22.5 55q0 40 -23 61t-68 21q-14 0 -30.5 -2t-32.5 -6v221h88v-133q19 3 35.5 4.5t32.5 1.5q86 0 136 -45.5
t50 -124.5q0 -84 -60 -136t-157 -52q-68 0 -144 19t-198 71z" />
    <glyph glyph-name="Scaron" unicode="&#x160;" horiz-adv-x="1247" 
d="M123 47v520h65q59 -256 173.5 -394t269.5 -138q98 0 155.5 56t57.5 153q0 149 -286 274q-25 11 -37 16q-13 6 -38 17q-193 82 -268 168q-49 55 -73.5 123t-24.5 147q0 205 151 336t389 131q80 0 174.5 -18t215.5 -56v-421h-56q-55 210 -142 313.5t-208 103.5
q-92 0 -150.5 -54.5t-58.5 -139.5q0 -76 49 -133t148 -97q50 -20 138 -53q162 -60 208 -92q114 -78 163.5 -164t49.5 -205q0 -223 -155.5 -353t-424.5 -130q-122 0 -244 22.5t-241 67.5zM303 1937h101l221 -172l221 172h101l-230 -370h-184z" />
    <glyph glyph-name="scaron" unicode="&#x161;" horiz-adv-x="1042" 
d="M98 41v328h52q45 -163 138 -251.5t218 -88.5q67 0 104 31t37 87q0 110 -216 198q-8 3 -13 5q-190 77 -252 145.5t-62 176.5q0 161 121 256.5t328 95.5q78 0 160 -13.5t168 -39.5v-273h-50q-68 138 -136 196t-156 58q-66 0 -107 -32.5t-41 -83.5q0 -85 221 -174
q18 -7 27 -11q201 -82 260 -149t59 -178q0 -163 -125.5 -265t-326.5 -102q-98 0 -200 21t-208 63zM200 1505h101l221 -172l221 172h101l-230 -370h-184z" />
    <glyph glyph-name="Ydieresis" unicode="&#x178;" horiz-adv-x="1255" 
d="M874 233q0 -98 33.5 -134t126.5 -42v-57h-770v57q94 6 127 42t33 134v474l-281 469q-62 104 -113.5 142t-119.5 38h-6v57h835v-57q-62 0 -93.5 -20.5t-31.5 -61.5q0 -22 13 -56.5t39 -78.5l149 -269l139 236q36 59 53 101t17 69q0 36 -23.5 54.5t-76.5 25.5v57h407v-57
q-77 -7 -134 -51.5t-122 -155.5l-201 -340v-576zM680 1753q0 57 42.5 99t101.5 42t101 -41t42 -100q0 -63 -41 -104t-102 -41t-102.5 42t-41.5 103zM289 1753q0 57 43.5 99t101.5 42q60 0 101 -41t41 -100q0 -63 -40 -104t-102 -41q-60 0 -102.5 42t-42.5 103z" />
    <glyph glyph-name="Zcaron" unicode="&#x17d;" horiz-adv-x="1294" 
d="M49 0l583 1323q-21 3 -41.5 4.5t-41.5 1.5q-160 0 -265 -84.5t-167 -263.5h-58l52 485q31 -29 78.5 -41t154.5 -12h815l-581 -1323q8 -1 18 -1.5t31 -0.5q196 0 333 125.5t205 368.5h58l-35 -582h-1139zM325 1937h101l221 -172l221 172h101l-230 -370h-184z" />
    <glyph glyph-name="zcaron" unicode="&#x17e;" horiz-adv-x="1157" 
d="M29 0l542 915q-164 -3 -279 -84.5t-161 -226.5h-49l65 377h924l-545 -915q198 13 325 117t167 284h45v-467h-1034zM258 1505h101l221 -172l221 172h101l-230 -370h-184z" />
    <glyph glyph-name="florin" unicode="&#x192;" horiz-adv-x="1110" 
d="M772 918h199v-76h-209l-51 -447q-41 -349 -179 -519.5t-380 -170.5q-130 0 -208.5 58.5t-78.5 152.5q0 57 34.5 94t88.5 37t89.5 -31.5t49.5 -91.5q4 -17 10 -48q15 -83 53 -83q32 0 50.5 54.5t31.5 189.5l84 805h-192v76h203q19 253 161 396.5t373 143.5
q130 0 210.5 -56t80.5 -145q0 -52 -30.5 -84t-80.5 -32q-46 0 -77.5 25.5t-53.5 83.5q-5 13 -13 37q-30 87 -65 87q-31 0 -46.5 -32.5t-24.5 -128.5z" />
    <glyph glyph-name="circumflex" unicode="&#x2c6;" 
d="M190 1135l230 370h184l230 -370h-101l-221 170l-221 -170h-101z" />
    <glyph glyph-name="caron" unicode="&#x2c7;" 
d="M190 1505h101l221 -172l221 172h101l-230 -370h-184z" />
    <glyph glyph-name="breve" unicode="&#x2d8;" 
d="M184 1473h95q19 -66 72.5 -94.5t160.5 -28.5q106 0 160 28.5t71 94.5h95q-20 -148 -105 -228t-221 -80t-220.5 79t-107.5 229z" />
    <glyph glyph-name="dotaccent" unicode="&#x2d9;" 
d="M365 1321q0 58 44.5 102.5t102.5 44.5q63 0 106.5 -42.5t43.5 -104.5q0 -65 -42.5 -107.5t-107.5 -42.5q-60 0 -103.5 44.5t-43.5 105.5z" />
    <glyph glyph-name="ring" unicode="&#x2da;" 
d="M391 1380q0 -52 34.5 -86t86.5 -34q51 0 87 35t36 85q0 51 -36 87t-87 36q-52 0 -86.5 -35t-34.5 -88zM248 1382q0 112 76 188.5t188 76.5t189 -77t77 -188q0 -112 -77 -189t-189 -77t-188 77t-76 189z" />
    <glyph glyph-name="ogonek" unicode="&#x2db;" 
d="M651 31q-86 -71 -126 -135t-40 -132q0 -48 23 -75t63 -27q34 0 58.5 15.5t52.5 54.5l35 -21q-42 -89 -101.5 -133.5t-136.5 -44.5q-79 0 -125.5 41t-46.5 111q0 88 70.5 173t216.5 173h57z" />
    <glyph glyph-name="tilde" unicode="&#x2dc;" 
d="M268 1165h-84q27 136 84 201.5t148 65.5q18 0 36.5 -3t41.5 -10l120 -30q4 -1 11 -3q25 -6 34 -6q38 0 60 21.5t37 71.5h82q-26 -131 -84 -199t-144 -68q-14 0 -30.5 2.5t-39.5 8.5l-116 32q-24 6 -36.5 8.5t-20.5 2.5q-40 0 -64.5 -24t-34.5 -71z" />
    <glyph glyph-name="hungarumlaut" unicode="&#x2dd;" 
d="M553 1135l223 286q51 66 79.5 85.5t62.5 19.5q40 0 68 -28t28 -68q0 -28 -20 -54.5t-60 -52.5l-291 -188h-90zM281 1135l147 270q40 74 68.5 98.5t66.5 24.5q40 0 66 -26.5t26 -65.5q0 -25 -14.5 -50.5t-44.5 -52.5l-225 -198h-90z" />
    <glyph glyph-name="Omega" unicode="&#x3a9;" horiz-adv-x="1581" 
d="M1153 297v-14h283l37 120h81l-120 -403h-545q85 207 128.5 423.5t43.5 430.5q0 278 -66.5 413.5t-201.5 135.5q-136 0 -203.5 -137t-67.5 -410q0 -211 43.5 -428t128.5 -428h-544l-121 403h82l36 -120h283v14q-170 66 -264 208.5t-94 334.5q0 281 205 469t516 188
q309 0 514.5 -189t205.5 -470q0 -189 -95 -332t-265 -209z" />
    <glyph glyph-name="pi" unicode="&#x3c0;" horiz-adv-x="1513" 
d="M1481 885l-68 -320h-358v-49v-70q0 -53 6 -147.5t6 -136.5q0 -102 -38.5 -154.5t-113.5 -52.5q-60 0 -93.5 33t-33.5 94q0 70 66 228.5t92 254.5h-377q0 -9 -1 -25t-1 -24v-70q0 -51 6.5 -145.5t6.5 -138.5q0 -102 -38.5 -154.5t-113.5 -52.5q-61 0 -94 33t-33 94
q0 66 66.5 224t93.5 259h-207q-90 0 -126 -26t-52 -97h-72q48 251 144.5 347t302.5 96h1030z" />
    <glyph glyph-name="endash" unicode="&#x2013;" 
d="M0 440v123h1024v-123h-1024z" />
    <glyph glyph-name="emdash" unicode="&#x2014;" horiz-adv-x="2048" 
d="M0 563h2048v-123h-2048v123z" />
    <glyph glyph-name="quoteleft" unicode="&#x2018;" horiz-adv-x="735" 
d="M322 1241q17 6 32.5 9t30.5 3q80 0 131 -50.5t51 -129.5t-53.5 -131.5t-132.5 -52.5q-90 0 -140.5 59.5t-50.5 165.5q0 131 77 226.5t198 115.5l27 -55q-74 -11 -116 -50.5t-54 -109.5z" />
    <glyph glyph-name="quoteright" unicode="&#x2019;" horiz-adv-x="735" 
d="M436 1099q-14 -4 -30 -6.5t-35 -2.5q-79 0 -130 50.5t-51 129.5q0 78 53.5 131t133.5 53q90 0 140 -59.5t50 -165.5q0 -131 -76.5 -226.5t-197.5 -115.5l-27 55q74 11 116 50t54 107z" />
    <glyph glyph-name="quotesinglbase" unicode="&#x201a;" horiz-adv-x="735" 
d="M415 -25q-14 -5 -29.5 -7.5t-33.5 -2.5q-79 0 -129.5 50t-50.5 128q0 79 53.5 133t132.5 54q90 0 140.5 -60.5t50.5 -167.5q0 -130 -76.5 -225t-198.5 -115l-28 56q74 10 115.5 49t53.5 108z" />
    <glyph glyph-name="quotedblleft" unicode="&#x201c;" horiz-adv-x="1176" 
d="M764 1241q17 6 32.5 9t30.5 3q80 0 131.5 -50.5t51.5 -129.5t-53.5 -131.5t-133.5 -52.5q-90 0 -140 59.5t-50 165.5q0 131 76.5 226.5t197.5 115.5l27 -55q-73 -11 -115.5 -50.5t-54.5 -109.5zM322 1241q17 6 32.5 9t30.5 3q80 0 131 -50.5t51 -129.5t-53.5 -132.5
t-132.5 -53.5q-90 0 -140.5 60t-50.5 167q0 131 77 225.5t198 114.5l27 -55q-74 -11 -116 -50t-54 -108z" />
    <glyph glyph-name="quotedblright" unicode="&#x201d;" horiz-adv-x="1176" 
d="M434 1100q-17 -6 -32.5 -9.5t-30.5 -3.5q-79 0 -130 51t-51 130t54 132.5t133 53.5q89 0 139.5 -60t50.5 -167q0 -131 -76.5 -225.5t-197.5 -114.5l-29 55q74 11 116 50t54 108zM876 1099q-13 -4 -28.5 -6.5t-34.5 -2.5q-79 0 -129.5 50.5t-50.5 129.5q0 78 53.5 131
t132.5 53q90 0 140.5 -59.5t50.5 -165.5q0 -131 -77 -226.5t-198 -115.5l-28 55q73 11 115 50t54 107z" />
    <glyph glyph-name="quotedblbase" unicode="&#x201e;" horiz-adv-x="1176" 
d="M858 -25q-15 -5 -31 -7.5t-34 -2.5q-80 0 -130.5 50t-50.5 128q0 79 54 133t133 54q89 0 139.5 -60.5t50.5 -167.5q0 -130 -76.5 -225t-197.5 -115l-27 56q74 10 116 49t54 108zM415 -25q-14 -5 -29.5 -7.5t-33.5 -2.5q-79 0 -129.5 50t-50.5 128q0 79 53.5 133t132.5 54
q90 0 140.5 -60.5t50.5 -167.5q0 -130 -76.5 -225t-198.5 -115l-28 56q74 10 115.5 49t53.5 108z" />
    <glyph glyph-name="dagger" unicode="&#x2020;" 
d="M463 -287v56q0 189 -25.5 389t-77.5 411q49 84 75 171.5t28 175.5v9q-48 -10 -137.5 -52t-137.5 -42q-55 0 -90 34.5t-35 88.5q0 58 38.5 93.5t101.5 35.5q46 0 130.5 -39.5t131.5 -45.5q0 1 1 4.5t1 5.5q0 89 -45 197.5t-45 133.5q0 53 36 85t97 32q63 0 100 -31.5
t37 -85.5q0 -25 -45 -133.5t-45 -197.5q0 -2 1 -5.5t1 -4.5q47 6 131.5 45.5t130.5 39.5q63 0 101.5 -35.5t38.5 -93.5q0 -54 -35.5 -88.5t-91.5 -34.5q-40 0 -126.5 42.5t-146.5 51.5v-12q0 -83 26 -170.5t77 -173.5q-48 -184 -74 -399t-29 -456z" />
    <glyph glyph-name="daggerdbl" unicode="&#x2021;" 
d="M664 578q-53 -77 -80 -166t-27 -183q52 11 142 53t137 42q55 0 90 -34.5t35 -88.5q0 -58 -38.5 -93.5t-101.5 -35.5q-46 0 -131 39.5t-133 45.5v-10q0 -89 45 -197.5t45 -133.5q0 -53 -36 -85t-97 -32q-63 0 -100 31.5t-37 85.5q0 25 45 133.5t45 197.5v10
q-48 -6 -133 -45.5t-131 -39.5q-63 0 -101.5 35.5t-38.5 93.5q0 54 35.5 88.5t91.5 34.5q39 0 126.5 -42t150.5 -50q-2 97 -29 185t-78 158q53 83 80 168t27 170v11q-52 -11 -142 -52t-137 -41q-55 0 -90 34.5t-35 88.5q0 58 38.5 93.5t101.5 35.5q46 0 131 -39.5t133 -45.5
v10q0 89 -45 197.5t-45 133.5q0 53 36 85t97 32q63 0 100 -31.5t37 -85.5q0 -25 -45 -133.5t-45 -197.5v-10q48 6 133 45.5t131 39.5q63 0 101.5 -35.5t38.5 -93.5q0 -54 -35.5 -88.5t-91.5 -34.5q-39 0 -126.5 42t-150.5 50q2 -93 29 -180.5t78 -164.5z" />
    <glyph glyph-name="bullet" unicode="&#x2022;" horiz-adv-x="1208" 
d="M307 762q0 123 87 209t210 86q122 0 208.5 -86.5t86.5 -208.5t-87.5 -209.5t-209.5 -87.5q-123 0 -209 87t-86 210z" />
    <glyph glyph-name="ellipsis" unicode="&#x2026;" horiz-adv-x="2048" 
d="M153 143q0 78 54.5 133.5t132.5 55.5t133 -55t55 -134q0 -78 -55 -132t-133 -54q-79 0 -133 54t-54 132zM835 143q0 78 54.5 133.5t132.5 55.5t133 -55t55 -134q0 -78 -55 -132t-133 -54q-79 0 -133 54t-54 132zM1519 143q0 78 54.5 133.5t132.5 55.5t133 -55t55 -134
q0 -78 -55 -132t-133 -54q-79 0 -133 54t-54 132z" />
    <glyph glyph-name="perthousand" unicode="&#x2030;" horiz-adv-x="2574" 
d="M342 -43l926 1499h96l-926 -1499h-96zM2126 0q-178 0 -286.5 100t-108.5 265t108.5 266.5t286.5 101.5q177 0 285 -101.5t108 -266.5q0 -164 -108 -264.5t-285 -100.5zM2126 51q60 0 83 58t23 258q0 199 -23 257t-83 58q-62 0 -85.5 -57.5t-23.5 -257.5q0 -198 23.5 -257
t85.5 -59zM1257 51q62 0 85.5 59.5t23.5 256.5q0 196 -23.5 255.5t-85.5 59.5q-61 0 -84.5 -57.5t-23.5 -257.5q0 -198 23.5 -257t84.5 -59zM1257 0q-177 0 -285 100t-108 265t108.5 266.5t284.5 101.5q177 0 285.5 -101.5t108.5 -266.5q0 -164 -108 -264.5t-286 -100.5z
M449 729q60 0 83 58t23 257q0 200 -23 258t-83 58q-62 0 -85.5 -57.5t-23.5 -258.5q0 -197 23.5 -256t85.5 -59zM449 678q-178 0 -287 101t-109 265q0 166 109 267.5t287 101.5q176 0 284.5 -101.5t108.5 -267.5q0 -164 -108.5 -265t-284.5 -101z" />
    <glyph glyph-name="guilsinglleft" unicode="&#x2039;" horiz-adv-x="631" 
d="M406 928h163l-186 -439l186 -436h-163l-334 436z" />
    <glyph glyph-name="guilsinglright" unicode="&#x203a;" horiz-adv-x="631" 
d="M223 53h-164l189 436l-189 439h164l334 -439z" />
    <glyph glyph-name="franc" unicode="&#x20a3;" horiz-adv-x="2089" 
d="M672 233q0 -98 33 -134t126 -42v-57h-770v57q94 6 127 42t33 134v947q0 98 -33 134t-127 42v57h850q77 0 127.5 13t77.5 40q26 -121 55 -213t64 -161l-59 -23q-90 136 -199 196t-268 60h-37v-502q122 0 180.5 41.5t69.5 134.5h61v-450h-61q-8 98 -68.5 148.5t-181.5 58.5
v-523zM1730 858q50 84 108.5 126t125.5 42q74 0 119 -44t45 -116q0 -63 -37.5 -101t-99.5 -38q-56 0 -107.5 45t-65.5 45q-33 0 -47 -44t-14 -157v-413q0 -78 31.5 -112t103.5 -34h6v-57h-655v57h6q66 0 94.5 33.5t28.5 112.5v377q0 48 -12 71t-45 45l-125 88
q98 34 226 93.5t314 156.5v-176z" />
    <glyph glyph-name="trademark" unicode="&#x2122;" horiz-adv-x="1683" 
d="M745 1460h222l127 -356l123 356h206v-26l-22 -7q-19 -4 -27 -15t-8 -34v-383q0 -22 8 -33t27 -16l22 -6v-33h-260v33l30 6q18 3 27 15.5t9 33.5v355l-148 -445h-43l-166 457v-367q0 -22 9 -34t27 -15l34 -6v-33h-197v33l35 6q18 4 26.5 16t8.5 33v375q0 21 -9 33.5
t-25 15.5l-36 6v35zM229 1460h457l12 -198h-36q-7 79 -38 116t-92 37v-420q0 -21 8 -33.5t24 -15.5l30 -6v-33h-272v33l30 6q15 3 23 15.5t8 33.5v420h-4q-58 0 -89.5 -38t-37.5 -115h-35z" />
    <glyph glyph-name="partialdiff" unicode="&#x2202;" horiz-adv-x="1114" 
d="M766 684q21 113 32 206t11 150q0 87 -29.5 148t-68.5 61q-35 0 -132 -93t-180 -93q-48 0 -80 33.5t-32 83.5q0 69 93 125.5t220 56.5q210 0 332.5 -161t122.5 -441q0 -344 -162.5 -564.5t-417.5 -220.5q-182 0 -299 116.5t-117 299.5q0 203 119.5 336t298.5 133
q101 0 170.5 -42.5t118.5 -133.5zM698 532q0 114 -36.5 176t-104.5 62q-96 0 -160.5 -136.5t-64.5 -346.5q0 -116 36.5 -176t106.5 -60q97 0 160 135.5t63 345.5z" />
    <glyph glyph-name="Delta" unicode="&#x2206;" horiz-adv-x="1346" 
d="M528 1085l-356 -751h713zM639 1497h76l712 -1497h-1509z" />
    <glyph glyph-name="product" unicode="&#x220f;" horiz-adv-x="1774" 
d="M43 1473h1681v-91h-192v-1685h192v-90h-753v90h168v1685h-512v-1685h170v-90h-754v90h193v1685h-193v91z" />
    <glyph glyph-name="summation" unicode="&#x2211;" horiz-adv-x="1585" 
d="M27 1473h1276l153 -463h-92l-102 262q-25 62 -74 86t-201 24h-485l590 -757v-41l-689 -652h885q41 0 58 13.5t28 49.5l70 230h94l-188 -618h-1325v88l766 725l-764 981v72z" />
    <glyph glyph-name="minus" unicode="&#x2212;" horiz-adv-x="1706" 
d="M254 729h1198v-235h-1198v235z" />
    <glyph glyph-name="fraction" unicode="&#x2215;" horiz-adv-x="342" 
d="M-342 -43l928 1499h96l-926 -1499h-98z" />
    <glyph glyph-name="periodcentered" unicode="&#x2219;" horiz-adv-x="735" 
d="M180 707q0 77 54.5 131.5t132.5 54.5t133 -54t55 -132q0 -79 -55 -134t-133 -55t-132.5 55t-54.5 134z" />
    <glyph glyph-name="radical" unicode="&#x221a;" horiz-adv-x="1366" 
d="M1155 1714h215v-149h-96l-590 -1606h-119l-307 846l-145 -55l-37 129l360 127l223 -635z" />
    <glyph glyph-name="infinity" unicode="&#x221e;" horiz-adv-x="1706" 
d="M956 561q44 -68 103.5 -103.5t130.5 -35.5q89 0 146 52t57 132q0 77 -52 129.5t-127 52.5q-71 0 -130 -51t-128 -176zM752 657q-43 68 -101.5 102t-132.5 34q-90 0 -146.5 -51t-56.5 -130q0 -78 51.5 -131t127.5 -53q69 0 130 53.5t128 175.5zM856 442
q-68 -130 -147.5 -193t-176.5 -63q-139 0 -238 121.5t-99 300.5q0 188 87.5 305t227.5 117q90 0 166.5 -56.5t175.5 -199.5q70 131 149 193.5t175 62.5q140 0 238.5 -120.5t98.5 -299.5q0 -189 -87.5 -306.5t-227.5 -117.5q-91 0 -166 55t-176 201z" />
    <glyph glyph-name="integral" unicode="&#x222b;" horiz-adv-x="1249" 
d="M362 -248q99 0 119 667q3 101 4 154q17 523 130.5 753t349.5 230q105 0 170 -53t65 -137q0 -64 -41 -103.5t-106 -39.5q-64 0 -96.5 38.5t-32.5 112.5q0 38 -7.5 49t-25.5 11q-101 0 -124 -667q-2 -60 -3 -91q-11 -329 -30.5 -472.5t-57.5 -244.5q-62 -166 -159.5 -249
t-229.5 -83q-107 0 -171.5 52t-64.5 139q0 65 42 104t112 39q60 0 92.5 -36t32.5 -103q0 -12 -2 -24v-3q0 -24 8 -33.5t26 -9.5z" />
    <glyph glyph-name="approxequal" unicode="&#x2248;" horiz-adv-x="1706" 
d="M1530 602v-254q-105 -71 -196 -104t-181 -33t-283 65.5t-309 65.5q-82 0 -172.5 -37t-210.5 -121v254q111 74 209 109t195 35q115 0 304.5 -65.5t272.5 -65.5t170 35t201 116zM1530 1036v-254q-107 -70 -197 -102.5t-178 -32.5q-91 0 -284 64.5t-310 64.5q-84 0 -172 -36
t-211 -122v256q112 74 209 108t195 34q115 0 304.5 -65.5t272.5 -65.5t170.5 35.5t200.5 115.5z" />
    <glyph glyph-name="notequal" unicode="&#x2260;" horiz-adv-x="1706" 
d="M1194 1251l168 -137l-135 -168h225v-221h-377l-180 -227h557v-222h-704l-246 -307l-170 137l135 170h-213v222h360l183 227h-543v221h694z" />
    <glyph glyph-name="lessequal" unicode="&#x2264;" horiz-adv-x="1706" 
d="M256 213h1196v-229h-1196v229zM1450 1257v-239l-776 -240l776 -239v-240l-1194 379v201z" />
    <glyph glyph-name="greaterequal" unicode="&#x2265;" horiz-adv-x="1706" 
d="M256 213h1196v-229h-1196v229zM256 1257l1194 -378v-201l-1194 -379v240l778 239l-778 240v239z" />
    <glyph glyph-name="lozenge" unicode="&#x25ca;" horiz-adv-x="1012" 
d="M506 1409l-385 -817l385 -825l385 825zM506 1653l500 -1061l-500 -1069l-500 1069z" />
    <glyph glyph-name="apple" unicode="&#xf000;" horiz-adv-x="1618" 
d="M836 1216q-1 6 -1.5 14t-0.5 23q0 124 95 229.5t236 131.5q1 -10 1.5 -23t0.5 -39q0 -131 -103.5 -234.5t-203.5 -103.5h-8q-3 0 -7.5 1t-8.5 1zM1505 403q-114 -247 -205 -342.5t-204 -95.5q-50 0 -131.5 33t-122.5 33q-45 0 -131 -33t-127 -33q-64 0 -128.5 44
t-129.5 132q-102 140 -157.5 295.5t-55.5 300.5q0 219 125 356.5t323 137.5q68 0 155 -34t124 -34q34 0 121.5 34t152.5 34q111 0 199 -39.5t160 -122.5q-102 -65 -151.5 -145.5t-49.5 -182.5q0 -113 60 -200t173 -138z" />
    <glyph glyph-name="fi" unicode="&#xf001;" horiz-adv-x="1417" 
d="M551 203q0 -80 29 -113t98 -33h14v-57h-655v57h6q66 0 94.5 33.5t28.5 112.5v702h-98v56q58 53 124 131.5t80 93.5q131 132 260 189t293 57q166 0 260.5 -55.5t94.5 -151.5q0 -68 -47.5 -110t-124.5 -42q-50 0 -89.5 21.5t-82.5 72.5q-9 10 -24 29q-98 121 -179 121
q-67 0 -109.5 -37t-42.5 -96q0 -38 40 -140q15 -40 24 -63h370q123 0 212 13t149 40v-831q0 -76 28.5 -110t92.5 -36v-57h-633v57h6q66 0 94.5 33.5t28.5 112.5v557q0 90 -25.5 117.5t-99.5 27.5h-217v-702z" />
    <glyph glyph-name="fl" unicode="&#xf002;" horiz-adv-x="1417" 
d="M551 203q0 -80 29 -113t98 -33h14v-57h-655v57h6q66 0 94.5 33.5t28.5 112.5v702h-98v56q50 43 109 128.5t79 108.5q110 126 225.5 180t274.5 54q94 0 165.5 -23.5t118.5 -69.5q58 21 117.5 44t118.5 49v-1229q0 -79 28.5 -112.5t94.5 -33.5h6v-57h-643v57h6
q66 0 94.5 33.5t28.5 112.5v874q-75 12 -145 113q-18 25 -27 37q-39 49 -75.5 70.5t-78.5 21.5q-58 0 -97.5 -35t-39.5 -86q0 -42 51.5 -106.5t65.5 -110.5h188v-76h-182v-702z" />
    </font>
</defs>
</svg>
